<svg xmlns="http://www.w3.org/2000/svg" width="60" height="50" viewBox="0 0 60 50" fill="none">
  <g clip-path="url(#clip0_468_1159)">
    <path d="M53.081 18.6754L59.4937 26.2105C60.4288 27.3092 60.0334 28.2105 58.6141 28.2105H53.7518C53.7562 28.2741 53.7607 28.3355 53.7607 28.4013V47.3443C53.7607 48.8048 52.3391 50.0022 50.6021 50.0022H21.9059C20.1689 50.0022 18.7473 48.807 18.7473 47.3443V28.4013C18.7473 28.3377 18.7518 28.2741 18.7562 28.2105H13.7695C12.3502 28.2105 11.9526 27.3114 12.8899 26.2105L34.4892 0.824562C35.4244 -0.274122 36.9548 -0.274122 37.8899 0.824562L44.1538 8.18641L53.0787 18.6732L53.081 18.6754Z" fill="#65CE58"/>
    <path d="M18.7472 28.3991C18.7472 28.3355 18.7516 28.2719 18.7561 28.2083H13.7694C12.35 28.2083 11.9524 27.3092 12.8898 26.2083L27.1079 9.50219L22.4988 4.10087C21.5637 3.00438 20.0333 3.00438 19.0981 4.10087L0.50639 25.9408C-0.42875 27.0373 -0.0333706 27.9342 1.386 27.9342H9.50683C9.50239 27.9978 9.50017 28.0592 9.50017 28.1228V42.0132C9.50017 43.4693 10.6619 44.6623 12.0812 44.6623H18.7472V28.3991Z" fill="#07A439"/>
    <path d="M46.9613 27.3487C45.1844 25 41.8125 24.5176 39.4336 26.2719C39.3736 26.3158 39.3047 26.364 39.2292 26.4145C38.6961 26.7676 37.7788 27.2369 36.5926 27.2983C34.9156 27.3794 33.6628 26.6031 33.2008 26.2654C33.1941 26.261 33.1875 26.2566 33.1808 26.2522C30.7974 24.5176 27.4411 25.0132 25.6752 27.3619C23.9027 29.7171 24.4003 33.0439 26.7859 34.7917C28.4229 35.9934 31.7681 37.9276 36.3238 37.9276C36.5948 37.9276 36.8703 37.9211 37.1479 37.9079C41.1328 37.704 44.0915 36.0965 45.8729 34.7851C48.2519 33.0307 48.7406 29.7018 46.9636 27.3531L46.9613 27.3487Z" fill="white"/>
  </g>
  <defs>
    <clipPath id="clip0_468_1159">
      <rect width="60" height="50" fill="white"/>
    </clipPath>
  </defs>
</svg>