<svg width="52" height="50" viewBox="0 0 52 50" fill="none" xmlns="http://www.w3.org/2000/svg">
<g clip-path="url(#clip0_468_1174)">
<path d="M25.0885 31.4584L18.932 25.4279L5.29324 38.781C3.90174 38.2433 2.25818 38.524 1.13255 39.6266C-0.379797 41.108 -0.379797 43.5094 1.13255 44.9909C1.91635 45.7586 2.95566 46.1273 3.98461 46.0969C3.95354 47.1048 4.32644 48.1228 5.1137 48.8906C6.62605 50.3721 9.07757 50.3721 10.5899 48.8906C11.7156 47.788 12.0021 46.178 11.4531 44.815L25.0885 31.4584Z" fill="#DDD5CA"/>
<path d="M19.8541 36.5284C28.6968 35.9298 43.5268 28.6275 47.9223 24.3219C53.585 18.7749 53.3157 9.51769 47.3215 3.64608C41.6139 -1.94481 31.5799 -0.253673 26.2142 3.05756C25.3683 3.57843 23.0618 5.03619 21.2421 7.76567C19.0564 11.0397 19.0772 13.8977 18.4108 17.2529C17.7927 20.3646 16.9916 25.5834 13.6389 30.6095C16.2286 33.1462 17.3162 34.0425 19.8541 36.5284Z" fill="#F5A043"/>
<path d="M47.3215 3.64608C46.9279 3.26051 46.517 2.91213 46.517 2.91213C46.2097 2.66523 45.9265 2.46567 45.6814 2.31009C46.7172 3.67652 48.1674 7.25116 47.9223 12.0371C47.6978 16.3765 45.7281 19.568 43.9637 21.2963C39.5682 25.6019 26.2798 33.5622 17.437 34.1609L18.6455 35.3447L19.854 36.5285C28.6968 35.9298 43.5268 28.6275 47.9223 24.3219C53.585 18.775 53.3156 9.51769 47.3215 3.64608Z" fill="#DE8D34"/>
<path d="M19.9574 36.4811L18.2483 34.8779C17.4368 34.1609 18.2693 34.8976 18.2483 34.8779L18.0454 34.6986L17.8425 34.5194L17.4368 34.1609L9.01187 42.4981C9.56087 43.8612 9.27429 45.4711 8.14866 46.5738C7.08172 47.6189 5.55211 47.9233 4.2124 47.4937C4.39886 48.0045 4.6958 48.4847 5.1136 48.894C6.62595 50.3754 9.07748 50.3754 10.5898 48.894C11.7155 47.7914 12.002 46.1814 11.453 44.8184L19.9609 36.4845L19.9574 36.4811Z" fill="#C3BDB5"/>
<path d="M34.3854 8.43361C34.7994 8.95168 34.7121 9.68187 34.1836 10.0907C33.6834 10.4728 32.9407 10.3802 32.5233 9.86245C32.1059 9.34474 32.2084 8.62656 32.7051 8.24484C33.2339 7.83937 33.9718 7.9189 34.3858 8.43697L34.3854 8.43361Z" fill="#FFBE6E"/>
<path d="M27.3083 11.1877C27.7181 11.6994 27.5979 12.4466 27.0977 12.8287C26.5976 13.2107 25.8272 13.1516 25.4171 12.6365C25.0069 12.1215 25.1434 11.3964 25.6431 11.0109C26.1429 10.6255 26.911 10.6951 27.3048 11.188L27.3083 11.1877Z" fill="#FFBE6E"/>
<path d="M30.1447 17.2062C30.5545 17.7179 30.4343 18.4651 29.9342 18.8472C29.434 19.2292 28.6637 19.1701 28.2535 18.655C27.8433 18.14 27.9798 17.4149 28.4796 17.0294C28.9794 16.644 29.7474 16.7136 30.1413 17.2065L30.1447 17.2062Z" fill="#FFBE6E"/>
<path d="M23.9992 18.1321C24.409 18.6438 24.2888 19.391 23.7887 19.7731C23.2885 20.1552 22.5181 20.096 22.108 19.581C21.6978 19.0659 21.8343 18.3408 22.3341 17.9553C22.8339 17.5699 23.6019 17.6395 23.9957 18.1325L23.9992 18.1321Z" fill="#FFBE6E"/>
<path d="M32.4744 5.14579C32.8665 5.63536 32.7515 6.35026 32.273 6.71581C31.7945 7.08136 31.0575 7.02478 30.665 6.53199C30.2726 6.03921 30.4032 5.34546 30.8814 4.97669C31.3595 4.60792 32.0943 4.6745 32.4712 5.14613L32.4744 5.14579Z" fill="#FFBE6E"/>
<path d="M39.3917 8.26542C39.7649 8.73417 39.6937 9.45428 39.191 9.84187C38.6882 10.2295 37.9804 10.1048 37.6072 9.63601C37.2114 9.14357 37.2979 8.4414 37.7764 8.07585C38.255 7.7103 38.9963 7.77619 39.392 8.26864L39.3917 8.26542Z" fill="#FFBE6E"/>
</g>
<defs>
<clipPath id="clip0_468_1174">
<rect width="52" height="50" fill="white"/>
</clipPath>
</defs>
</svg>
