<svg width="50" height="53" viewBox="0 0 50 53" fill="none" xmlns="http://www.w3.org/2000/svg">
<g clip-path="url(#clip0_468_1192)">
<path d="M40.0814 1.10933C40.7893 1.71828 40.784 2.90567 40.075 3.77188L34.9795 9.9975L36.7447 11.516L41.844 5.28571C42.553 4.4195 43.6972 4.21189 44.4005 4.81693C45.1039 5.42197 45.1031 6.61327 44.3942 7.47948L39.2986 13.7051L41.0638 15.2236L46.1593 8.99794C46.8728 8.13563 48.0133 7.93265 48.7211 8.5416C49.429 9.15054 49.4275 10.3333 48.7185 11.1995L39.5701 22.3769C38.3948 23.8129 36.3043 23.9958 34.8976 22.7857L33.0916 21.2321C33.0916 21.2321 22.927 36.1452 20.1432 40.3495C15.7983 46.905 13.2375 51.3564 9.1907 47.8831C5.14311 44.4011 9.09317 41.1527 14.5982 35.5794C18.1565 31.9782 30.5959 19.0852 30.5959 19.0852L28.7899 17.5316C27.3832 16.3215 27.1959 14.179 28.3712 12.7431L37.5196 1.56568C38.2286 0.699465 39.3728 0.491851 40.0761 1.09689L40.0814 1.10933Z" fill="#DDD5CA"/>
<path d="M14.8724 40.9364C16.5134 42.3482 17.914 42.4491 19.281 41.6377C15.4352 47.4697 12.9551 51.1327 9.1797 47.8925C5.42623 44.6632 8.55678 41.6308 13.43 36.7616C12.929 38.2233 13.2767 39.5636 14.8724 40.9364Z" fill="#C3BDB5"/>
<path d="M19.6119 10.5009C17.2954 7.67062 11.5096 -0.258204 5.55139 4.86732C-0.406825 9.99285 6.2049 17.2112 8.52139 20.0415C10.6218 22.6077 13.9653 23.3388 16.9362 21.4225C27.8812 37.4877 23.22 30.4227 29.9097 40.6841C34.0468 47.0237 36.8548 51.815 41.0153 48.2439C45.172 44.6681 40.9391 41.1026 35.6047 35.785C32.1586 32.3399 19.4774 19.2365 19.4774 19.2365C21.834 16.5698 21.7123 13.0671 19.6119 10.5009Z" fill="#DDD5CA"/>
<path d="M35.3298 41.2926C33.6389 42.7473 32.1702 42.8122 30.7525 41.9577C34.4483 47.6347 37.1511 51.5792 41.0224 48.2486C44.871 44.9374 41.5208 41.6366 36.7666 36.9412C37.3002 38.4616 36.9753 39.8769 35.3298 41.2926Z" fill="#C3BDB5"/>
</g>
<defs>
<clipPath id="clip0_468_1192">
<rect width="50" height="53" fill="white"/>
</clipPath>
</defs>
</svg>
