<svg width="52" height="50" viewBox="0 0 52 50" fill="none" xmlns="http://www.w3.org/2000/svg">
<g clip-path="url(#clip0_468_1162)">
<path d="M26.0023 50.0045C40.363 50.0045 52.0047 38.8106 52.0047 25.0022C52.0047 11.1939 40.363 0 26.0023 0C11.6416 0 0 11.1939 0 25.0022C0 38.8106 11.6416 50.0045 26.0023 50.0045Z" fill="#4C4C4C"/>
<path d="M26.0022 45.7634C37.927 45.7634 47.5938 36.4683 47.5938 25.0022C47.5938 13.5361 37.927 4.24106 26.0022 4.24106C14.0775 4.24106 4.41064 13.5361 4.41064 25.0022C4.41064 36.4683 14.0775 45.7634 26.0022 45.7634Z" fill="#373737"/>
<path d="M25.9576 27.2151L22.6405 29.3022C21.9941 29.7089 21.8131 30.5423 22.236 31.1637L30.7256 43.6386C31.1485 44.26 32.0153 44.4342 32.6616 44.0275L35.9787 41.9404C36.625 41.5337 36.8061 40.7003 36.3832 40.0788L27.8936 27.604C27.4707 26.9825 26.6039 26.8084 25.9576 27.2151Z" fill="#FF8F1E"/>
<path d="M27.9394 25.2201L25.4997 28.2117C25.0214 28.7983 25.1281 29.6468 25.7382 30.1068L37.931 39.2996C38.5411 39.7596 39.4234 39.657 39.9018 39.0703L42.3414 36.0787C42.8198 35.4921 42.7131 34.6437 42.103 34.1837L29.9102 24.9908C29.3001 24.5308 28.4177 24.6335 27.9394 25.2201Z" fill="#FF8F1E"/>
<path d="M28.8094 22.816L27.5026 26.4039C27.2463 27.1075 27.6317 27.8776 28.3635 28.124L42.9868 33.0482C43.7185 33.2946 44.5194 32.924 44.7756 32.2205L46.0824 28.6325C46.3387 27.9289 45.9532 27.1588 45.2215 26.9124L30.5982 21.9882C29.8665 21.7418 29.0656 22.1124 28.8094 22.816Z" fill="#FF8F1E"/>
<path d="M15.8783 33.8379C18.3079 32.9667 20.0074 31.0323 20.6122 28.7859C21.1784 26.6866 19.0013 24.8559 16.8883 25.6161L9.50782 28.2702C7.39475 29.0305 6.99943 31.7812 8.8576 33.008C10.8457 34.3185 13.4475 34.7141 15.8783 33.8379Z" fill="#B75800"/>
<path d="M27.8349 38.1476C28.1182 35.6693 27.0858 33.3398 25.271 31.8101C23.5756 30.3797 20.896 31.4261 20.6519 33.5828L19.7982 41.1148C19.554 43.2715 21.9314 44.848 23.9067 43.8039C26.018 42.6859 27.5556 40.6293 27.8349 38.1476Z" fill="#B75800"/>
<path d="M21.9105 38.2713C23.7305 36.4916 24.4218 34.049 23.9829 31.7686C23.5759 29.6368 20.7976 28.8591 19.2182 30.4066L13.6935 35.8052C12.1091 37.3511 12.9612 40.008 15.1865 40.3648C17.5632 40.7484 20.0922 40.0463 21.9121 38.2665L21.9105 38.2713Z" fill="#DE8D34"/>
<path d="M29.5928 19.2244C29.5928 19.2244 24.3326 20.0651 24.7438 13.6512C25.1528 7.24327 30.1755 4.842 31.3268 5.61941C32.478 6.39682 38.9922 18.5442 29.5908 19.2205L29.5928 19.2244Z" fill="#65CE58"/>
<path d="M33.5744 22.2737C33.5744 22.2737 28.3324 21.3341 30.9998 15.4421C33.6631 9.55495 39.237 8.94993 40.0423 10.059C40.8477 11.1681 42.6491 24.7251 33.574 22.2693L33.5744 22.2737Z" fill="#07A439"/>
<path d="M31.8483 22.1767C31.8483 22.1767 30.4708 17.2234 37.1498 16.9984C43.8225 16.7719 46.7925 21.3473 46.0988 22.5241C45.4051 23.7008 33.4589 31.1068 31.8522 22.1744L31.8483 22.1767Z" fill="#65CE58"/>
<ellipse cx="18.2029" cy="13.4638" rx="6.06768" ry="5.83431" fill="#ED7265"/>
<ellipse cx="11.6685" cy="22.4396" rx="6.06768" ry="5.83431" fill="#ED7265"/>
<path d="M25.8635 36.32C32.6335 36.32 38.1216 31.0429 38.1216 24.5334C38.1216 18.0238 32.6335 12.7468 25.8635 12.7468C19.0936 12.7468 13.6055 18.0238 13.6055 24.5334C13.6055 31.0429 19.0936 36.32 25.8635 36.32Z" fill="#FEFDF9"/>
<path d="M29.9863 27.0661C31.6296 24.768 31.0242 21.6241 28.6342 20.0441C26.2441 18.4641 22.9745 19.0462 21.3313 21.3443C19.6881 23.6424 20.2935 26.7862 22.6835 28.3663C25.0735 29.9463 28.3431 29.3642 29.9863 27.0661Z" fill="#FBED21"/>
<path d="M31.4462 30.7714C31.4462 30.9807 31.267 31.1531 31.0493 31.1531C30.8316 31.1531 30.6523 30.9807 30.6523 30.7714C30.6523 30.5621 30.8316 30.3897 31.0493 30.3897C31.267 30.3897 31.4462 30.5621 31.4462 30.7714Z" fill="#FFBE6E"/>
<path d="M33.9389 30.7714C33.9389 31.1859 33.5889 31.5183 33.1621 31.5183C32.7352 31.5183 32.3853 31.1818 32.3853 30.7714C32.3853 30.361 32.7352 30.0244 33.1621 30.0244C33.5889 30.0244 33.9389 30.361 33.9389 30.7714Z" fill="#FFBE6E"/>
<path d="M31.9969 32.2693C31.9969 32.5607 31.7494 32.7988 31.4463 32.7988C31.1433 32.7988 30.8958 32.5607 30.8958 32.2693C30.8958 31.978 31.1433 31.7399 31.4463 31.7399C31.7494 31.7399 31.9969 31.978 31.9969 32.2693Z" fill="#FFBE6E"/>
<path d="M24.6387 24.3825C25.6994 24.3825 26.5593 23.6475 26.5593 22.7409C26.5593 21.8343 25.6994 21.0993 24.6387 21.0993C23.5779 21.0993 22.718 21.8343 22.718 22.7409C22.718 23.6475 23.5779 24.3825 24.6387 24.3825Z" fill="#FFF8D2"/>
</g>
<defs>
<clipPath id="clip0_468_1162">
<rect width="52" height="50" fill="white"/>
</clipPath>
</defs>
</svg>
