<svg width="55" height="49" viewBox="0 0 55 49" fill="none" xmlns="http://www.w3.org/2000/svg">
<g clip-path="url(#clip0_468_1189)">
<path fill-rule="evenodd" clip-rule="evenodd" d="M51.8648 15.3957L51.9691 15.6163C54.5272 21.0923 53.0952 27.6871 48.7853 30.2793L19.3736 47.9521C15.0637 50.5443 9.44 48.1806 6.88186 42.7125L6.77759 42.4919L51.8648 15.3957Z" fill="#FFB355"/>
<path fill-rule="evenodd" clip-rule="evenodd" d="M47.7149 6.51599L47.6106 6.29537C45.0525 0.819415 39.4287 -1.53643 35.1188 1.05579L5.70022 18.7207C1.39032 21.3129 -0.0416859 27.9077 2.51645 33.3837L2.62073 33.6043L47.7149 6.51599Z" fill="#FFB355"/>
<path fill-rule="evenodd" clip-rule="evenodd" d="M10.0588 16.1048L5.70022 18.7207C1.39032 21.3129 -0.0416861 27.9077 2.51645 33.3836L2.62073 33.6043L6.97929 30.9884L6.87502 30.7678C4.31688 25.2918 5.74889 18.697 10.0588 16.1048Z" fill="#F5A043"/>
<path fill-rule="evenodd" clip-rule="evenodd" d="M11.7272 41.05L7.36865 43.6658C10.1075 48.4484 15.3142 50.3867 19.3599 47.9521L23.7185 45.3362C19.6658 47.7708 14.4591 45.8326 11.7272 41.05Z" fill="#F5A043"/>
<path fill-rule="evenodd" clip-rule="evenodd" d="M47.1934 5.28687L6.1102 29.972C3.66329 31.4375 2.85692 35.1801 4.30282 38.2845C5.75568 41.3888 8.93945 42.7283 11.3864 41.2549L52.4765 16.5697C54.9234 15.1042 55.7367 11.3616 54.2839 8.25728C52.831 5.15293 49.6472 3.81348 47.2003 5.28687H47.1934Z" fill="#EF5D3F"/>
<path fill-rule="evenodd" clip-rule="evenodd" d="M5.07448 37.8196C3.62162 34.7152 4.43494 30.9806 6.88186 29.5072L2.52329 32.123C0.0763712 33.5885 -0.729999 37.3311 0.715906 40.4355C2.16876 43.5398 5.35253 44.8793 7.79945 43.4059L12.158 40.79C9.7111 42.2555 6.52733 40.924 5.07448 37.8196Z" fill="#DC4F3C"/>
<path d="M19.34 34.8013C19.2987 34.8259 19.2574 34.8505 19.2162 34.8752C17.05 36.1646 14.2049 35.7209 10.7718 33.5733C9.87136 33.0118 9.45085 31.7137 9.83486 30.6799C10.2189 29.6461 11.2548 29.2666 12.1552 29.8281C14.4979 31.2927 16.2644 31.6915 17.406 31.0177C18.2379 30.5091 18.6222 29.4911 19.1413 27.8709C19.7394 26.0124 20.4752 23.7092 22.6123 22.3496L22.6331 22.3491C24.6533 21.0631 26.5735 21.4976 28.1168 21.8545C29.5972 22.1971 30.4902 22.3569 31.5073 21.7177C32.6068 21.0214 33.0438 19.8445 33.6 18.3495C34.2557 16.5999 34.9905 14.612 36.9582 13.4928C39.0152 12.3164 41.5859 12.5855 44.6004 14.2861C45.514 14.8079 45.9758 16.0813 45.6339 17.1377C45.2921 18.1941 44.2642 18.6286 43.3507 18.1147C41.376 16.9959 39.8209 16.7496 38.7201 17.3751C37.8464 17.8769 37.4336 18.8561 36.8574 20.3989C36.2218 22.1086 35.4271 24.2398 33.3861 25.5262L33.3722 25.5265C31.2898 26.8376 29.3486 26.3957 27.7845 26.0394C26.3391 25.7116 25.467 25.5514 24.5119 26.1576L24.5049 26.1577C23.4399 26.8375 23.0436 27.9582 22.4718 29.7373C21.9131 31.4688 21.2299 33.613 19.3471 34.809L19.34 34.8013Z" fill="#FBED21"/>
</g>
<defs>
<clipPath id="clip0_468_1189">
<rect width="55" height="49" fill="white"/>
</clipPath>
</defs>
</svg>
