<svg width="20" height="19" viewBox="0 0 20 19" fill="none" xmlns="http://www.w3.org/2000/svg">
<path d="M5.58077 19C6.03454 19 6.34312 18.761 6.88749 18.2653L10.0275 15.4462H15.844C18.5481 15.4462 20 13.9311 20 11.2401V4.20577C20 1.51516 18.5481 0 15.844 0H4.15595C1.46121 0 0 1.50615 0 4.20577V11.2401C0 13.9401 1.46082 15.4462 4.15595 15.4462H4.59153V17.8336C4.59153 18.5408 4.9547 19 5.58077 19ZM5.95245 17.3195V14.6563C5.95245 14.1607 5.77126 13.9675 5.27219 13.9675H4.16486C2.32306 13.9675 1.46082 13.0217 1.46082 11.231V4.20577C1.46082 2.41516 2.32306 1.47872 4.16525 1.47872H15.844C17.6769 1.47872 18.5388 2.41516 18.5388 4.20577V11.231C18.5388 13.0217 17.6769 13.9675 15.844 13.9675H9.96361C9.46454 13.9675 9.20164 14.0412 8.85628 14.3993L5.95245 17.3195ZM5.38098 5.39062H14.619C14.9094 5.39062 15.1456 5.16102 15.1456 4.85775C15.1456 4.56389 14.9094 4.33428 14.619 4.33428H5.38098C5.31282 4.33344 5.24519 4.34641 5.18205 4.37242C5.11892 4.39842 5.06156 4.43695 5.01337 4.48573C4.96517 4.53451 4.9271 4.59255 4.9014 4.65644C4.87569 4.72033 4.86288 4.78877 4.86371 4.85775C4.86371 5.16102 5.0906 5.39062 5.38098 5.39062ZM5.38098 8.37509H14.619C14.9094 8.37509 15.1456 8.14549 15.1456 7.84222C15.1456 7.55776 14.9094 7.30974 14.619 7.30974H5.38098C5.0906 7.30974 4.86371 7.55776 4.86371 7.84261C4.86371 8.14549 5.0906 8.37509 5.38098 8.37509ZM5.38098 11.3686H11.3884C11.6788 11.3686 11.915 11.1394 11.915 10.8455C11.915 10.5422 11.6788 10.3036 11.3884 10.3036H5.38098C5.0906 10.3036 4.86371 10.5426 4.86371 10.8455C4.86371 11.1394 5.0906 11.3686 5.38098 11.3686Z" fill="#029F64"/>
</svg>
