<svg width="26" height="26" viewBox="0 0 26 26" fill="none" xmlns="http://www.w3.org/2000/svg">
<path d="M7.05144 10.6V25V10.6ZM16.7337 5.656L15.5234 10.6H22.5794C22.9552 10.6 23.3258 10.6867 23.6619 10.8534C23.998 11.02 24.2904 11.2619 24.5159 11.56C24.7414 11.8581 24.8937 12.2041 24.961 12.5707C25.0282 12.9373 25.0084 13.3143 24.9032 13.672L22.0832 23.272C21.9366 23.7705 21.6308 24.2084 21.2118 24.52C20.7928 24.8316 20.2832 25 19.7595 25H3.42057C2.7786 25 2.16292 24.7471 1.70897 24.2971C1.25502 23.847 1 23.2365 1 22.6V13C1 12.3635 1.25502 11.753 1.70897 11.3029C2.16292 10.8529 2.7786 10.6 3.42057 10.6H6.76097C7.2113 10.5998 7.65263 10.475 8.03535 10.2397C8.41806 10.0044 8.72699 9.66786 8.92738 9.268L13.1029 1C13.6736 1.00701 14.2354 1.1418 14.7462 1.39432C15.257 1.64683 15.7037 2.01053 16.0528 2.45824C16.402 2.90596 16.6446 3.42611 16.7625 3.97984C16.8804 4.53357 16.8706 5.10656 16.7337 5.656Z" fill="#65CE58"/>
<path d="M7.05144 10.6V25M16.7337 5.656L15.5234 10.6H22.5794C22.9552 10.6 23.3258 10.6867 23.6619 10.8534C23.998 11.02 24.2904 11.2619 24.5159 11.56C24.7414 11.8581 24.8937 12.2041 24.961 12.5707C25.0282 12.9373 25.0084 13.3143 24.9032 13.672L22.0832 23.272C21.9366 23.7705 21.6308 24.2084 21.2118 24.52C20.7928 24.8316 20.2832 25 19.7595 25H3.42057C2.7786 25 2.16292 24.7471 1.70897 24.2971C1.25502 23.847 1 23.2365 1 22.6V13C1 12.3635 1.25502 11.753 1.70897 11.3029C2.16292 10.8529 2.7786 10.6 3.42057 10.6H6.76097C7.2113 10.5998 7.65263 10.475 8.03535 10.2397C8.41806 10.0044 8.72699 9.66786 8.92738 9.268L13.1029 1C13.6736 1.00701 14.2354 1.1418 14.7462 1.39432C15.257 1.64683 15.7037 2.01053 16.0528 2.45824C16.402 2.90596 16.6446 3.42611 16.7625 3.97984C16.8804 4.53357 16.8706 5.10656 16.7337 5.656Z" stroke="#029F64" stroke-width="2" stroke-linecap="round" stroke-linejoin="round"/>
</svg>
