<svg width="24" height="24" viewBox="0 0 24 24" fill="none" xmlns="http://www.w3.org/2000/svg">
<path d="M10.308 13.692L15.154 8.84598M20.11 5.88998L16.02 19.184C15.653 20.376 15.47 20.972 15.153 21.169C15.018 21.2533 14.8648 21.3042 14.7062 21.3174C14.5475 21.3306 14.3881 21.3058 14.241 21.245C13.897 21.102 13.617 20.545 13.059 19.429L10.469 14.247C10.416 14.1269 10.3514 14.0124 10.276 13.905C10.2239 13.8372 10.1634 13.7764 10.096 13.724C9.99178 13.6516 9.88094 13.5893 9.76496 13.538L4.57196 10.94C3.45696 10.382 2.89896 10.103 2.75596 9.75898C2.69496 9.61175 2.67004 9.45208 2.68326 9.29326C2.69648 9.13445 2.74746 8.98109 2.83196 8.84598C3.02896 8.52998 3.62496 8.34598 4.81696 7.97898L18.112 3.88898C19.049 3.59998 19.517 3.45598 19.834 3.57298C19.9701 3.62298 20.0938 3.70201 20.1964 3.80458C20.2989 3.90715 20.378 4.03081 20.428 4.16698C20.544 4.48298 20.4 4.95098 20.112 5.88698L20.11 5.88998Z" stroke="#919191" stroke-width="2" stroke-linecap="round" stroke-linejoin="round"/>
</svg>
