<svg width="120" height="59" viewBox="0 0 120 59" fill="none" xmlns="http://www.w3.org/2000/svg">
<g filter="url(#filter0_d_1786_5912)">
<rect x="8" y="8" width="104" height="43" rx="21.5" fill="#65CE58" shape-rendering="crispEdges"/>
<path d="M28 29.5H42" stroke="white" stroke-width="2" stroke-linecap="round"/>
<path d="M35 36.5L35 22.5" stroke="white" stroke-width="2" stroke-linecap="round"/>
<path d="M61.7969 22.8594V23.7969C61.8047 24.7188 61.8047 25.8906 61.5078 27.3594H63.375V28.7344H50.4688V27.3594H59.7578C60.0156 26.0703 60.0547 25.0703 60.0625 24.2344H52.0625V22.8594H61.7969ZM51.9531 31.2188V29.8594H61.7812V33.6875H53.7031V34.8906H62.1406V36.25H51.9688V32.3594H60.0469V31.2188H51.9531ZM68.7972 25.0156C68.7972 26.3594 69.3676 27.9453 70.7582 28.9141C72.1176 27.9609 72.6879 26.3828 72.6879 25.0156V23.3281H74.4379V25.0156C74.4301 26.7266 75.266 28.4766 77.1879 29.2656L76.2504 30.5625C74.9144 29.9922 74.0394 28.9453 73.5551 27.6719C73.0707 28.9922 72.1644 30.1484 70.7347 30.75C69.2972 30.1484 68.391 28.9688 67.9144 27.6406C67.4144 28.8984 66.5316 29.9766 65.2191 30.5625L64.3129 29.2656C66.1801 28.4453 67.0551 26.6328 67.0629 25.0156V23.3281H68.7972V25.0156ZM64.3129 34.5781V33.1562H77.1879V34.5781H64.3129ZM89.9539 22.2656V36.3906H88.2039V22.2656H89.9539ZM78.2507 32.5C81.9539 30.7422 83.657 28.3516 83.9695 25.1406H78.9695V23.7656H85.7351C85.7351 27.9688 84.1023 31.5391 79.157 33.8906L78.2507 32.5Z" fill="white"/>
</g>
<defs>
<filter id="filter0_d_1786_5912" x="0" y="0" width="120" height="59" filterUnits="userSpaceOnUse" color-interpolation-filters="sRGB">
<feFlood flood-opacity="0" result="BackgroundImageFix"/>
<feColorMatrix in="SourceAlpha" type="matrix" values="0 0 0 0 0 0 0 0 0 0 0 0 0 0 0 0 0 0 127 0" result="hardAlpha"/>
<feOffset/>
<feGaussianBlur stdDeviation="4"/>
<feComposite in2="hardAlpha" operator="out"/>
<feColorMatrix type="matrix" values="0 0 0 0 0 0 0 0 0 0 0 0 0 0 0 0 0 0 0.25 0"/>
<feBlend mode="normal" in2="BackgroundImageFix" result="effect1_dropShadow_1786_5912"/>
<feBlend mode="normal" in="SourceGraphic" in2="effect1_dropShadow_1786_5912" result="shape"/>
</filter>
</defs>
</svg>
