<svg width="16" height="15" viewBox="0 0 16 15" fill="none" xmlns="http://www.w3.org/2000/svg">
<path d="M1.43644 13.8H14.5644C14.7239 13.8 14.8548 13.7496 14.9573 13.6487C15.0599 13.5478 15.1111 13.4188 15.1111 13.2619V11.9319C15.1111 11.775 15.0599 11.6461 14.9573 11.5452C14.8548 11.4443 14.7236 11.3938 14.5636 11.3938H1.43644C1.27644 11.3938 1.14519 11.4443 1.04267 11.5452C0.940148 11.6461 0.888889 11.7753 0.888889 11.9328V13.261C0.888889 13.4185 0.940148 13.5478 1.04267 13.6487C1.14519 13.7496 1.27644 13.8 1.43644 13.8ZM5.04267 8.4993H5.93156V6.04317C5.93156 5.48784 6.13422 5.01242 6.53956 4.61692C6.9443 4.22142 7.43111 4.02367 8 4.02367V3.14867C7.18222 3.14867 6.48474 3.42984 5.90756 3.99217C5.33096 4.55392 5.04267 5.23759 5.04267 6.04317V8.4993ZM3.40178 10.5188H12.5982V6.04317C12.5982 4.78784 12.1496 3.72501 11.2524 2.85467C10.3553 1.98434 9.27022 1.54947 7.99733 1.55005C6.72444 1.55063 5.64 1.98551 4.744 2.85467C3.848 3.72384 3.40059 4.78667 3.40178 6.04317V10.5188ZM1.43644 14.675C1.04119 14.675 0.703111 14.5365 0.422222 14.2594C0.141333 13.9823 0.000592593 13.6501 0 13.2628V11.9328C0 11.5443 0.140741 11.2118 0.422222 10.9353C0.703704 10.6588 1.04148 10.5203 1.43556 10.5197H2.51289V6.04405C2.51289 4.54838 3.04533 3.27963 4.11022 2.2378C5.17511 1.19597 6.4717 0.675049 8 0.675049C9.5283 0.675049 10.8249 1.19597 11.8898 2.2378C12.9547 3.27963 13.4871 4.54809 13.4871 6.04317V10.5188H14.5644C14.9591 10.5188 15.2969 10.6573 15.5778 10.9344C15.8587 11.2115 15.9994 11.544 16 11.9319V13.2619C16 13.6504 15.8593 13.9829 15.5778 14.2594C15.2963 14.5359 14.9585 14.6745 14.5644 14.675H1.43644Z" fill="#919191"/>
</svg>
