<svg width="15" height="14" viewBox="0 0 15 14" fill="none" xmlns="http://www.w3.org/2000/svg">
<path d="M1.15384 0H13.8461C14.1522 0 14.4456 0.122916 14.662 0.341709C14.8784 0.560501 15 0.857247 15 1.16667V12.8333C15.0013 13.0558 14.9391 13.2739 14.8207 13.4615C14.7024 13.6491 14.533 13.7981 14.3329 13.8906C14.1804 13.9624 14.0143 13.9997 13.8461 14C13.5753 13.9993 13.3134 13.9016 13.107 13.7244L13.1005 13.7193L10.7452 11.6667H1.15384C0.847825 11.6667 0.55434 11.5437 0.337953 11.325C0.121565 11.1062 -9.53674e-07 10.8094 -9.53674e-07 10.5V1.16667C-9.53674e-07 0.857247 0.121565 0.560501 0.337953 0.341709C0.55434 0.122916 0.847825 0 1.15384 0ZM5.1923 7.58333H9.80768C9.96069 7.58333 10.1074 7.52188 10.2156 7.41248C10.3238 7.30308 10.3846 7.15471 10.3846 7C10.3846 6.84529 10.3238 6.69692 10.2156 6.58752C10.1074 6.47812 9.96069 6.41667 9.80768 6.41667H5.1923C5.03929 6.41667 4.89255 6.47812 4.78435 6.58752C4.67616 6.69692 4.61538 6.84529 4.61538 7C4.61538 7.15471 4.67616 7.30308 4.78435 7.41248C4.89255 7.52188 5.03929 7.58333 5.1923 7.58333ZM5.1923 5.25H9.80768C9.96069 5.25 10.1074 5.18854 10.2156 5.07915C10.3238 4.96975 10.3846 4.82138 10.3846 4.66667C10.3846 4.51196 10.3238 4.36358 10.2156 4.25419C10.1074 4.14479 9.96069 4.08333 9.80768 4.08333H5.1923C5.03929 4.08333 4.89255 4.14479 4.78435 4.25419C4.67616 4.36358 4.61538 4.51196 4.61538 4.66667C4.61538 4.82138 4.67616 4.96975 4.78435 5.07915C4.89255 5.18854 5.03929 5.25 5.1923 5.25Z" fill="#C3C3C3"/>
</svg>
