<svg width="40" height="40" viewBox="0 0 40 40" fill="none" xmlns="http://www.w3.org/2000/svg">
<circle cx="20" cy="20" r="20" fill="#C3C3C3"/>
<circle cx="20" cy="20" r="16" fill="#65CE58"/>
<path d="M17.472 23.3808L26.241 14.3207C26.448 14.1069 26.6894 14 26.9653 14C27.2412 14 27.4827 14.1069 27.6896 14.3207C27.8965 14.5345 28 14.7886 28 15.0829C28 15.3773 27.8965 15.631 27.6896 15.8441L18.1962 25.6793C17.9893 25.8931 17.7479 26 17.472 26C17.196 26 16.9546 25.8931 16.7477 25.6793L12.2985 21.0824C12.0915 20.8686 11.9922 20.6149 12.0005 20.3212C12.0088 20.0276 12.1167 19.7735 12.3243 19.559C12.532 19.3445 12.7779 19.2376 13.0621 19.2383C13.3463 19.239 13.5918 19.3459 13.7988 19.559L17.472 23.3808Z" fill="white"/>
</svg>
