<svg xmlns="http://www.w3.org/2000/svg" width="24" height="24" viewBox="0 0 24 24" fill="none">
  <path d="M16.035 3.01468C16.5735 2.47608 17.2966 2.16244 18.0578 2.13737C18.819 2.1123 19.5613 2.37768 20.134 2.87968L20.278 3.01468L20.985 3.72168C21.5233 4.2601 21.8368 4.98306 21.8618 5.74402C21.8869 6.50498 21.6217 7.247 21.12 7.81968L20.985 7.96368L9.773 19.1767C9.61448 19.3352 9.42244 19.4562 9.211 19.5307L9.049 19.5777L4.595 20.6057C4.43894 20.642 4.27644 20.6402 4.12119 20.6006C3.96594 20.561 3.82249 20.4846 3.70291 20.378C3.58333 20.2714 3.49112 20.1375 3.43406 19.9878C3.37699 19.8381 3.35674 19.6769 3.375 19.5177L3.395 19.4047L4.422 14.9497C4.47274 14.7312 4.57184 14.5268 4.712 14.3517L4.823 14.2267L16.035 3.01468ZM15.328 6.54968L6.338 15.5397L5.702 18.2977L8.46 17.6607L17.45 8.67068L15.328 6.54968ZM18.864 4.42868C18.6918 4.25651 18.4627 4.15308 18.2197 4.13779C17.9767 4.12251 17.7364 4.19643 17.544 4.34568L17.45 4.42868L16.742 5.13568L18.864 7.25668L19.571 6.54968C19.7432 6.37749 19.8466 6.14839 19.8619 5.90536C19.8772 5.66234 19.8033 5.42209 19.654 5.22968L19.571 5.13568L18.864 4.42868Z" fill="#919191"/>
</svg>