<svg xmlns="http://www.w3.org/2000/svg" width="16" height="16" viewBox="0 0 16 16" fill="none">
  <path fill-rule="evenodd" clip-rule="evenodd" d="M7.32 0.0294639C8.70071 -0.0883651 10.0884 0.15447 11.347 0.734182C12.6056 1.31389 13.6921 2.2106 14.5 3.33646V1.75046C14.5 1.55155 14.579 1.36079 14.7197 1.22013C14.8603 1.07948 15.0511 1.00046 15.25 1.00046C15.4489 1.00046 15.6397 1.07948 15.7803 1.22013C15.921 1.36079 16 1.55155 16 1.75046V6.00046H11.75C11.5511 6.00046 11.3603 5.92145 11.2197 5.78079C11.079 5.64014 11 5.44938 11 5.25046C11 5.05155 11.079 4.86079 11.2197 4.72013C11.3603 4.57948 11.5511 4.50046 11.75 4.50046H13.477C12.7931 3.43037 11.8107 2.58405 10.6512 2.06605C9.4917 1.54806 8.20584 1.38107 6.95248 1.58573C5.69912 1.79038 4.53316 2.35772 3.59864 3.21764C2.66412 4.07757 2.00198 5.19241 1.694 6.42446C1.67128 6.52125 1.62955 6.61255 1.57123 6.69306C1.51291 6.77356 1.43917 6.84168 1.35429 6.89343C1.26942 6.94518 1.1751 6.97955 1.07682 6.99452C0.97854 7.0095 0.878265 7.00478 0.781825 6.98066C0.685385 6.95653 0.594703 6.91347 0.515053 6.85398C0.435404 6.7945 0.368375 6.71977 0.317865 6.63414C0.267355 6.54852 0.234371 6.45371 0.220832 6.35522C0.207293 6.25674 0.213469 6.15654 0.239 6.06046C0.643544 4.44289 1.5434 2.99214 2.81279 1.91101C4.08218 0.829878 5.65766 0.172394 7.319 0.0304639L7.32 0.0294639ZM3.92 14.8815C4.99199 15.5168 6.19758 15.893 7.44068 15.98C8.68378 16.067 9.93001 15.8623 11.08 15.3824C12.23 14.9025 13.252 14.1606 14.0646 13.2157C14.8771 12.2709 15.4577 11.1494 15.76 9.94046C15.805 9.74866 15.7728 9.54684 15.6702 9.37863C15.5676 9.21042 15.403 9.08932 15.2119 9.0415C15.0207 8.99369 14.8185 9.023 14.6488 9.1231C14.4791 9.2232 14.3556 9.38605 14.305 9.57646C13.9969 10.8083 13.3347 11.9228 12.4002 12.7825C11.4658 13.6422 10.3 14.2094 9.04688 14.4141C7.79373 14.6187 6.50809 14.4518 5.34871 13.934C4.18933 13.4163 3.20699 12.5702 2.523 11.5005H4.25C4.44891 11.5005 4.63968 11.4214 4.78033 11.2808C4.92098 11.1401 5 10.9494 5 10.7505C5 10.5516 4.92098 10.3608 4.78033 10.2201C4.63968 10.0795 4.44891 10.0005 4.25 10.0005H0V14.2505C0 14.4494 0.0790176 14.6401 0.21967 14.7808C0.360322 14.9214 0.551088 15.0005 0.75 15.0005C0.948912 15.0005 1.13968 14.9214 1.28033 14.7808C1.42098 14.6401 1.5 14.4494 1.5 14.2505V12.6645C2.14478 13.5628 2.96879 14.3176 3.92 14.8815Z" fill="#029F64"/>
</svg>