<svg width="21" height="21" viewBox="0 0 21 21" fill="none" xmlns="http://www.w3.org/2000/svg">
<path d="M20.1 10.3169C20.1 9.60785 20.0364 8.92603 19.9182 8.27148H10.5V12.1397H15.8818C15.65 13.3897 14.9455 14.4488 13.8864 15.1578V17.6669H17.1182C19.0091 15.926 20.1 13.3624 20.1 10.3169Z" fill="#4285F4"/>
<path d="M10.5001 20.0639C13.2001 20.0639 15.4637 19.1684 17.1182 17.6411L13.8864 15.132C12.991 15.732 11.8455 16.0866 10.5001 16.0866C7.89551 16.0866 5.69096 14.3275 4.9046 11.9639H1.56369V14.5548C3.20914 17.823 6.59096 20.0639 10.5001 20.0639Z" fill="#34A853"/>
<path d="M4.90455 11.99C4.70455 11.39 4.59091 10.7491 4.59091 10.09C4.59091 9.43094 4.70455 8.79003 4.90455 8.19003V5.59912H1.56364C0.863636 6.99263 0.499383 8.53059 0.500001 10.09C0.500001 11.7037 0.886364 13.2309 1.56364 14.5809L4.90455 11.99Z" fill="#FBBC05"/>
<path d="M10.5001 4.06712C11.9682 4.06712 13.2864 4.57166 14.3228 5.56257L17.191 2.69439C15.4591 1.08075 13.1955 0.0898438 10.5001 0.0898438C6.59096 0.0898438 3.20914 2.33075 1.56369 5.59893L4.9046 8.18984C5.69096 5.82621 7.89551 4.06712 10.5001 4.06712Z" fill="#EA4335"/>
</svg>
