<svg width="273" height="57" viewBox="0 0 273 57" fill="none" xmlns="http://www.w3.org/2000/svg">
<rect x="0.5" y="0.589844" width="272" height="55" rx="11.5" fill="white"/>
<rect x="0.5" y="0.589844" width="272" height="55" rx="11.5" stroke="#616161"/>
<path d="M59.1 28.3169C59.1 27.6078 59.0364 26.926 58.9182 26.2715H49.5V30.1397H54.8818C54.65 31.3897 53.9455 32.4488 52.8864 33.1578V35.6669H56.1182C58.0091 33.926 59.1 31.3624 59.1 28.3169Z" fill="#4285F4"/>
<path d="M49.5001 38.0639C52.2001 38.0639 54.4637 37.1684 56.1182 35.6411L52.8864 33.132C51.991 33.732 50.8455 34.0866 49.5001 34.0866C46.8955 34.0866 44.691 32.3275 43.9046 29.9639H40.5637V32.5548C42.2091 35.823 45.591 38.0639 49.5001 38.0639Z" fill="#34A853"/>
<path d="M43.9045 29.99C43.7045 29.39 43.5909 28.7491 43.5909 28.09C43.5909 27.4309 43.7045 26.79 43.9045 26.19V23.5991H40.5636C39.8636 24.9926 39.4994 26.5306 39.5 28.09C39.5 29.7037 39.8864 31.2309 40.5636 32.5809L43.9045 29.99Z" fill="#FBBC05"/>
<path d="M49.5001 22.0671C50.9682 22.0671 52.2864 22.5717 53.3228 23.5626L56.191 20.6944C54.4591 19.0808 52.1955 18.0898 49.5001 18.0898C45.591 18.0898 42.2091 20.3308 40.5637 23.5989L43.9046 26.1898C44.691 23.8262 46.8955 22.0671 49.5001 22.0671Z" fill="#EA4335"/>
<path d="M116.125 26.3867C115.758 25.1836 114.828 24.4492 113.453 24.4492C111.633 24.4492 110.305 25.8711 110.312 28.418C110.305 30.9883 111.609 32.418 113.5 32.418C115.211 32.418 116.297 31.3867 116.328 29.7773H113.703V28.168H118.297V29.5273C118.297 32.4414 116.297 34.2461 113.5 34.2461C110.375 34.2461 108.258 32.0195 108.266 28.4336C108.258 24.8008 110.477 22.6211 113.438 22.6211C115.93 22.6211 117.859 24.168 118.203 26.3867H116.125ZM123.75 34.2617C121.273 34.2617 119.688 32.5039 119.688 29.8867C119.688 27.2461 121.273 25.4961 123.75 25.4961C126.234 25.4961 127.82 27.2461 127.812 29.8867C127.82 32.5039 126.234 34.2617 123.75 34.2617ZM121.703 29.8711C121.703 31.4258 122.383 32.668 123.766 32.668C125.125 32.668 125.805 31.4258 125.797 29.8711C125.805 28.3164 125.125 27.0664 123.766 27.0742C122.383 27.0664 121.703 28.3164 121.703 29.8711ZM133.062 34.2617C130.586 34.2617 129 32.5039 129 29.8867C129 27.2461 130.586 25.4961 133.062 25.4961C135.547 25.4961 137.133 27.2461 137.125 29.8867C137.133 32.5039 135.547 34.2617 133.062 34.2617ZM131.016 29.8711C131.016 31.4258 131.695 32.668 133.078 32.668C134.438 32.668 135.117 31.4258 135.109 29.8711C135.117 28.3164 134.438 27.0664 133.078 27.0742C131.695 27.0664 131.016 28.3164 131.016 29.8711ZM142.375 37.4492C140.125 37.4492 138.695 36.4492 138.562 34.8555H140.547C140.688 35.5977 141.383 35.9414 142.406 35.9492C143.602 35.9414 144.375 35.4258 144.375 34.1836V32.5586H144.281C143.969 33.1836 143.289 33.9648 141.828 33.9648C139.867 33.9648 138.328 32.543 138.328 29.7773C138.328 26.9883 139.875 25.4961 141.844 25.4961C143.336 25.4961 143.969 26.3945 144.281 26.9961H144.375V25.6055H146.344V34.2305C146.344 36.4023 144.664 37.4492 142.375 37.4492ZM140.359 29.8086C140.359 31.3711 141.062 32.4023 142.375 32.4023C143.664 32.4023 144.391 31.4336 144.391 29.8086C144.391 28.1914 143.672 27.1289 142.375 27.1211C141.047 27.1289 140.359 28.2617 140.359 29.8086ZM150.25 22.7773V34.0898H148.25V22.7773H150.25ZM155.922 34.2617C153.367 34.2617 151.797 32.5586 151.797 29.9023C151.797 27.2773 153.391 25.4961 155.812 25.4961C157.891 25.4961 159.688 26.8008 159.688 29.7773V30.4023H153.766C153.797 31.8477 154.648 32.707 155.938 32.6992C156.812 32.707 157.398 32.332 157.656 31.8242H159.609C159.25 33.293 157.891 34.2617 155.922 34.2617ZM153.773 29.043H157.781C157.773 27.8867 156.992 27.043 155.844 27.043C154.648 27.043 153.844 27.9648 153.773 29.043ZM173.656 32.4023V33.8398H160.75V32.4023H166.312V30.1055H162.281V25.4805H170.406V23.7305H162.25V22.3242H172.125V26.8555H164.016V28.6836H172.453V30.1055H168.031V32.4023H173.656ZM183.719 24.7461C183.703 27.3398 185.07 29.9336 187.359 30.918L186.328 32.3086C184.703 31.5586 183.516 30.0664 182.859 28.2227C182.211 30.207 180.992 31.832 179.281 32.6367L178.219 31.1836C180.57 30.168 181.945 27.4727 181.953 24.7461V22.4961H183.719V24.7461ZM188.375 35.4961V21.3555H190.125V35.4961H188.375ZM197.266 23.8086C197.266 25.5508 198.383 27.2617 200.609 27.9961L199.734 29.3398C198.148 28.8086 197.031 27.7539 196.414 26.4336C195.789 27.8789 194.617 29.0273 192.969 29.5898L192.047 28.2461C194.32 27.4883 195.516 25.6602 195.516 23.8086V23.6367H192.531V22.2461H200.203V23.6367H197.266V23.8086ZM193.938 31.918V30.5273H203.344V35.4805H201.609V31.918H193.938ZM201.609 29.8711V21.3555H203.344V24.8867H205.312V26.3398H203.344V29.8711H201.609ZM217.094 21.3555V26.9805H219.266V28.418H217.094V35.4805H215.375V21.3555H217.094ZM205.953 24.918V23.5273H209.297V21.5586H211.031V23.5273H214.281V24.918H205.953ZM206.609 29.168C206.594 27.2148 208.109 25.832 210.172 25.8398C212.203 25.832 213.711 27.2148 213.719 29.168C213.711 31.1133 212.203 32.4805 210.172 32.4805C208.109 32.4805 206.594 31.1133 206.609 29.168ZM208.266 29.168C208.258 30.3164 209.062 31.0508 210.172 31.043C211.258 31.0508 212.047 30.3164 212.062 29.168C212.047 28.0195 211.258 27.2617 210.172 27.2617C209.062 27.2617 208.258 28.0195 208.266 29.168ZM231.656 21.3555V35.4805H229.906V21.3555H231.656ZM219.953 31.5898C223.656 29.832 225.359 27.4414 225.672 24.2305H220.672V22.8555H227.438C227.438 27.0586 225.805 30.6289 220.859 32.9805L219.953 31.5898Z" fill="black" fill-opacity="0.85"/>
</svg>
