<svg width="279" height="57" viewBox="0 0 279 57" fill="none" xmlns="http://www.w3.org/2000/svg">
<rect y="0.0898438" width="279" height="56" rx="12" fill="#FEE500"/>
<path d="M58 18.5898C59.8081 18.5898 61.4802 18.9517 63.0168 19.6756C64.5533 20.3995 65.7678 21.3837 66.6606 22.6282C67.5535 23.8727 68 25.2304 68 26.701C68 28.1716 67.5535 29.5312 66.6606 30.7795C65.7678 32.0281 64.5551 33.0142 63.0223 33.7379C61.4895 34.4618 59.8155 34.8236 58 34.8236C57.427 34.8236 56.8356 34.7815 56.2254 34.6971C53.5765 36.589 52.1667 37.5463 51.9957 37.5694C51.9139 37.6 51.8357 37.5962 51.7613 37.558C51.7315 37.5349 51.7093 37.5042 51.6943 37.466C51.6795 37.4277 51.6718 37.3932 51.6718 37.3625V37.3167C51.7164 37.0178 52.0551 35.7733 52.6874 33.5829C51.2514 32.8476 50.1111 31.8729 49.2668 30.659C48.4223 29.4449 48 28.1258 48 26.701C48 25.2763 48.4465 23.8727 49.3394 22.6282C50.2322 21.3837 51.447 20.3992 52.9832 19.6756C54.5198 18.9517 56.1919 18.5898 58 18.5898Z" fill="black"/>
<path d="M123.812 22.7461C123.805 27.0117 122.641 30.6758 117.438 33.2617L116.484 31.9492C118.93 30.7461 120.391 29.332 121.211 27.6602L116.812 28.0742L116.594 26.5742L121.734 26.2539C121.914 25.5898 122.031 24.8945 122.086 24.1523H117.328V22.7461H123.812ZM125.797 35.4492V21.3555H127.531V26.8867H129.625V28.3086H127.531V35.4492H125.797ZM137.641 22.7461C137.633 27.0117 136.469 30.6758 131.266 33.2617L130.312 31.9492C132.758 30.7461 134.219 29.332 135.039 27.6602L130.641 28.0742L130.422 26.5742L135.562 26.2539C135.742 25.5898 135.859 24.8945 135.914 24.1523H131.156V22.7461H137.641ZM139.625 35.4492V21.3555H141.359V26.8867H143.453V28.3086H141.359V35.4492H139.625ZM150.547 22.1523C153.578 22.1602 155.82 23.668 155.812 25.9648C155.82 28.082 154 29.4961 151.406 29.7539V32.3398H157.031V33.7617H144.125V32.3398H149.688V29.7539C147.125 29.4961 145.305 28.082 145.312 25.9648C145.305 23.668 147.539 22.1602 150.547 22.1523ZM147.016 25.9648C147.008 27.4883 148.484 28.4023 150.547 28.4023C152.641 28.4023 154.109 27.4883 154.109 25.9648C154.109 24.4883 152.641 23.5508 150.547 23.5586C148.484 23.5508 147.008 24.4883 147.016 25.9648ZM170.859 32.4023V33.8398H157.953V32.4023H163.516V30.1055H159.484V25.4805H167.609V23.7305H159.453V22.3242H169.328V26.8555H161.219V28.6836H169.656V30.1055H165.234V32.4023H170.859ZM180.922 24.7461C180.906 27.3398 182.273 29.9336 184.562 30.918L183.531 32.3086C181.906 31.5586 180.719 30.0664 180.062 28.2227C179.414 30.207 178.195 31.832 176.484 32.6367L175.422 31.1836C177.773 30.168 179.148 27.4727 179.156 24.7461V22.4961H180.922V24.7461ZM185.578 35.4961V21.3555H187.328V35.4961H185.578ZM194.469 23.8086C194.469 25.5508 195.586 27.2617 197.812 27.9961L196.938 29.3398C195.352 28.8086 194.234 27.7539 193.617 26.4336C192.992 27.8789 191.82 29.0273 190.172 29.5898L189.25 28.2461C191.523 27.4883 192.719 25.6602 192.719 23.8086V23.6367H189.734V22.2461H197.406V23.6367H194.469V23.8086ZM191.141 31.918V30.5273H200.547V35.4805H198.812V31.918H191.141ZM198.812 29.8711V21.3555H200.547V24.8867H202.516V26.3398H200.547V29.8711H198.812ZM214.297 21.3555V26.9805H216.469V28.418H214.297V35.4805H212.578V21.3555H214.297ZM203.156 24.918V23.5273H206.5V21.5586H208.234V23.5273H211.484V24.918H203.156ZM203.812 29.168C203.797 27.2148 205.312 25.832 207.375 25.8398C209.406 25.832 210.914 27.2148 210.922 29.168C210.914 31.1133 209.406 32.4805 207.375 32.4805C205.312 32.4805 203.797 31.1133 203.812 29.168ZM205.469 29.168C205.461 30.3164 206.266 31.0508 207.375 31.043C208.461 31.0508 209.25 30.3164 209.266 29.168C209.25 28.0195 208.461 27.2617 207.375 27.2617C206.266 27.2617 205.461 28.0195 205.469 29.168ZM228.859 21.3555V35.4805H227.109V21.3555H228.859ZM217.156 31.5898C220.859 29.832 222.562 27.4414 222.875 24.2305H217.875V22.8555H224.641C224.641 27.0586 223.008 30.6289 218.062 32.9805L217.156 31.5898Z" fill="black" fill-opacity="0.85"/>
</svg>
