<svg width="20" height="20" viewBox="0 0 20 20" fill="none" xmlns="http://www.w3.org/2000/svg">
<path d="M10 0.589844C11.8081 0.589844 13.4802 0.951661 15.0168 1.67557C16.5533 2.39947 17.7678 3.38368 18.6606 4.62819C19.5535 5.8727 20 7.2304 20 8.70101C20 10.1716 19.5535 11.5312 18.6606 12.7795C17.7678 14.0281 16.5551 15.0142 15.0223 15.7379C13.4895 16.4618 11.8155 16.8236 10 16.8236C9.42704 16.8236 8.83561 16.7815 8.22544 16.6971C5.57652 18.589 4.16669 19.5463 3.99567 19.5694C3.91386 19.6 3.83574 19.5962 3.76132 19.558C3.73149 19.5349 3.70932 19.5042 3.69428 19.466C3.6795 19.4277 3.67185 19.3932 3.67185 19.3625V19.3167C3.71645 19.0178 4.05505 17.7733 4.68739 15.5829C3.25143 14.8476 2.11106 13.8729 1.26679 12.659C0.422264 11.4449 0 10.1258 0 8.70101C0 7.27627 0.446544 5.8727 1.33937 4.62819C2.23219 3.38368 3.44699 2.3992 4.98324 1.67557C6.51975 0.951661 8.19192 0.589844 10 0.589844Z" fill="black"/>
</svg>
