<svg width="273" height="57" viewBox="0 0 273 57" fill="none" xmlns="http://www.w3.org/2000/svg">
<rect y="0.0898438" width="273" height="56" rx="12" fill="#03CF5D"/>
<path d="M57.8488 28.6532L51.9171 20.0898H47V36.0898H52.1512V27.5265L58.0829 36.0898H63V20.0898H57.8488V28.6532Z" fill="white"/>
<path d="M113.797 22.7617V30.5273C115.18 30.5117 116.445 30.418 117.891 30.1055L118.141 31.5742C116.352 31.9648 114.805 32.0273 113.016 32.0273H112.062V22.7617H113.797ZM116.031 27.3242V25.918H118.984V21.6523H120.625V34.8086H118.984V27.3242H116.031ZM122 35.4805V21.3555H123.656V35.4805H122ZM137.047 21.3555V35.4961H135.297V21.3555H137.047ZM125.75 27.3711C125.742 24.3242 127.297 22.3867 129.438 22.3867C131.555 22.3867 133.117 24.3242 133.125 27.3711C133.117 30.4414 131.555 32.3711 129.438 32.3711C127.297 32.3711 125.742 30.4414 125.75 27.3711ZM127.422 27.3711C127.422 29.543 128.242 30.8008 129.438 30.8086C130.625 30.8008 131.438 29.543 131.438 27.3711C131.438 25.2148 130.625 23.9492 129.438 23.9492C128.242 23.9492 127.422 25.2148 127.422 27.3711ZM150.969 21.3555V35.4961H149.25V27.8398H146.375V32.0742H139.656V22.4492H141.406V25.9648H144.672V22.4492H146.375V26.418H149.25V21.3555H150.969ZM141.406 30.6836H144.672V27.3242H141.406V30.6836ZM165.859 32.4023V33.8398H152.953V32.4023H158.516V30.1055H154.484V25.4805H162.609V23.7305H154.453V22.3242H164.328V26.8555H156.219V28.6836H164.656V30.1055H160.234V32.4023H165.859ZM175.922 24.7461C175.906 27.3398 177.273 29.9336 179.562 30.918L178.531 32.3086C176.906 31.5586 175.719 30.0664 175.062 28.2227C174.414 30.207 173.195 31.832 171.484 32.6367L170.422 31.1836C172.773 30.168 174.148 27.4727 174.156 24.7461V22.4961H175.922V24.7461ZM180.578 35.4961V21.3555H182.328V35.4961H180.578ZM189.469 23.8086C189.469 25.5508 190.586 27.2617 192.812 27.9961L191.938 29.3398C190.352 28.8086 189.234 27.7539 188.617 26.4336C187.992 27.8789 186.82 29.0273 185.172 29.5898L184.25 28.2461C186.523 27.4883 187.719 25.6602 187.719 23.8086V23.6367H184.734V22.2461H192.406V23.6367H189.469V23.8086ZM186.141 31.918V30.5273H195.547V35.4805H193.812V31.918H186.141ZM193.812 29.8711V21.3555H195.547V24.8867H197.516V26.3398H195.547V29.8711H193.812ZM209.297 21.3555V26.9805H211.469V28.418H209.297V35.4805H207.578V21.3555H209.297ZM198.156 24.918V23.5273H201.5V21.5586H203.234V23.5273H206.484V24.918H198.156ZM198.812 29.168C198.797 27.2148 200.312 25.832 202.375 25.8398C204.406 25.832 205.914 27.2148 205.922 29.168C205.914 31.1133 204.406 32.4805 202.375 32.4805C200.312 32.4805 198.797 31.1133 198.812 29.168ZM200.469 29.168C200.461 30.3164 201.266 31.0508 202.375 31.043C203.461 31.0508 204.25 30.3164 204.266 29.168C204.25 28.0195 203.461 27.2617 202.375 27.2617C201.266 27.2617 200.461 28.0195 200.469 29.168ZM223.859 21.3555V35.4805H222.109V21.3555H223.859ZM212.156 31.5898C215.859 29.832 217.562 27.4414 217.875 24.2305H212.875V22.8555H219.641C219.641 27.0586 218.008 30.6289 213.062 32.9805L212.156 31.5898Z" fill="white"/>
</svg>
