<svg width="37" height="41" viewBox="0 0 37 41" fill="none" xmlns="http://www.w3.org/2000/svg">
<path d="M27.365 16.1297V12.3197C25.235 12.8097 22.765 13.2097 19.965 13.5297V17.6797H36.015V22.4397H0.88501V17.6797H15.205V13.9997C13.045 14.1697 9.58501 14.3597 4.82501 14.5597L4.65503 9.79973C9.24503 9.62973 13.345 9.37973 16.965 9.03973C20.585 8.70973 23.905 8.16972 26.935 7.41972C26.045 6.05972 23.705 5.38972 19.925 5.38972C16.465 5.38972 11.775 5.94973 5.86502 7.07973L4.91501 2.40973C10.915 1.28973 15.775 0.719727 19.495 0.719727C28.205 0.719727 32.565 3.46974 32.565 8.97974V16.1197H27.375L27.365 16.1297ZM5.49503 28.1097C6.25503 26.9597 7.31502 26.0397 8.67502 25.3597C10.035 24.6797 11.555 24.3397 13.265 24.3397H23.645C25.345 24.3397 26.875 24.6797 28.235 25.3597C29.595 26.0397 30.655 26.9497 31.415 28.1097C32.175 29.2697 32.565 30.5197 32.565 31.8697V32.1697C32.565 34.0697 31.815 35.6997 30.315 37.0597C28.815 38.4197 26.725 39.2797 24.045 39.6597C22.025 39.9497 20.165 40.0897 18.465 40.0897C16.765 40.0897 14.905 39.9497 12.885 39.6597C10.205 39.2797 8.11502 38.4197 6.61502 37.0597C5.11502 35.6997 4.36502 34.0697 4.36502 32.1697V31.8697C4.36502 30.5097 4.74501 29.2597 5.51501 28.1097H5.49503ZM10.555 33.9497C11.235 34.4397 12.265 34.7897 13.645 34.9897C15.545 35.2497 17.145 35.3797 18.445 35.3797C19.745 35.3797 21.345 35.2497 23.245 34.9897C24.625 34.7897 25.665 34.4397 26.335 33.9497C27.015 33.4597 27.355 32.8697 27.355 32.1797V31.8797C27.355 31.0997 27.015 30.4497 26.335 29.9097C25.655 29.3797 24.755 29.1097 23.625 29.1097H13.245C12.125 29.1097 11.215 29.3797 10.545 29.9097C9.86501 30.4397 9.52502 31.0997 9.52502 31.8797V32.1797C9.52502 32.8697 9.86501 33.4597 10.545 33.9497H10.555Z" fill="#542900"/>
</svg>
