<svg width="54" height="30" viewBox="0 0 54 30" fill="none" xmlns="http://www.w3.org/2000/svg">
<path d="M27.115 29.6396C16.955 29.6396 9.49502 25.2696 5.83502 22.5496C0.515018 18.5996 -0.594993 11.0796 3.35501 5.75962C7.30501 0.43962 14.825 -0.670373 20.145 3.28963C21.175 4.05963 23.965 5.80962 27.715 5.61962C30.735 5.45962 32.985 4.09962 34.055 3.29962C39.365 -0.670379 46.885 0.419621 50.855 5.72962C54.825 11.0396 53.735 18.5596 48.425 22.5196C44.455 25.4896 37.855 29.1196 28.965 29.5796C28.345 29.6096 27.725 29.6296 27.125 29.6296L27.115 29.6396Z" fill="#65CE58"/>
</svg>
