<svg width="139" height="120" viewBox="0 0 139 120" fill="none" xmlns="http://www.w3.org/2000/svg" xmlns:xlink="http://www.w3.org/1999/xlink">
<g clip-path="url(#clip0_1854_6565)">
<path d="M133.364 31.2032L133.406 31.8168L133.773 32.4485L133.304 33.044L133.213 33.6516L133.629 34.3073L133.442 34.9088L133.009 35.4803L133.328 36.1481L133.117 36.7436L133.123 37.3692L133.177 38.0129L132.593 38.5243L132.641 39.1679L132.262 39.7093L132.22 40.335L131.72 40.8282L131.642 41.4418L131.552 42.0554L131.413 42.663L131.04 43.1804L130.685 43.6917L130.66 44.3534L130.582 44.9971L130.57 45.6768L129.962 46.0679L129.522 46.5311L129.474 47.2108L128.884 47.5778L128.523 48.0771L128.18 48.5824L128.378 49.4547L127.758 49.7795L127.451 50.3209L126.915 50.6879L126.397 51.0669L126.5 51.9451L125.807 52.1677L125.603 52.8174L124.832 52.9437L124.416 53.3949L124.115 53.9604L123.784 54.5138L123.068 54.6402L122.622 55.0612L122.478 55.8553L121.809 56.0057L121.436 56.5411H120.671L120.304 57.0885L119.593 57.1246L119.13 57.5337L118.738 58.0751L118.166 58.3217L117.685 58.7248L117.161 59.0616L116.462 59.0316L115.927 59.3324L115.547 60.0181L114.963 60.2528L114.271 60.1685L113.59 60.0663L113 60.2287L112.428 60.4513L111.965 61.125L111.302 61.0228L110.736 61.3416L110.104 61.3175L109.442 61.101L108.846 61.2574L108.256 61.51L107.635 61.5581L107.027 61.6785L106.407 61.7085L105.781 61.9431L105.173 61.2453L104.534 61.8349L103.914 61.7747L103.324 61.4138L102.71 61.3656L102.096 61.2694L101.512 61.0288L100.819 61.3957L100.247 61.0829L99.579 61.1912L99.0973 60.5896L98.5192 60.367L97.8569 60.4272L97.1946 60.4332L96.6587 60.0903L96.0506 59.9399L95.5448 59.5369L95.0209 59.188L94.3345 59.194L93.9552 58.5624L93.329 58.436L92.8533 58.0209L92.3776 57.6239L91.9381 57.1667L91.1553 57.2329L90.7459 56.7336L90.3425 56.2523L89.9451 55.7591L89.1924 55.717L88.8492 55.1575L88.235 54.9289L87.6751 54.6161L87.2716 54.1409L87.085 53.4491L86.6996 52.9738L85.9048 52.8655L85.5375 52.3542L85.3388 51.7105L85.0197 51.1751L84.833 50.5435L84.0503 50.357L84.0383 49.6111L83.2675 49.3945L83.3518 48.6004L83.0749 48.053L82.4968 47.6861L82.1356 47.1808L81.6117 46.7597L81.7743 45.9776L81.4612 45.4483L80.835 45.0633L80.6302 44.4737L80.6604 43.7879L80.3713 43.2405L79.998 42.7232L79.9679 42.0795L79.9137 41.4479L79.6669 40.8824L79.3477 40.335L79.0467 39.7755L79.1129 39.1258L78.6011 38.6085L78.6372 37.9648L78.8299 37.3031L78.4445 36.7436L78.6192 36.0939L78.6493 35.4683L77.9568 34.9329L78.017 34.3013L78.294 33.6576L78.0833 33.056L77.7702 32.4485L78.3241 31.8168L78.2338 31.2032L77.71 30.5776L77.7401 29.952L77.7642 29.3323L78.1134 28.7308L78.3904 28.1352L78.0893 27.4855L78.4144 26.902L78.7215 26.3245L78.5228 25.6748L78.8239 25.1034L78.4807 24.4055L78.854 23.8521L79.2755 23.3227L79.1129 22.643L79.2213 22.0354L79.3959 21.4398L79.992 20.9826L79.8234 20.2788L79.9137 19.6532L80.0341 19.0276L80.7326 18.6426L80.9735 18.0831L81.0999 17.4635L81.6057 17.0243L81.6478 16.3566L82.0272 15.8633L82.3041 15.3159L82.7497 14.8587L83.105 14.3654L83.0387 13.5954L83.4843 13.1443L83.9118 12.6931L84.4537 12.3261L84.5501 11.6343L84.809 11.0508L85.5917 10.8944L85.5616 10.0642L86.2119 9.81159L86.525 9.25815L86.8742 8.73479L87.4041 8.3919L87.8015 7.91065L88.5602 7.83244L88.7589 7.12861L89.1262 6.59322L89.5477 6.124L90.1558 5.89541L90.6977 5.58259L91.2878 5.34798L91.9019 5.16751L92.2873 4.62611L92.7871 4.25915L93.2206 3.75384L93.7986 3.51923L94.5392 3.61548L95.1293 3.43501L95.5508 2.86352L96.0204 2.37626L96.8273 2.74321L97.327 2.32813L97.8208 1.84688L98.3988 1.61828L99.1033 1.82883L99.6994 1.68446L100.265 1.39571L100.849 1.17313L101.524 1.41375L102.126 1.30547L102.74 1.32352L103.318 0.956564L103.95 1.11899L104.534 0.5475L105.161 0.523438L105.781 1.14305L106.395 1.07086L107.027 0.637735L107.635 0.848282L108.25 0.956564L108.9 0.721954L109.52 0.78211L110.038 1.46789L110.736 1.08891L111.32 1.31149L111.862 1.7025L112.549 1.52805L113.073 1.95516L113.771 1.78672L114.259 2.28602L114.734 2.77329L115.282 3.03196L115.89 3.17634L116.408 3.50118L117.113 3.45306L117.727 3.60946L118.064 4.28321L118.835 4.17493L119.461 4.34337L119.702 5.1254L120.316 5.31189L120.828 5.6608L121.261 6.10595L121.659 6.59322L122.291 6.79174L122.562 7.42338L123.26 7.55572L123.646 8.04901L124.35 8.21143L124.615 8.82502L125.127 9.19198L125.41 9.76948L125.856 10.1966L125.976 10.9004L126.765 11.0508L127.174 11.526L127.403 12.1276L127.818 12.5848L128.089 13.1503L128.637 13.5293L128.529 14.3293L129.342 14.5579L129.306 15.2918L129.607 15.8272L130.179 16.2303L129.974 17.0183L130.432 17.4755L130.974 17.9147L130.775 18.6666L130.937 19.2622L131.263 19.7915L131.461 20.369L131.768 20.9165L132.25 21.4097L132.449 21.9993L132.154 22.7212L132.714 23.2144L132.623 23.8701L132.942 24.4356L133.117 25.0312L132.973 25.6809L133.268 26.2644L133.201 26.896L133.617 27.4675L133.719 28.0871L133.25 28.7428L133.238 29.3624L133.551 29.964L133.153 30.5896L133.364 31.2032Z" fill="url(#paint0_linear_1854_6565)"/>
<path d="M85.947 27.6899L85.6761 28.2494L85.4653 28.8269L85.2426 29.4044L85.4051 30.0661L85.0077 30.6135L84.8692 31.2151L84.8632 31.8347L84.9415 32.4603L84.7669 33.0619L84.9355 33.6875L84.803 34.2891L84.8572 34.9027L84.4598 35.5162L84.4297 36.1359L84.508 36.7495V37.3691L84.8753 37.9526L84.9174 38.5662L85.1221 39.1497L85.0318 39.7873L84.9596 40.437L85.2305 41.0085L85.5256 41.562L85.7423 42.1395L86.0855 42.6688L86.2059 43.2704L86.513 43.7998L86.6636 44.4013L86.784 45.0149L87.067 45.5624L87.1994 46.188L87.8437 46.5249L88.1869 47.0302L88.5 47.5475L88.8252 48.0649L89.1443 48.5822L89.2165 49.3161L89.9812 49.4665L90.1258 50.1643L90.4991 50.6697L91.0831 50.9524L91.4564 51.4637L91.9622 51.8186L92.6607 51.9149L93.0159 52.4743L93.5157 52.8293L94.1238 53.0097L94.5453 53.515L95.1233 53.7436L95.8158 53.7015L96.2553 54.2249L96.9357 54.1647L97.3933 54.7061L97.9593 55.0009L98.6156 54.9347L99.1997 55.1272L99.8018 55.3017L100.422 55.3318H101.042L101.65 55.404L102.264 55.5183L102.885 55.3679L103.493 55.2897L104.113 55.3679L104.727 55.3017L105.329 55.1453L105.955 55.1633L106.564 55.055L107.094 54.64L107.684 54.4775L108.262 54.2911L108.906 54.261L109.502 54.1046L110.05 53.8038L110.514 53.3526L111.092 53.1361L111.555 52.721L112.181 52.5766L112.681 52.2217L113.313 52.0593L113.843 51.7464L114.193 51.181L114.825 50.9945L115.312 50.6095L115.8 50.2245L116.059 49.5989L116.456 49.1296L116.896 48.7085L117.311 48.2514L117.89 47.9446L118.191 47.3911L118.594 46.9279L118.708 46.2481L119.413 45.9955L119.425 45.2676L120.003 44.9067L120.135 44.275L120.364 43.7035L120.623 43.1501L121.063 42.6869L121.189 42.0733L121.611 41.592L121.827 41.0145L122.195 40.4972L122.339 39.8896L122.297 39.2339L122.797 38.7406L122.67 38.0729L122.815 37.4773L122.875 36.8637L123.236 36.3163L123.092 35.6666L123.218 35.0711L123.507 34.4936L123.555 33.88L123.796 33.2844L123.507 32.6528L123.844 32.0452L123.429 31.4316L123.82 30.806L123.423 30.2105L123.628 29.5848L123.688 28.9592L123.327 28.3877L123.357 27.7621L123.092 27.1846L123.272 26.5229L123.056 25.9393L122.713 25.3979L122.725 24.7543L122.562 24.1587L122.002 23.7075L121.9 23.0939L121.581 22.5706L121.52 21.9209L121.31 21.3434L120.858 20.8862L120.732 20.2546L120.449 19.7011L119.889 19.3342L119.702 18.7206L119.118 18.3897L119.064 17.6498L118.437 17.3731L118.221 16.7354L117.775 16.3023L117.077 16.1459L116.884 15.436L116.137 15.3759L115.921 14.648L115.312 14.4314L114.668 14.3051L114.313 13.7035L113.705 13.5231L113.067 13.4268L112.639 12.9035L111.995 12.8493L111.399 12.6989L110.935 12.1395L110.321 12.0252L109.671 12.0793L109.074 11.953L108.478 11.8086L107.888 11.58L107.244 11.8507L106.642 11.7063L106.034 11.7725L105.426 11.7003L104.817 11.8026L104.179 11.4417L103.583 11.7063L102.993 11.9109L102.331 11.6883L101.801 12.1455L101.199 12.2598L100.609 12.4222L100.067 12.717L99.4345 12.7711L98.8023 12.8433L98.3025 13.2463L97.6101 13.2163L97.1585 13.6975L96.5985 13.9562L96.165 14.4314L95.581 14.654L95.0451 14.9488L94.5754 15.3518L94.1238 15.7669L93.606 16.1038L93.1484 16.5128L92.6607 16.8918L92.0405 17.1264L91.7394 17.7039L91.1795 18.0167L91.0952 18.7747L90.3907 18.9732L89.9873 19.4485L89.8608 20.1282L89.3611 20.5193L89.1322 21.1088L88.5602 21.4637L88.1809 21.957L88.0725 22.6127L87.8738 23.2022L87.5246 23.7075L87.4222 24.3392L87.1573 24.8866L86.8382 25.41L86.236 25.8311L86.1879 26.4747L85.7784 26.9861L85.947 27.6899Z" fill="url(#paint1_linear_1854_6565)"/>
<path d="M85.0558 29.3142L85.0619 29.9639L85.098 30.6015L84.8752 31.1971L84.7909 31.8107L84.6946 32.4303L84.7789 33.0559L84.6946 33.6815L84.5862 34.3132L84.8511 34.9147L84.7668 35.5524L84.827 36.178L84.8933 36.8097L85.2124 37.3751L85.3208 37.9948L85.4472 38.6144L85.7844 39.1558L85.9169 39.7814L86.2781 40.3048L86.531 40.8762L86.8742 41.4056L87.2415 41.9109L87.7413 42.314L88.0243 42.8855L88.4217 43.3727L88.8131 43.872L89.2948 44.2751L89.8788 44.5518L90.2943 45.0511L90.8302 45.388L91.3781 45.6948L92.0585 45.7249L92.6004 46.0377L93.1423 46.3806L93.7745 46.4407L94.4007 46.5069L95.0029 46.6753L95.6351 46.6031L96.2493 46.6332L96.8694 46.8197L97.5077 46.8979L98.0978 46.567L98.7601 46.7355L99.3442 46.4708L99.9282 46.2362L100.585 46.2181L101.132 45.8873L101.614 45.4481L102.295 45.4L102.746 44.9308L103.21 44.5037L103.764 44.2149L104.276 43.86L104.829 43.5472L105.167 42.9877L105.558 42.5065L105.974 42.0493L106.467 41.6523L106.738 41.0808L107.13 40.5995L107.461 40.0701L107.894 39.6069L108.057 38.9873L108.406 38.47L108.593 37.8744L108.888 37.321L109.05 36.7194L109.207 36.1179L109.406 35.5283L109.538 34.9208L109.779 34.3372L109.707 33.6936L109.881 33.092L110.11 32.4844L110.164 31.8528L110.026 31.2272L110.056 30.6015L109.809 29.9939L109.791 29.3743L109.821 28.7367L109.791 28.105L109.496 27.5336L109.502 26.8778L109.02 26.3785L108.888 25.765L108.683 25.1754L108.545 24.5438L108.057 24.0986L107.768 23.5452L107.527 22.9496L106.997 22.5646L106.792 21.927L106.22 21.6021L105.721 21.2171L105.408 20.6336L104.781 20.4231L104.312 20.014L103.86 19.5568L103.306 19.256L102.674 19.1177L102.078 18.9432L101.506 18.7086L100.952 18.3838L100.296 18.474L99.7175 18.1431L99.0852 18.2033L98.459 18.1732L97.8449 18.2153L97.2187 18.1732L96.5804 18.1311L95.9903 18.4018L95.3882 18.5462L94.7861 18.7026L94.202 18.9131L93.6601 19.2199L92.9677 19.2079L92.48 19.629L91.9441 19.9478L91.4805 20.381L90.8422 20.5554L90.3605 20.9645L89.9812 21.4818L89.367 21.7405L89.0178 22.2759L88.6084 22.7511L88.1568 23.1903L87.8196 23.7196L87.5125 24.2671L87.0609 24.7182L86.9646 25.386L86.6093 25.8973L86.3022 26.4387L85.8988 26.944L85.8326 27.5877L85.5616 28.1592L85.4171 28.7668L85.0558 29.3142Z" fill="url(#paint2_linear_1854_6565)"/>
<path d="M0.728806 30.7339L0.722785 31.3535L0.813103 31.9671L0.819124 32.5807L0.5 33.2244L0.704721 33.832L0.644509 34.4636L1.28276 35.005L1.36103 35.6126L1.05997 36.2864L1.20448 36.8879L1.56575 37.4474L1.46339 38.0971L1.37307 38.7588L1.75843 39.3002L2.13777 39.8356L1.84273 40.5635L2.05347 41.153L2.63753 41.6102L3.0831 42.1035L3.26975 42.681L3.25169 43.3547L3.1975 44.0526L3.43233 44.6301L3.69124 45.1955L4.25121 45.6106L4.40174 46.2302L4.79312 46.7235L5.26277 47.1687L5.43739 47.7822L5.88296 48.2274L6.02747 48.8711L6.30444 49.4366L7.04505 49.6651L7.32203 50.2246L7.77964 50.6457L7.91813 51.3255L8.52025 51.6262L8.71292 52.2759L9.29096 52.5827L9.4716 53.2685L10.3447 53.2625L10.3989 54.0987L11.2418 54.0866L11.6031 54.604L12.0246 55.0552L12.5785 55.3439L12.717 56.1921L13.4817 56.1861L13.9454 56.6012L14.3789 57.0644L14.8666 57.4554L15.4687 57.6599L16.107 57.7742L16.6127 58.1352L17.257 58.2194L17.5521 59.0435L18.1722 59.1759L18.8346 59.206L19.515 59.1458L19.8823 59.9278L20.5928 59.7774L21.1226 60.1324L21.6525 60.5414L22.2667 60.6738L22.8808 60.77L23.5492 60.6196L24.1212 60.9144L24.8016 60.5535L25.3917 60.776L25.9577 61.2994L26.6019 61.0046L27.2221 60.9264L27.8363 61.0828L28.4504 61.1129L29.0766 61.4618L29.6727 60.7821L30.317 61.2453L30.9191 60.9986L31.5634 61.1911L32.1715 61.0467L32.7857 60.9324L33.3517 60.5956L33.9719 60.5474L34.574 60.397L35.1099 60.0181L35.7903 60.1504L36.4225 60.1023L37.0005 59.8556L37.4461 59.2781L38.1506 59.3864L38.6142 58.8931H39.2886L39.9088 58.7427L40.3664 58.2675L40.9444 58.0389L41.5887 57.9126L41.8055 57.0704L42.5521 57.1005L43.0218 56.6854L43.3951 56.138L43.9851 55.9034L44.4488 55.4943L44.8341 54.995L45.2556 54.5378L45.7012 54.1227L46.5502 54.1468L46.6586 53.3587L47.3209 53.1482L47.8628 52.8113L48.1398 52.2218L48.6094 51.8127L48.7961 51.163L49.0731 50.5976L49.8919 50.4532L50.0726 49.8095L50.464 49.3283L50.7108 48.7568L51.0781 48.2575L51.3671 47.7101L51.7886 47.2469L51.8669 46.5851L52.3426 46.146L52.7039 45.6347L52.9026 45.0451L53.3361 44.5699L53.6612 44.0345L53.6974 43.3728L54.2513 42.9276L53.8358 42.1095L54.3898 41.6583L54.6066 41.0748L54.7149 40.4612L54.9257 39.8837L54.7752 39.2039L55.1123 38.6565L55.6482 38.1452L55.3893 37.4594L55.7385 36.8999L55.9613 36.3044L55.8951 35.6667L55.6001 35.005L55.8891 34.4215L56.2865 33.844V33.2184L55.9312 32.5747L56.2684 31.9731L55.8349 31.3475L56.2744 30.7339L56.5213 30.1143L56.3045 29.4947L56.2564 28.8751L55.877 28.2856L55.8831 27.6659L55.7145 27.0704L56.2323 26.3846L56.1299 25.771L55.5338 25.2356L55.7807 24.5679L55.5338 23.9844L55.4495 23.3708L55.5338 22.7151L55.3411 22.1195L54.9016 21.6022L54.5102 21.0728L54.7992 20.3329L54.45 19.7975L54.444 19.1358L54.1489 18.5823L53.3782 18.2274L53.7515 17.3972L52.8845 17.1085L53.1554 16.3024L52.7881 15.7911L52.5353 15.2196L51.885 14.8707L51.8669 14.1729L51.1624 13.8781L51.337 13.0359L50.6807 12.7291L50.5422 12.0734L50.187 11.5621L49.4524 11.3455L49.0731 10.8642L48.772 10.3228L48.4709 9.7694L48.1157 9.26409L47.7604 8.74674L47.0319 8.59034L46.8693 7.88651L46.4478 7.42932L45.9059 7.10447L45.3038 6.86385L44.9245 6.35853L44.2621 6.20814L43.8527 5.73291L43.3047 5.45017L43.1121 4.64408L42.6244 4.25306L42.0584 3.98236L41.5586 3.60337L40.806 3.66954L40.2881 3.33868L39.6679 3.20032L39.2344 2.68298L38.7828 2.17165L38.1386 2.09946L37.4883 2.05735L36.8922 1.91297L36.2419 1.92501L35.6939 1.61821L35.0738 1.5761L34.5138 1.29938L33.9598 0.962503L33.3577 0.848206L32.7917 0.499298L32.0993 0.932425L31.4911 0.896331L30.889 0.794065L30.2809 0.697814L29.6788 0.577502L29.0766 0L28.4504 0.655705L27.8303 0.156407L27.204 0.0541408L26.5959 0.360939L25.9637 0.222579L25.3495 0.354923L24.8016 0.914378L24.1393 0.667736L23.5251 0.751955L22.9711 1.09485L22.2907 0.914378L21.7127 1.14297L21.2491 1.76258L20.5326 1.52196L20.081 2.11149L19.3283 1.8468L18.684 1.91899L18.2325 2.44837L17.6364 2.62282L17.0342 2.81532L16.5224 3.17024L16.0166 3.5372L15.4627 3.8079L14.8606 4.01243L14.4451 4.52376L13.9755 4.9208L13.3673 5.13134L12.8676 5.4983L12.434 5.94345L11.8379 6.1901L11.3382 6.56307L11.1274 7.26088L10.6698 7.66994L10.2303 8.09104L9.60406 8.33768L9.1043 8.71667L8.74303 9.22799L8.55637 9.88972L8.08672 10.2928L7.85189 10.8943L7.26784 11.2132L6.94269 11.7425L6.34057 12.0674L5.93715 12.5426L5.88296 13.2464L5.25675 13.5833L4.91957 14.1067L4.56431 14.624L4.60646 15.3519L4.3897 15.9294L4.08864 16.4648L3.82973 17.0243L3.27578 17.4514L3.17944 18.083L2.90848 18.6425L3.09514 19.3704L2.32443 19.7494L2.63753 20.5073L2.06551 20.9705L2.16787 21.6443L2.11368 22.2639L1.99928 22.8655L1.6079 23.4009L1.67414 24.0445L1.30082 24.598L1.22254 25.2116L0.909442 25.7891L0.915463 26.4147L1.1804 27.0644L0.656551 27.6298L1.02384 28.2795L0.993739 28.8931L1.07201 29.5127L0.722785 30.1143L0.728806 30.7339Z" fill="url(#paint3_linear_1854_6565)"/>
<path d="M48.6154 27.1185L48.519 27.7922L48.6876 28.3818L49.0609 28.9232L48.8201 29.6029L49.0971 30.1744L49.4282 30.7399L49.1814 31.3956L49.2054 32.0092L49.3499 32.6047L49.3921 33.2123L49.5005 33.8199L49.7473 34.4275L49.7594 35.0471L49.4041 35.6547L49.6751 36.2803L49.4583 36.8819L49.5366 37.5075L49.4945 38.1211L49.2235 38.7046L49.2536 39.3302L49.0248 39.9137L49.1211 40.5694L48.9887 41.177L48.4528 41.6583L48.23 42.2298L48.218 42.8734L47.7182 43.3306L47.7242 43.9984L47.4593 44.5518L47.2305 45.1293L46.9294 45.6647L46.3996 46.0677L46.1768 46.6392L45.7673 47.1024L45.7493 47.8424L45.3699 48.3356L44.7558 48.6304L44.3764 49.1116L44.0874 49.6831L43.5395 50.002L42.9735 50.2907L42.6303 50.8261L42.257 51.3374L41.5585 51.4277L41.0768 51.7946L40.7216 52.3721L40.288 52.8474L39.7341 53.1301L39.0898 53.2324L38.4395 53.2805L37.8735 53.4971L37.3015 53.7016L36.8018 54.1167L36.1816 54.1828L35.6096 54.4054L35.0375 54.6701L34.4053 54.6641L33.8152 54.8446L33.183 54.7483L32.5688 54.7242L31.9667 55.0792L31.3526 55.001L30.7264 55.0491L30.1303 54.7664L29.498 54.8927L28.92 54.5979L28.2878 54.646L27.7459 54.2671L27.0354 54.5558L26.5597 53.9903L25.8432 54.2009L25.2952 53.8821L24.7413 53.6114L24.1392 53.4429L23.7658 52.7992L23.0674 52.8173L22.5556 52.4744L22.0799 52.0774L21.5862 51.7104L21.0202 51.4517L20.4301 51.2231L19.9725 50.8081L19.3884 50.5494L19.2018 49.8155L18.6839 49.4846L18.124 49.1899L17.5279 48.9131L17.4195 48.1672L16.8053 47.8965L16.4983 47.3491L16.2514 46.7595L15.86 46.2903L15.4746 45.8211L14.9508 45.4421L14.722 44.8586L14.1139 44.5157L13.885 43.9322L13.873 43.2344L13.3672 42.8133L13.012 42.3019L12.8374 41.7004L12.6086 41.1289V40.4672L11.9522 40.0641L12.0787 39.3603L11.7535 38.8249V38.1812L11.5488 37.6097L11.3862 37.0202L11.0852 36.4608L11.019 35.8472L10.9046 35.2396L10.6456 34.6561L10.7962 34.0184L10.8323 33.3988L10.754 32.7972L10.4409 32.1957L10.6818 31.5761L10.477 30.9625L10.6938 30.3489L10.8142 29.7473L10.6998 29.1277L10.8142 28.5201L11.043 27.9366L10.6938 27.2628L11.1093 26.7154L11.1695 26.1018L11.1394 25.4642L11.4103 24.8987L11.5548 24.2971L11.6452 23.6775L11.7957 23.076L12.0064 22.4924L12.6387 22.0954L12.5664 21.3856L13.0421 20.9344L13.4335 20.4531L13.6081 19.8516L13.9814 19.3583L14.144 18.7327L14.4209 18.1672L15.1074 17.9206L15.3542 17.337L15.7757 16.8859L16.131 16.3745L16.5765 15.9595L16.998 15.5083L17.5219 15.1714L17.8711 14.63L18.4551 14.3713L18.991 14.0645L19.4667 13.6795L20.0628 13.475L20.6228 13.2284L21.0864 12.8073L21.7487 12.7712L22.1221 12.0854L22.7964 12.1155L23.3805 11.929L23.9525 11.7004L24.5486 11.568L25.1026 11.2071L25.7408 11.2312L26.3851 11.4297L26.9631 11.0808L27.5893 11.2011L28.2035 11.2673L28.8116 11.1469L29.4378 10.8943L30.046 11.0988L30.63 11.3996L31.2382 11.4537L31.8945 11.2793L32.4484 11.6222L33.1288 11.4598L33.6346 11.929L34.1584 12.2839L34.7786 12.3561L35.3567 12.5666L36.019 12.5847L36.5609 12.8794L37.151 13.09L37.4821 13.7577L38.018 14.0525L38.7285 14.0645L39.1019 14.618L39.6558 14.8947L40.1255 15.2857L40.4988 15.797L40.9865 16.164L41.5826 16.4166L42.1426 16.7174L42.3232 17.4032L42.835 17.7641L43.13 18.3176L43.5696 18.7447L44.2861 18.9492V19.7313L45.0327 19.9358L45.0388 20.6817L45.4362 21.151L45.7372 21.6863L46.2972 22.0653L46.3935 22.721L46.9655 23.1121L46.8572 23.852L47.369 24.2911L47.4472 24.9228L47.67 25.4942L48.1999 25.9514L48.4046 26.535L48.6154 27.1185Z" fill="url(#paint4_linear_1854_6565)"/>
<path d="M49.1452 28.8571L49.2536 29.4767L49.1813 30.1264L49.5065 30.7099L49.4222 31.3476L49.4041 31.9732L49.4764 32.5928L49.4101 33.2124L49.5848 33.8381L49.4282 34.4577L49.3379 35.0713L49.3258 35.6969L49.0549 36.2804L48.9405 36.888L49.0188 37.5618L48.808 38.1573L48.4889 38.7047L48.3022 39.3063L47.959 39.8357L47.676 40.3951L47.2365 40.8583L47.0498 41.49L46.6404 41.9592L46.3213 42.5186L45.7252 42.8194L45.3759 43.3608L44.9364 43.812L44.3824 44.1188L43.9429 44.588L43.3227 44.7805L42.7868 45.0993L42.2028 45.3159L41.6368 45.5686L41.0888 45.8994L40.4506 45.9355L39.8665 46.1942L39.2524 46.3687L38.6201 46.3747L37.9879 46.2062L37.3677 46.2122L36.7536 46.1942L36.1093 46.3265L35.4771 46.2483L34.9292 45.8453L34.2849 45.8393L33.6767 45.6708L33.0806 45.4723L32.4906 45.2497L31.9366 44.9429L31.4007 44.6121L30.9853 44.1008L30.4434 43.7879L29.8412 43.5353L29.504 42.9698L29.1127 42.4825L28.5346 42.1757L28.2637 41.5802L27.8061 41.1531L27.3906 40.6899L26.9932 40.2086L26.7403 39.6311L26.3128 39.1559L26.0118 38.6085L25.7348 38.043L25.6384 37.4053L25.1387 36.9361L25.1989 36.2503L25.0363 35.6488L24.6329 35.1134L24.5125 34.4938L24.38 33.8802L24.3379 33.2546L24.2656 32.6349L24.3981 31.9973L24.1211 31.3897L24.3198 30.7641L24.1392 30.1324L24.386 29.5249L24.4703 28.9113L24.4161 28.2736L24.657 27.6841L24.8557 27.0945L24.7774 26.4268L25.1628 25.8914L25.1507 25.2177L25.6264 24.7424L25.789 24.1288L26.2526 23.6716L26.3429 22.9979L26.921 22.6369L27.2822 22.1376L27.6796 21.6624L28.0529 21.1691L28.4202 20.6578L28.9441 20.3029L29.4318 19.9239L29.8473 19.4306L30.347 19.0456L30.9853 18.8952L31.5151 18.5523L32.1474 18.4621L32.7194 18.2094L33.3094 18.023L33.9055 17.8305L34.5257 17.7462L35.1399 17.5718L35.7721 17.7583L36.3983 17.5838L37.0065 17.8605L37.6507 17.7041L38.2769 17.7583L38.9031 17.8665L39.4992 18.0771L40.0833 18.3057L40.6132 18.6726L41.2273 18.823L41.7391 19.19L42.3653 19.3644L42.7507 19.9179L43.3588 20.1344L43.8466 20.5255L44.2078 21.0669L44.8461 21.2955L45.1953 21.8309L45.671 22.2459L46.1045 22.6971L46.3634 23.2927L46.6464 23.8521L46.9776 24.3755L47.4713 24.8026L47.6941 25.3981L48.1336 25.8794L48.0915 26.5832L48.6153 27.0464L48.6394 27.7021L48.9104 28.2736L49.1452 28.8571Z" fill="url(#paint5_linear_1854_6565)"/>
<path d="M112.127 68.6205L112.199 68.0129L112.633 67.3813L112.579 66.7677L112.94 66.118L112.211 65.5585L112.814 64.8728L111.856 64.3735L112.621 63.6396L111.754 63.1523L112.163 62.4545L112.296 61.7928L111.561 61.3175L111.676 60.6558L111.188 60.1505L111.658 59.3745L111.326 58.821L110.748 58.3638L110.941 57.642L110.772 57.0404L109.815 56.7516L109.839 56.0839L109.418 55.5966L109.586 54.8447L109.454 54.2251L108.822 53.8461L108.924 53.1001L108.719 52.5046L107.924 52.2399L107.979 51.494L107.178 51.2594L107.599 50.2608L106.738 50.0863L106.871 49.2441L106.485 48.7508L105.498 48.7087L105.799 47.6981L104.709 47.7703L105.052 46.6935L104.372 46.4529L103.571 46.3326L103.685 45.4001L103.047 45.1415L102.307 44.9971L102.325 44.1188L101.584 43.9804L101.036 43.6616L101.132 42.651L100.578 42.3382L99.8138 42.272L99.3381 41.875L98.9106 41.4238L98.6096 40.8042L97.6823 40.9907L97.321 40.4493L96.7189 40.2327L96.3095 39.7514L95.7134 39.5409L95.6772 38.4821L94.9306 38.4942L94.2743 38.3799L94.1238 37.4475L93.2206 37.7422L92.7268 37.3693L92.197 37.0564L91.5346 36.9843L91.1553 36.3947L90.7579 35.8112L90.0354 35.8653L89.7704 34.9871L88.9997 35.1615L88.4638 34.8367L87.7353 34.963L87.2656 34.4998L86.7237 34.1749L86.1035 34.0667L85.4773 33.9764L84.9294 33.6636L84.3333 33.4952L83.7733 33.2305L83.3398 32.5327L82.6232 32.7613L82.1355 32.2078L81.2805 32.9598L80.9012 31.9792L80.2991 31.8108L79.5404 32.3281L79.0105 31.8529L78.3422 32.0334L77.8484 31.3296L77.2584 31.0949L76.5599 31.492L75.9096 31.6303L75.3195 31.3897L74.6572 31.7025L74.049 31.6123L73.2181 31.2574L74.0611 30.5415L73.7239 29.9399L74.1936 29.3805L73.8022 28.7669L73.0857 28.2435L73.2663 27.6299L72.899 27.1306L73.2783 26.3546L72.899 25.8553L72.1584 25.7049L72.1343 24.7545L71.3937 24.568L70.7434 24.8928L70.4122 25.4643L70.34 26.0959L69.4248 26.2584L69.774 27.0344L69.3525 27.5096L69.1899 28.0811L69.1237 28.1653L69.1056 27.9427L68.2386 27.7202L68.3349 26.8178L67.3896 26.7577L67.215 26.0238L66.7393 25.6027L66.077 25.4102L65.7157 24.8507L65.1015 24.6402L64.9329 23.6596L64.3248 23.3588L63.6564 23.2145L63.0182 22.9678L62.2595 23.6115L61.5912 22.8535L61.0974 23.6295L60.6218 23.9544L59.7667 24.201L59.6945 24.947L59.7969 25.6327L59.7186 26.3306L60.7 26.7035L60.7362 27.3352L60.3628 28.2375L61.0011 28.6225L61.2239 29.2542L62.2294 29.2782L62.1873 30.1385L63.0363 30.1986L62.9219 30.7761L62.4341 30.5776L61.814 30.6378L61.1998 30.7581L60.6338 31.2814L60.0377 31.4679L59.4597 31.7687L58.7431 31.2393L58.1169 31.2814L57.5509 31.6243L56.9789 31.9492L56.2805 31.6424L55.6904 31.8649L55.0762 31.9732L54.6246 32.7131L53.7877 31.9732L53.2398 32.3402L52.6798 32.659L52.1499 33.05L51.4213 32.8154L50.7951 32.9177L50.2051 33.1222L49.8619 34.0185L49.2477 34.1268L48.495 33.9163L48.212 34.8728L47.339 34.3855L46.7609 34.6201L46.1227 34.7224L45.9421 35.8232L45.2195 35.739L44.798 36.2864L44.0514 36.1902L43.7804 37.0023L43.0278 36.9121L42.3414 36.9542L41.7573 37.2008L41.6008 38.1453L40.6374 37.7663L40.0292 37.9708L40.0172 39.0897L38.9755 38.6566L38.7587 39.4386L38.2349 39.7815L37.7652 40.1906L37.4582 40.8042L36.8862 41.0809L36.4526 41.5261L35.4712 41.3155L35.5434 42.3622L34.5499 42.1697L34.6523 43.2104L33.5745 42.9638L33.5865 43.8782L33.3457 44.5098L32.5689 44.6181L32.593 45.4904L31.7741 45.5746L31.2684 45.9536L30.9492 46.501L30.6482 47.0544L30.034 47.3552L30.1183 48.2094L29.0405 48.1673L28.8478 48.805L28.8177 49.5449L27.9146 49.6773L28.2999 50.6758L27.6677 51.0127L26.9271 51.2894L27.475 52.3301L26.62 52.5527L26.0901 52.9798L26.1082 53.6897L25.4278 54.0506L25.5783 54.8086L24.8437 55.1635L25.2712 56.0298L24.7052 56.4629L24.7113 57.1306L24.7775 57.8104L23.7539 58.1172L24.362 58.9654L23.3083 59.2963L23.4468 59.9881L23.2842 60.5896L23.0735 61.1792L23.4769 61.907L23.5432 62.5447L22.4894 62.9838L22.4051 63.6035L22.3028 64.2291L22.6159 64.8968L22.4292 65.5044L23.0554 66.1782L23.0735 66.7917L22.8989 67.3933L22.9531 68.0069L22.1101 68.6205L22.2426 69.2582L22.3991 69.8898L23.0735 70.4853L22.1161 71.1832L22.1402 71.8268L22.9471 72.3803L23.2842 72.9698L22.7303 73.6857L23.3023 74.2271L23.0795 74.9129L23.501 75.4663L22.9711 76.2423L23.7178 76.7115L24.1754 77.2349L24.2958 77.8485L23.8623 78.6426L24.055 79.2501L24.4102 79.7976L24.2597 80.3269L24.639 81.0127L24.067 81.4398L23.6154 81.9391L23.2301 82.4805L23.4829 83.2505L23.6515 83.9604L22.6159 84.3273L22.5436 84.977L22.7122 85.6628L22.5316 86.2824L22.6942 86.9381L22.375 87.5457L22.2125 88.1773L22.2305 88.821L22.8688 89.4286L22.7604 90.0482L22.4955 90.6919L22.2426 91.3656L22.7243 91.9251L22.7423 92.5567L23.5612 92.9959L23.6034 93.6095L23.3384 94.3374L23.1217 95.0833L23.6756 95.5465L24.2838 95.9616L23.8864 96.8399L24.91 97.0203L25.1388 97.5918L25.1328 98.3137L25.9095 98.5603L25.759 99.3965L26.1985 99.8537L27.0957 99.956L27.2161 100.636L27.0174 101.61L28.1253 101.478L27.9025 102.513L28.4264 102.88L29.2693 102.928L29.5343 103.541L30.2448 103.686L30.4977 104.317L30.9312 104.768L31.3587 105.226L31.9668 105.454L32.6051 105.641L33.0807 106.026L33.2253 106.88L33.8635 107.06L34.6824 106.946L34.9774 107.62L35.3929 108.125L35.9649 108.384L36.567 108.588L36.838 109.37L37.7351 109.022L37.9338 109.972L38.6865 109.882L39.1321 110.387L39.6318 110.778L40.2339 110.983L40.7819 111.283L41.6248 110.904L42.1969 111.145L42.7448 111.44L43.3168 111.668L43.6961 112.408L44.5451 111.897L45.1653 111.987L45.5567 112.751L46.0504 113.232L46.7248 113.166L47.3691 113.19L47.8749 113.654L48.6155 113.329L49.1754 113.624L49.6692 114.195L50.3134 114.177L50.8674 114.538L51.4575 114.76L52.174 114.43L52.7039 114.911L53.3481 114.887L54.0526 114.514L54.5825 115.067H55.2087L55.871 114.863L56.3949 115.512L57.0993 115.013L57.581 116.036L58.2855 115.458L58.8575 115.897L59.5319 115.524L60.1581 115.482L60.7422 115.885L61.3563 116.048L61.9705 116.198L62.6389 115.488L63.247 115.705L63.8371 116.373L64.4512 116.619L65.0955 116.096L65.7097 116.445L66.3479 115.699L66.9681 116.144L67.5943 115.645L68.2145 116.12L68.8347 116.012L69.4609 116.27L70.069 115.873L70.7073 116.258L71.2974 115.549L71.9296 115.795L72.5979 116.511L73.182 115.909L73.8142 116.018L74.3802 115.404L75.0847 116.246L75.6447 115.597L76.2889 115.777L76.8549 115.266L77.5654 115.921L78.1615 115.687L78.6794 114.917L79.4139 115.603L79.9799 115.194L80.6543 115.428L81.2263 115.091L81.8345 114.965L82.3041 114.165L83.123 115.019L83.6589 114.544L84.1286 113.846L84.9234 114.466L85.3268 113.527L85.9289 113.383L86.7297 113.936L87.3439 113.798L87.9821 113.756L88.3073 112.709L89.1081 113.16L89.4935 112.342L90.0293 112.011L90.6676 111.957L91.3058 111.891L91.9862 111.927L92.492 111.518L92.9617 111.031L93.901 111.65L94.0455 110.441L94.9607 110.941L95.3822 110.375L96.0807 110.387L96.4178 109.665L97.1283 109.689L97.7365 109.509L97.8991 108.516L98.5614 108.438L99.1334 108.185L99.5489 107.68L99.9824 107.223L100.759 107.277L101.024 106.573L101.855 106.687L102.493 106.507L103.095 106.266L103.246 105.442L103.794 105.135L104.053 104.48L105.058 104.696L105.263 103.986L105.6 103.439L106.293 103.259L106.244 102.344L107.226 102.416L107.75 102.037L107.443 100.961L108.575 101.081L108.978 100.594L108.707 99.6191L109.689 99.5469L109.309 98.5483L109.785 98.1272L110.321 97.7182L110.917 97.3332L111.32 96.8218L110.64 95.8232L111.344 95.4623L111.561 94.8788L112.079 94.3975L112.091 93.7478L112.217 93.1342L111.724 92.3883L112.747 91.9672L112.555 91.2995L112.657 90.6859L113.139 90.0963V89.4587L113.054 88.821L112.964 88.1773L113.024 87.5277L112.765 86.908L112.278 86.3366L112.049 85.741L111.73 85.1816L111.615 84.58L111.862 83.8581L111.886 83.1904L111.495 82.655L111.712 81.879L111.302 81.3556L110.821 80.8804L110.399 80.357L110.634 79.7494L110.815 79.1419L111.272 78.6245L111.591 78.059L111.832 77.4635L112.091 76.8679L111.688 76.116L111.904 75.5144L111.916 74.8768L112.615 74.3594L111.874 73.5954L111.959 72.9758L112.151 72.3682L112.651 71.7907L113.06 71.1832L112.777 70.5275L112.175 69.8657L112.278 69.2461L112.127 68.6205Z" fill="url(#paint6_linear_1854_6565)"/>
<path d="M101.572 84.7182L100.976 84.1166L101.241 83.5752L101.385 83.0037L101.427 82.4082L102.15 81.939L102.222 81.3374L101.728 80.6697L102.282 80.1102L102.421 79.4906L102.644 78.871L102.132 78.2153L102.258 77.5957L102.409 76.9761L102.535 76.3444L102.391 75.7188L102.457 75.0872L102.559 74.4435L101.728 73.8961L101.722 73.2764L101.777 72.6448L102.162 71.947L101.355 71.4597L101.554 70.786L101.789 70.0821L100.91 69.6671L101.012 68.9933L101.042 68.3316L100.404 67.8924L100.898 67.0503L100.139 66.6713L99.7355 66.166V65.4922L99.4525 64.9388L99.603 64.1567L99.2598 63.6213L98.6938 63.2183L98.5312 62.5806L97.8809 62.2558L97.8388 61.5219L97.0621 61.3173L97.0139 60.5654L96.5202 60.1563L95.9542 59.8255L95.7254 59.1878L95.1774 58.8449L94.6476 58.502L94.19 58.0869L93.9371 57.4072L93.076 57.5034L92.6184 57.0884L92.1548 56.6733L91.6069 56.3905L91.1794 55.9033L90.6013 55.6687L90.0594 55.3619L89.5536 54.9708L88.8431 55.0731L88.229 54.9708L87.8677 54.0625H87.2114L86.6273 53.7798L85.9349 54.0565L85.3027 54.0865L84.6825 54.1948L84.0864 54.1467L83.4903 53.87L82.8821 53.2925L82.2559 53.3887L81.6418 53.5512L80.9975 53.4128L80.3713 53.509L79.7692 53.6895L79.2935 54.4174L78.5469 53.9602L78.0832 54.5738L77.5775 54.9769L77.0356 55.2536L76.2648 54.9708L75.6206 55.0551L75.2051 55.6205L74.4585 55.5363L74.1634 56.2702L73.6817 56.6552L72.9953 56.7274L72.7003 57.3711L72.1162 57.6117L71.6887 58.0569L71.2973 58.5381L70.6711 58.7487L70.4604 59.4224L70.0931 59.9097L69.6475 60.3127L68.8226 60.3909L68.8287 61.203L68.4132 61.6482L67.8352 61.9731L67.4197 62.1896L67.1066 61.9009L66.6189 61.5038L66.5466 60.7639L65.9084 60.4932L65.2761 60.2466L65.2641 59.4044L64.668 59.1277L63.9997 58.9412L63.5601 58.5261L63.3012 57.8824L62.97 57.2989L62.386 57.0342L61.6213 57.0583L61.0192 56.8778L60.5013 56.565L60.2785 55.7288L59.8209 55.2536L59.0864 55.3378L58.6348 54.8445L57.8881 55.043L57.3884 54.634L56.7863 54.4896L56.2624 54.0805L55.6964 53.7677L54.9679 54.2129L54.444 53.6474L53.8419 53.4489L53.1856 53.7918L52.5955 53.3105L51.9633 53.3045L51.3551 54.0625L50.7109 53.3587L50.1148 53.6895L49.5187 53.9181L48.8563 53.7557L48.2 53.6895L47.634 54.0745L47.1042 54.4836L46.5803 54.8866L45.9421 54.9287L45.3159 55.037L44.7679 55.3378L44.2441 55.6807L43.4132 55.4581L43.07 56.1319L42.6966 56.6973L42.239 57.1184L41.4262 57.0583L41.1311 57.7019L40.3002 57.6839L39.951 58.2494L39.9149 59.1096L39.1381 59.2119L38.8792 59.8255L38.241 60.0962L37.9881 60.6977L37.6148 61.203L37.5545 61.9249L37.1511 62.3881L36.2901 62.5746L36.278 63.3025L36.0071 63.862L35.9288 64.5177L35.688 65.0892L34.9052 65.402L34.9955 66.1238L34.3874 66.5449L34.267 67.1706L33.719 67.6398L34.3031 68.494L33.3879 68.861L33.7491 69.6189L33.0748 70.0882L33.5384 70.8401L32.7918 71.3214L32.6111 71.9289L33.3096 72.6809L32.852 73.2403L32.9423 73.878L32.5088 74.4615L32.5509 75.0932L33.0206 75.7368L32.1897 76.3384L32.858 76.97L32.3041 77.6017L32.7496 78.2153L32.7195 78.8349L32.5449 79.4786L32.9182 80.0681L32.6352 80.7298L32.6653 81.3314L33.0507 81.8788L32.7797 82.5285L33.0868 83.0819L33.5324 83.5872L33.0687 84.3151L33.5805 84.7783L33.5023 85.4701L33.0507 85.9334L32.3763 86.2883L32.2198 86.9319L31.7802 87.4433L32.1656 88.2855L31.8886 88.8509L31.7019 89.4465L31.437 90.024L31.3647 90.6556L30.9794 91.2452L31.3708 91.9069L31.16 92.5265L30.8529 93.1581L30.8469 93.7898L31.4009 94.3372L31.6658 94.9027L31.7983 95.4862L31.2022 96.2983L32.0632 96.6653L32.2017 97.2608L31.9669 98.0428L32.7255 98.3557L32.6473 99.1016L32.8881 99.6911L33.695 99.9077L33.6889 100.66L34.0442 101.177L34.4416 101.658L35.1641 101.851L35.6759 102.206L35.8566 102.885L36.1636 103.457L36.7959 103.686L36.9404 104.462L37.8556 104.329L38.1506 104.955L38.6384 105.334L39.1502 105.677L39.6017 106.116L40.1858 106.356L40.7398 106.633L41.0769 107.283L41.9199 107.06L42.504 107.265L42.9255 107.788L43.4674 108.083L44.0875 108.215L44.5271 108.733L44.9546 109.292H45.635L46.201 109.539L46.779 109.749L47.2848 110.164L47.9953 110.026L48.6215 110.092L49.1152 110.567L49.5909 111.103L50.1991 111.253L50.9276 110.976L51.59 110.898L52.1379 111.235L52.5955 111.939L53.3602 111.434L53.9202 111.728L54.4259 112.33L55.1605 111.837L55.7747 111.897L56.3407 112.216L56.8645 112.817L57.5811 112.264L58.0868 113.058L58.7733 112.643L59.3693 112.871L59.9956 112.835L60.5977 113.028L61.2299 112.938L61.8079 113.419L62.4703 112.956L63.0483 113.581L63.6685 113.684L64.3067 113.359L64.945 112.974L65.5652 112.998L66.1793 113.208L66.7995 113.509L67.4197 113.407L68.0459 113.503L68.654 112.95L69.2863 113.575L69.8884 113.04L70.5026 112.932L71.1528 113.473L71.7489 113.112L72.3691 113.13L73.0074 113.317L73.6215 113.202L74.2658 113.371L74.8197 112.769L75.4881 113.094L76.0119 112.384L76.6743 112.607L77.2523 112.288L77.8725 112.258L78.5469 112.516L79.1972 112.613L79.7812 112.348L80.3532 112.029L80.9855 111.999L81.5695 111.783L82.1716 111.638L82.7196 111.283L83.2795 110.988L83.9359 111.019L84.5319 110.85L85.1822 110.856L85.6519 110.297L86.3684 110.477L86.9344 110.225L87.4823 109.918L88.1146 109.833L88.6926 109.593L89.2104 109.232L89.6741 108.751L90.3183 108.672L90.8181 108.287L91.637 108.546L92.1488 108.179L92.5161 107.554L93.2928 107.668L93.5216 106.82L94.2381 106.814L94.5271 106.116L95.0209 105.755L95.5026 105.37L96.0204 105.051L96.5743 104.768L96.9958 104.311L97.5438 104.016L98.0676 103.679L98.8022 103.559L99.0671 102.934L99.609 102.597L100.049 102.152L100.47 101.682L100.934 101.255L100.849 100.419L101.096 99.8475L101.668 99.4926L102.162 99.0655L102.511 98.5421L102.68 97.9346L103.119 97.4413L103.342 96.8517L103.432 96.2201L103.029 95.4742L103.511 94.9628L103.631 94.3613L103.42 93.7236L103.95 93.1521L103.77 92.5265L103.944 91.8828L103.902 91.2391L103.42 90.6616L103.782 89.9458L103.715 89.2901L103.505 88.6765L103.27 88.0629L102.511 87.6839L102.228 87.1245L102.096 86.4868L101.897 85.8732L101.668 85.2596L101.572 84.7182Z" fill="#F7F7F7"/>
<path d="M88.3133 67.7841C88.4457 67.7841 88.5842 67.7541 88.7167 67.6879C89.1622 67.4653 89.3429 66.9239 89.1201 66.4788C88.7829 65.799 87.7834 64.1507 85.7723 63.4228C84.9896 63.1401 84.1586 63.0318 83.3096 63.104C82.8099 63.1461 82.4426 63.5852 82.4847 64.0785C82.5269 64.5778 82.9604 64.9387 83.4602 64.9027C84.0502 64.8485 84.6223 64.9267 85.1582 65.1192C86.5551 65.6185 87.2656 66.7976 87.5064 67.2788C87.663 67.5977 87.9821 67.7781 88.3133 67.7781V67.7841Z" fill="#606060"/>
<path d="M45.1352 64.8847C45.0027 64.8847 44.8642 64.8547 44.7317 64.7885C44.2862 64.5659 44.1055 64.0245 44.3283 63.5793C44.6655 62.8996 45.665 61.2513 47.6761 60.5234C48.4589 60.2407 49.2898 60.1324 50.1388 60.2046C50.6386 60.2467 51.0058 60.6858 50.9637 61.1791C50.9215 61.6784 50.488 62.0393 49.9883 62.0032C49.3982 61.9491 48.8262 62.0273 48.2903 62.2198C46.8934 62.7191 46.1829 63.8982 45.942 64.3794C45.7855 64.6982 45.4663 64.8787 45.1352 64.8787V64.8847Z" fill="#606060"/>
<path d="M51.5416 89.8257C54.2485 89.8257 56.4429 86.9331 56.4429 83.3649C56.4429 79.7967 54.2485 76.9041 51.5416 76.9041C48.8347 76.9041 46.6404 79.7967 46.6404 83.3649C46.6404 86.9331 48.8347 89.8257 51.5416 89.8257Z" fill="#606060"/>
<path d="M52.3545 82.8054C53.1227 82.8054 53.7454 82.0567 53.7454 81.133C53.7454 80.2094 53.1227 79.4607 52.3545 79.4607C51.5864 79.4607 50.9636 80.2094 50.9636 81.133C50.9636 82.0567 51.5864 82.8054 52.3545 82.8054Z" fill="white"/>
<path d="M82.4306 89.8257C85.1375 89.8257 87.3318 86.9331 87.3318 83.3649C87.3318 79.7967 85.1375 76.9041 82.4306 76.9041C79.7237 76.9041 77.5293 79.7967 77.5293 83.3649C77.5293 86.9331 79.7237 89.8257 82.4306 89.8257Z" fill="#606060"/>
<path d="M83.2495 82.8054C84.0177 82.8054 84.6404 82.0567 84.6404 81.133C84.6404 80.2094 84.0177 79.4607 83.2495 79.4607C82.4814 79.4607 81.8586 80.2094 81.8586 81.133C81.8586 82.0567 82.4814 82.8054 83.2495 82.8054Z" fill="white"/>
<rect x="13.0542" y="63.6936" width="58.6706" height="56.3064" fill="url(#pattern0_1854_6565)"/>
<rect x="63.6323" y="63.1162" width="57.9481" height="56.5951" fill="url(#pattern1_1854_6565)"/>
<path d="M66.1553 92.8694C68.0475 92.8694 69.5814 91.5524 69.5814 89.9277C69.5814 88.3031 68.0475 86.9861 66.1553 86.9861C64.2632 86.9861 62.7292 88.3031 62.7292 89.9277C62.7292 91.5524 64.2632 92.8694 66.1553 92.8694Z" fill="#606060"/>
<path d="M65.1797 100.1C65.0412 100.1 64.9027 100.064 64.7823 99.9859C64.433 99.7634 64.3246 99.3002 64.5414 98.9513C65.7697 96.9841 67.9916 95.8712 70.2134 96.0998C72.9109 96.3826 74.3499 98.488 74.6089 98.9091C74.8316 99.2641 74.7233 99.7273 74.368 99.9438C74.0128 100.166 73.5491 100.058 73.3324 99.7032C73.1337 99.3904 72.0559 97.8023 70.0568 97.5977C68.413 97.4293 66.7452 98.2715 65.8179 99.7513C65.6734 99.9799 65.4325 100.106 65.1797 100.106V100.1Z" fill="#606060"/>
<path d="M49.9281 93.7117C42.805 93.7117 37.0066 87.9247 37.0066 80.8021C37.0066 73.6796 42.799 67.8926 49.9281 67.8926C57.0572 67.8926 62.8496 73.6796 62.8496 80.8021C62.8496 87.9247 57.0572 93.7117 49.9281 93.7117ZM49.9281 70.0702C44.0032 70.0702 39.1863 74.8828 39.1863 80.8021C39.1863 86.7215 44.0032 91.534 49.9281 91.534C55.853 91.534 60.6699 86.7215 60.6699 80.8021C60.6699 74.8828 55.853 70.0702 49.9281 70.0702Z" fill="#606060"/>
<path d="M83.2194 93.7117C76.0963 93.7117 70.2979 87.9247 70.2979 80.8021C70.2979 73.6796 76.0903 67.8926 83.2194 67.8926C90.3485 67.8926 96.1409 73.6796 96.1409 80.8021C96.1409 87.9247 90.3485 93.7117 83.2194 93.7117ZM83.2194 70.0702C77.2945 70.0702 72.4775 74.8828 72.4775 80.8021C72.4775 86.7215 77.2945 91.534 83.2194 91.534C89.1442 91.534 93.9612 86.7215 93.9612 80.8021C93.9612 74.8828 89.1442 70.0702 83.2194 70.0702Z" fill="#606060"/>
<path d="M61.8139 84.3996C61.6694 84.3996 61.5188 84.3635 61.3864 84.2853C61.007 84.0627 60.8926 83.5995 61.1275 83.2506C62.4461 81.2835 64.8305 80.1706 67.2089 80.3992C70.0991 80.6819 71.6465 82.7874 71.9235 83.2085C72.1583 83.5634 72.0439 84.0266 71.6646 84.2431C71.2852 84.4657 70.7855 84.3574 70.5506 84.0025C70.3399 83.6897 69.1778 82.1016 67.0343 81.8971C65.27 81.7286 63.4817 82.5708 62.4882 84.0507C62.3377 84.2792 62.0728 84.4056 61.8018 84.4056L61.8139 84.3996Z" fill="#606060"/>
<path d="M121.039 85.0371C122.106 85.0371 122.971 84.1725 122.971 83.1061C122.971 82.0396 122.106 81.175 121.039 81.175C119.971 81.175 119.106 82.0396 119.106 83.1061C119.106 84.1725 119.971 85.0371 121.039 85.0371Z" fill="#606060"/>
<path d="M123.682 79.5929C123.483 79.5929 123.284 79.5508 123.098 79.4606C122.405 79.1357 122.104 78.3116 122.429 77.6198C123.85 74.5819 125.705 72.699 127.945 72.0252C129.263 71.6282 130.407 71.7305 131.419 71.8207C132.605 71.923 133.316 71.9591 134.111 71.4598C135.128 70.8101 135.501 69.7513 135.592 69.4445C136.128 67.5857 135.068 65.3058 133.225 64.3673C131.443 63.4589 129.179 63.874 127.716 65.3779C127.186 65.9254 126.307 65.9374 125.759 65.408C125.211 64.8786 125.193 64.0004 125.729 63.4529C128.029 61.0828 131.63 60.4451 134.49 61.9009C137.506 63.4409 139.156 67.0924 138.253 70.2145C138.048 70.9123 137.386 72.6569 135.598 73.7938C133.978 74.8225 132.491 74.6962 131.178 74.5759C130.311 74.4977 129.559 74.4315 128.752 74.6781C127.295 75.1173 126.012 76.5009 124.94 78.7988C124.705 79.3042 124.206 79.5989 123.682 79.5989V79.5929Z" fill="#606060"/>
</g>
<defs>
<pattern id="pattern0_1854_6565" patternContentUnits="objectBoundingBox" width="1" height="1">
<use xlink:href="#image0_1854_6565" transform="scale(0.00247525 0.00257732)"/>
</pattern>
<pattern id="pattern1_1854_6565" patternContentUnits="objectBoundingBox" width="1" height="1">
<use xlink:href="#image1_1854_6565" transform="scale(0.00250627 0.0025641)"/>
</pattern>
<linearGradient id="paint0_linear_1854_6565" x1="93.0339" y1="4.96298" x2="117.407" y2="55.3376" gradientUnits="userSpaceOnUse">
<stop stop-color="#E2E2E2"/>
<stop offset="0.04" stop-color="#D2D2D2"/>
<stop offset="0.09" stop-color="#C1C1C1"/>
<stop offset="0.16" stop-color="#B5B5B5"/>
<stop offset="0.25" stop-color="#AEAEAE"/>
<stop offset="0.52" stop-color="#ADADAD"/>
<stop offset="0.63" stop-color="#A8A8A8"/>
<stop offset="0.75" stop-color="#9B9B9B"/>
</linearGradient>
<linearGradient id="paint1_linear_1854_6565" x1="97.6944" y1="43.102" x2="116.523" y2="14.8966" gradientUnits="userSpaceOnUse">
<stop offset="0.0192308" stop-color="#C4C4C4"/>
<stop offset="0.34" stop-color="#DBDBDB"/>
<stop offset="0.51" stop-color="#EAEAEA"/>
<stop offset="0.7" stop-color="#F4F4F4"/>
<stop offset="0.97" stop-color="#F7F7F7"/>
</linearGradient>
<linearGradient id="paint2_linear_1854_6565" x1="92.3897" y1="39.4626" x2="106.949" y2="18.5275" gradientUnits="userSpaceOnUse">
<stop offset="0.27" stop-color="#797979"/>
<stop offset="0.48" stop-color="#8B8B8B"/>
<stop offset="0.71" stop-color="#959595"/>
<stop offset="0.97" stop-color="#999999"/>
</linearGradient>
<linearGradient id="paint3_linear_1854_6565" x1="12.9037" y1="6.89994" x2="41.738" y2="51.0671" gradientUnits="userSpaceOnUse">
<stop stop-color="#E2E2E2"/>
<stop offset="0.04" stop-color="#D2D2D2"/>
<stop offset="0.09" stop-color="#C1C1C1"/>
<stop offset="0.16" stop-color="#B5B5B5"/>
<stop offset="0.25" stop-color="#AEAEAE"/>
<stop offset="0.52" stop-color="#ADADAD"/>
<stop offset="0.63" stop-color="#A8A8A8"/>
<stop offset="0.75" stop-color="#9B9B9B"/>
</linearGradient>
<linearGradient id="paint4_linear_1854_6565" x1="36.5067" y1="42.7591" x2="19.0978" y2="16.2635" gradientUnits="userSpaceOnUse">
<stop offset="0.0192308" stop-color="#C4C4C4"/>
<stop offset="0.34" stop-color="#DBDBDB"/>
<stop offset="0.51" stop-color="#EAEAEA"/>
<stop offset="0.7" stop-color="#F4F4F4"/>
<stop offset="0.97" stop-color="#F7F7F7"/>
</linearGradient>
<linearGradient id="paint5_linear_1854_6565" x1="41.5344" y1="39.2943" x2="27.8482" y2="17.6927" gradientUnits="userSpaceOnUse">
<stop offset="0.27" stop-color="#797979"/>
<stop offset="0.48" stop-color="#8B8B8B"/>
<stop offset="0.71" stop-color="#959595"/>
<stop offset="0.97" stop-color="#999999"/>
</linearGradient>
<linearGradient id="paint6_linear_1854_6565" x1="46.2913" y1="36.2143" x2="88.18" y2="116.765" gradientUnits="userSpaceOnUse">
<stop stop-color="#E2E2E2"/>
<stop offset="0.04" stop-color="#D2D2D2"/>
<stop offset="0.09" stop-color="#C1C1C1"/>
<stop offset="0.16" stop-color="#B5B5B5"/>
<stop offset="0.25" stop-color="#AEAEAE"/>
<stop offset="0.52" stop-color="#ADADAD"/>
<stop offset="0.63" stop-color="#A8A8A8"/>
<stop offset="0.75" stop-color="#9B9B9B"/>
</linearGradient>
<clipPath id="clip0_1854_6565">
<rect width="138" height="120" fill="white" transform="translate(0.5)"/>
</clipPath>

</defs>
</svg>
