<svg width="33" height="39" viewBox="0 0 33 39" fill="none" xmlns="http://www.w3.org/2000/svg">
<path d="M2.88499 1.75966H6.265C7.995 1.75966 9.45501 2.25965 10.655 3.26965C11.855 4.27965 12.465 5.74966 12.495 7.67966C12.465 11.1397 12.115 13.9996 11.435 16.2496C10.755 18.4996 9.645 20.2697 8.105 21.5697C6.565 22.8697 4.475 23.7296 1.855 24.1696L0.985001 19.4996C2.595 19.2396 3.85501 18.7097 4.74501 17.8997C5.63501 17.0897 6.285 15.8897 6.675 14.2897C7.065 12.6897 7.27501 10.4897 7.30501 7.68965C7.27501 7.19965 7.19502 6.87965 7.06502 6.73965C6.93502 6.59965 6.665 6.51965 6.265 6.51965H2.88499V1.75966ZM13.225 1.75966H16.905C18.635 1.75966 20.095 2.25965 21.275 3.26965C22.455 4.27965 23.105 5.71966 23.225 7.59966C23.315 12.5597 22.725 16.7697 21.475 20.2297C20.225 23.6897 18.075 26.5497 15.055 28.7997C12.035 31.0497 7.935 32.6797 2.765 33.6897L1.81502 29.0197C5.99502 28.2097 9.27501 26.9397 11.655 25.2097C14.035 23.4797 15.705 21.2196 16.675 18.4196C17.645 15.6196 18.095 12.0796 18.035 7.77965C18.005 7.25965 17.915 6.91966 17.755 6.75966C17.595 6.59966 17.315 6.51965 16.915 6.51965H13.235V1.75966H13.225ZM32.135 0.639648V38.3697H26.945V0.639648H32.135Z" fill="#542900"/>
</svg>
