<svg width="50" height="52" viewBox="0 0 50 52" fill="none" xmlns="http://www.w3.org/2000/svg">
<path d="M39.2599 38.846C31.3699 47.506 21.8499 50.476 16.6999 51.486C9.19991 52.956 1.9299 48.066 0.459903 40.566C-1.0101 33.066 3.8799 25.796 11.3799 24.336C12.8299 24.056 16.4999 23.036 19.2399 19.696C21.4499 16.996 22.0399 14.026 22.1799 12.496C22.9199 4.89598 29.6899 -0.674023 37.2899 0.0659769C44.8999 0.805977 50.4599 7.57598 49.7199 15.176C49.1699 20.866 47.1399 29.316 40.6299 37.246C40.1699 37.806 39.7099 38.336 39.2399 38.846H39.2599Z" fill="#65CE58"/>
<path d="M23.9298 12.2259C23.4498 11.7859 22.9398 11.4159 22.3998 11.0959C22.3098 11.5559 22.2398 12.0159 22.1898 12.4859C22.0398 14.0159 21.4598 16.9859 19.2498 19.6859C16.4998 23.0159 12.8398 24.0359 11.3898 24.3259C10.9298 24.4159 10.4898 24.5259 10.0598 24.6559C10.4298 25.1559 10.8498 25.6359 11.3298 26.0659C15.1498 29.5459 21.0798 29.2659 24.5598 25.4459C28.0398 21.6259 27.7598 15.6959 23.9398 12.2159L23.9298 12.2259Z" fill="#07A439"/>
</svg>
