<svg viewBox="0 0 66 24" fill="none" xmlns="http://www.w3.org/2000/svg">
<path d="M1.16449 0.791583H3.21888C4.2715 0.791583 5.16648 1.09305 5.89365 1.70101C6.62083 2.30897 6.99713 3.19327 7.01238 4.35895C6.99713 6.44409 6.77847 8.16246 6.36657 9.51404C5.95468 10.8656 5.27836 11.9358 4.33761 12.7196C3.39686 13.4984 2.12558 14.021 0.528852 14.2822L0 11.4686C0.986513 11.3128 1.74928 10.9912 2.29339 10.5039C2.8375 10.0165 3.22905 9.29296 3.46805 8.32827C3.70705 7.36357 3.83418 6.04214 3.84944 4.35392C3.8291 4.05748 3.78333 3.86655 3.70197 3.78113C3.62061 3.69572 3.46297 3.6505 3.2138 3.6505H1.16449V0.786558V0.791583ZM7.46496 0.791583H9.70749C10.7601 0.791583 11.65 1.09305 12.3721 1.70101C13.0942 2.30897 13.4857 3.1782 13.5569 4.30368C13.6078 7.2882 13.2518 9.82555 12.4891 11.9107C11.7263 13.9959 10.4194 15.7142 8.57351 17.0658C6.72761 18.4224 4.23591 19.4022 1.08822 20.0101L0.508512 17.1964C3.05616 16.7091 5.05461 15.9453 6.50387 14.9053C7.95313 13.8652 8.97524 12.5036 9.56003 10.8154C10.1499 9.13218 10.4245 6.99679 10.3889 4.40919C10.3686 4.09767 10.3126 3.89167 10.216 3.79621C10.1194 3.70074 9.9465 3.6505 9.70241 3.6505H7.45987V0.786558L7.46496 0.791583ZM18.9828 0.113281V22.8238H15.8198V0.113281H18.9828Z" fill="#542900"/>
<path d="M32.6262 19.372C31.4413 19.7087 30.3175 19.8795 29.2649 19.8795C26.3104 19.8795 24.4035 18.3772 23.5441 15.3726C23.0712 13.7044 22.8322 11.7248 22.8322 9.43365C22.8322 7.28318 23.0509 4.39914 23.4933 0.786558H26.6562C26.1986 4.39914 25.9697 7.26308 25.9697 9.37838C25.9697 11.4937 26.1833 13.197 26.6003 14.5887C26.8444 15.458 27.2207 16.081 27.719 16.4629C28.2174 16.8447 28.8377 17.0356 29.5751 17.0356C30.3684 17.0356 31.2684 16.8598 32.2753 16.5031C33.2872 16.1463 34.65 15.5936 36.3739 14.85V18.0255C35.0568 18.5832 33.8059 19.0304 32.616 19.367L32.6262 19.372ZM41.1234 0.113281V22.8238H37.9604V0.113281H41.1234Z" fill="#542900"/>
<path d="M59.9434 9.43359V7.14244C58.6416 7.43888 57.1415 7.68006 55.438 7.87099V10.3732H65.2167V13.2371H43.8134V10.3732H52.5395V8.15738C51.2224 8.26289 49.1121 8.37343 46.2136 8.49402L46.1068 5.63008C48.8985 5.52457 51.4004 5.37383 53.6074 5.17285C55.8143 4.97188 57.8382 4.65031 59.6841 4.19811C59.14 3.38415 57.7161 2.97214 55.4126 2.97214C53.3022 2.97214 50.4495 3.30878 46.8441 3.98708L46.2644 1.17339C49.9206 0.495086 52.8802 0.158447 55.1482 0.158447C60.457 0.158447 63.1064 1.81652 63.1064 5.13266V9.42857H59.9434V9.43359ZM46.6204 16.6487C47.0831 15.9553 47.729 15.4026 48.5578 14.9957C49.3816 14.5887 50.3122 14.3827 51.3547 14.3827H57.6805C58.7179 14.3827 59.6485 14.5887 60.4723 14.9957C61.2961 15.4026 61.9419 15.9553 62.4097 16.6487C62.8724 17.3421 63.1064 18.0958 63.1064 18.9147V19.0956C63.1064 20.2412 62.6487 21.221 61.7334 22.04C60.8181 22.8539 59.5468 23.3765 57.9094 23.6026C56.6788 23.7784 55.5448 23.8638 54.5074 23.8638C53.4701 23.8638 52.3361 23.7784 51.1055 23.6026C49.4732 23.3765 48.1968 22.8539 47.2815 22.04C46.3661 21.226 45.9136 20.2412 45.9136 19.0956V18.9147C45.9136 18.1008 46.1475 17.3421 46.6102 16.6487H46.6204ZM49.702 20.1658C50.1139 20.4623 50.7444 20.6683 51.5886 20.7889C52.748 20.9446 53.7243 21.025 54.5125 21.025C55.3007 21.025 56.277 20.9446 57.4365 20.7889C58.2806 20.6683 58.9061 20.4572 59.323 20.1658C59.74 19.8744 59.9434 19.5126 59.9434 19.1006V18.9198C59.9434 18.4525 59.7349 18.0556 59.323 17.734C58.9111 17.4124 58.3619 17.2516 57.6755 17.2516H51.3496C50.6631 17.2516 50.1139 17.4124 49.702 17.734C49.2901 18.0556 49.0816 18.4525 49.0816 18.9198V19.1006C49.0816 19.5177 49.2901 19.8744 49.702 20.1658Z" fill="#542900"/>
</svg>
