<svg width="31" height="39" viewBox="0 0 31 39" fill="none" xmlns="http://www.w3.org/2000/svg">
<path d="M16.525 32.6297C14.575 33.1897 12.735 33.4697 11.005 33.4697C6.15502 33.4697 3.02501 30.9697 1.61501 25.9797C0.835006 23.2097 0.444992 19.9196 0.444992 16.1096C0.444992 12.5296 0.805009 7.73965 1.52501 1.74965H6.71501C5.96501 7.74965 5.59502 12.5096 5.59502 16.0296C5.59502 19.5496 5.94499 22.3797 6.63499 24.6797C7.03499 26.1197 7.65502 27.1597 8.47502 27.7997C9.29502 28.4397 10.315 28.7496 11.525 28.7496C12.825 28.7496 14.305 28.4597 15.955 27.8596C17.615 27.2696 19.855 26.3496 22.685 25.1096V30.3896C20.525 31.3096 18.465 32.0597 16.515 32.6197L16.525 32.6297ZM30.475 0.639648V38.3697H25.285V0.639648H30.475Z" fill="#542900"/>
</svg>
