<svg width="135" height="120" viewBox="0 0 135 120" fill="none" xmlns="http://www.w3.org/2000/svg" xmlns:xlink="http://www.w3.org/1999/xlink">
<g clip-path="url(#clip0_1883_10909)">
<path d="M134.088 31.214L134.131 31.8278L134.5 32.4597L134.028 33.0554L133.937 33.6632L134.355 34.3191L134.167 34.9209L133.731 35.4926L134.052 36.1606L133.84 36.7563L133.846 37.3822L133.901 38.0261L133.313 38.5376L133.362 39.1815L132.98 39.7231L132.938 40.3489L132.436 40.8424L132.357 41.4562L132.266 42.07L132.127 42.6778L131.751 43.1953L131.394 43.7068L131.37 44.3688L131.291 45.0127L131.279 45.6927L130.668 46.0838L130.226 46.5472L130.177 47.2272L129.584 47.5943L129.221 48.0938L128.876 48.5993L129.076 49.4718L128.452 49.7968L128.143 50.3384L127.604 50.7055L127.084 51.0846L127.187 51.9632L126.49 52.1858L126.285 52.8358L125.51 52.9621L125.092 53.4135L124.789 53.9791L124.456 54.5328L123.736 54.6591L123.288 55.0804L123.143 55.8747L122.471 56.0252L122.095 56.5607H121.326L120.957 57.1084L120.243 57.1445L119.777 57.5537L119.383 58.0953L118.808 58.342L118.324 58.7452L117.797 59.0822L117.095 59.0521L116.556 59.353L116.174 60.039L115.587 60.2737L114.891 60.1895L114.207 60.0872L113.614 60.2496L113.038 60.4723L112.572 61.1463L111.906 61.044L111.337 61.3629L110.702 61.3388L110.036 61.1222L109.436 61.2787L108.843 61.5314L108.219 61.5796L107.608 61.6999L106.984 61.73L106.355 61.9647L105.743 61.2666L105.102 61.8564L104.478 61.7962L103.885 61.4351L103.267 61.387L102.65 61.2907L102.062 61.05L101.366 61.4171L100.791 61.1042L100.119 61.2125L99.6348 60.6107L99.0536 60.388L98.3877 60.4482L97.7217 60.4542L97.1829 60.1112L96.5715 59.9608L96.0629 59.5576L95.5362 59.2086L94.8461 59.2146L94.4647 58.5827L93.835 58.4563L93.3568 58.0411L92.8785 57.6439L92.4365 57.1866L91.6495 57.2528L91.2379 56.7533L90.8322 56.2719L90.4327 55.7784L89.6759 55.7363L89.3308 55.1767L88.7133 54.948L88.1503 54.6351L87.7447 54.1597L87.557 53.4676L87.1695 52.9922L86.3704 52.8839L86.0011 52.3724L85.8013 51.7285L85.4805 51.1929L85.2928 50.5611L84.5058 50.3745L84.4937 49.6283L83.7187 49.4117L83.8035 48.6173L83.525 48.0697L82.9438 47.7026L82.5806 47.1971L82.0539 46.7759L82.2173 45.9936L81.9025 45.464L81.2729 45.0789L81.0671 44.4891L81.0973 43.8031L80.8067 43.2555L80.4314 42.738L80.4011 42.0941L80.3466 41.4622L80.0984 40.8965L79.7776 40.3489L79.4749 39.7893L79.5415 39.1394L79.0269 38.6218L79.0632 37.9779L79.2569 37.316L78.8695 36.7563L79.045 36.1064L79.0753 35.4806L78.3791 34.945L78.4396 34.3131L78.7181 33.6692L78.5062 33.0674L78.1914 32.4597L78.7484 31.8278L78.6576 31.214L78.1309 30.5881L78.1611 29.9623L78.1854 29.3425L78.5365 28.7407L78.815 28.1449L78.5123 27.495L78.8392 26.9113L79.1479 26.3336L78.9482 25.6837L79.2509 25.112L78.9058 24.4139L79.2811 23.8603L79.7049 23.3307L79.5415 22.6507L79.6504 22.0429L79.826 21.4472L80.4253 20.9898L80.2558 20.2857L80.3466 19.6599L80.4677 19.034L81.17 18.6489L81.4121 18.0893L81.5393 17.4694L82.0478 17.0301L82.0902 16.3622L82.4716 15.8687L82.7501 15.3211L83.1981 14.8637L83.5553 14.3703L83.4887 13.6L83.9367 13.1487L84.3665 12.6974L84.9114 12.3303L85.0082 11.6382L85.2686 11.0545L86.0556 10.898L86.0253 10.0676L86.6792 9.81485L86.994 9.26122L87.3451 8.73767L87.8779 8.39466L88.2774 7.91324L89.0402 7.83501L89.24 7.13093L89.6093 6.59535L90.0331 6.12597L90.6445 5.89729L91.1894 5.58437L91.7827 5.34968L92.4002 5.16914L92.7877 4.62754L93.2902 4.26046L93.7261 3.75497L94.3072 3.52028L95.0519 3.61656L95.6452 3.43603L96.069 2.86434L96.5412 2.37691L97.3524 2.74399L97.8549 2.32876L98.3513 1.84734L98.9325 1.61867L99.6408 1.82929L100.24 1.68486L100.809 1.39601L101.397 1.17335L102.075 1.41406L102.68 1.30575L103.297 1.3238L103.879 0.956716L104.514 1.1192L105.102 0.547509L105.731 0.523438L106.355 1.14327L106.972 1.07105L107.608 0.637775L108.219 0.848396L108.837 0.956716L109.491 0.722023L110.114 0.782201L110.635 1.46822L111.337 1.08911L111.924 1.31176L112.469 1.70292L113.16 1.5284L113.686 1.95566L114.388 1.78717L114.879 2.28664L115.357 2.77408L115.908 3.03284L116.519 3.17727L117.04 3.50223L117.748 3.45408L118.366 3.61054L118.705 4.28453L119.48 4.17621L120.11 4.34471L120.352 5.12702L120.969 5.31357L121.484 5.6626L121.92 6.10791L122.319 6.59535L122.955 6.79394L123.227 7.4258L123.93 7.55819L124.317 8.05165L125.025 8.21413L125.292 8.82794L125.806 9.19502L126.091 9.77272L126.539 10.2L126.66 10.9041L127.453 11.0545L127.865 11.5299L128.095 12.1317L128.513 12.589L128.785 13.1547L129.336 13.5338L129.227 14.3342L130.044 14.5629L130.008 15.297L130.311 15.8326L130.886 16.2358L130.68 17.0241L131.14 17.4815L131.685 17.9208L131.485 18.673L131.649 19.2687L131.975 19.7983L132.175 20.376L132.484 20.9236L132.968 21.4171L133.168 22.0068L132.871 22.7289L133.434 23.2224L133.344 23.8783L133.665 24.444L133.84 25.0398L133.695 25.6897L133.991 26.2734L133.925 26.9053L134.343 27.477L134.445 28.0968L133.973 28.7527L133.961 29.3725L134.276 29.9743L133.876 30.6002L134.088 31.214Z" fill="url(#paint0_linear_1883_10909)"/>
<path d="M86.4128 27.6997L86.1404 28.2594L85.9285 28.8371L85.7045 29.4148L85.868 30.0768L85.4684 30.6244L85.3291 31.2262L85.3231 31.846L85.4018 32.4718L85.2262 33.0736L85.3957 33.6994L85.2626 34.3012L85.317 34.915L84.9175 35.5288L84.8872 36.1487L84.9659 36.7625V37.3823L85.3352 37.966L85.3776 38.5798L85.5834 39.1636L85.4926 39.8014L85.42 40.4514L85.6924 41.0231L85.989 41.5767L86.207 42.1544L86.5521 42.684L86.6731 43.2857L86.9819 43.8153L87.1333 44.4171L87.2543 45.0309L87.5389 45.5785L87.6721 46.2043L88.3198 46.5413L88.6649 47.0468L88.9797 47.5644L89.3067 48.0819L89.6275 48.5994L89.7002 49.3336L90.469 49.484L90.6143 50.1821L90.9897 50.6876L91.5769 50.9704L91.9523 51.4819L92.4608 51.837L93.1631 51.9332L93.5203 52.4929L94.0227 52.8479L94.6342 53.0285L95.058 53.534L95.6392 53.7626L96.3354 53.7205L96.7773 54.2441L97.4614 54.1839L97.9215 54.7255L98.4906 55.0203L99.1505 54.9542L99.7378 55.1467L100.343 55.3212L100.967 55.3513H101.59L102.202 55.4235L102.819 55.5379L103.443 55.3874L104.054 55.3092L104.678 55.3874L105.295 55.3212L105.901 55.1648L106.53 55.1828L107.142 55.0745L107.675 54.6593L108.268 54.4968L108.849 54.3102L109.497 54.2802L110.096 54.1237L110.647 53.8228L111.113 53.3715L111.694 53.1548L112.161 52.7396L112.79 52.5952L113.293 52.2401L113.928 52.0777L114.461 51.7647L114.812 51.1991L115.448 51.0125L115.938 50.6274L116.429 50.2423L116.689 49.6164L117.089 49.147L117.531 48.7258L117.948 48.2684L118.529 47.9615L118.832 47.4079L119.238 46.9445L119.353 46.2645L120.061 46.0118L120.073 45.2836L120.654 44.9226L120.788 44.2907L121.018 43.719L121.278 43.1654L121.72 42.702L121.847 42.0882L122.271 41.6068L122.489 41.0291L122.858 40.5115L123.003 39.9037L122.961 39.2478L123.464 38.7544L123.336 38.0864L123.482 37.4906L123.542 36.8768L123.905 36.3292L123.76 35.6793L123.887 35.0835L124.178 34.5058L124.226 33.892L124.468 33.2963L124.178 32.6644L124.517 32.0566L124.099 31.4428L124.493 30.8169L124.093 30.2212L124.299 29.5953L124.36 28.9695L123.996 28.3978L124.027 27.772L123.76 27.1943L123.942 26.5323L123.724 25.9486L123.379 25.407L123.391 24.7631L123.227 24.1673L122.664 23.716L122.561 23.1022L122.241 22.5786L122.18 21.9287L121.968 21.351L121.514 20.8937L121.387 20.2618L121.102 19.7082L120.539 19.3411L120.352 18.7273L119.765 18.3963L119.71 17.6561L119.08 17.3793L118.862 16.7414L118.414 16.3081L117.712 16.1517L117.518 15.4416L116.768 15.3814L116.55 14.6533L115.938 14.4366L115.291 14.3103L114.933 13.7085L114.322 13.5279L113.68 13.4317L113.25 12.9081L112.603 12.854L112.003 12.7035L111.537 12.1439L110.92 12.0295L110.266 12.0837L109.666 11.9573L109.067 11.8129L108.474 11.5842L107.826 11.855L107.221 11.7106L106.609 11.7768L105.998 11.7046L105.386 11.8069L104.744 11.4458L104.145 11.7106L103.552 11.9152L102.886 11.6925L102.353 12.1499L101.748 12.2642L101.154 12.4267L100.61 12.7216L99.9739 12.7757L99.3382 12.8479L98.8357 13.2511L98.1395 13.221L97.6854 13.7025L97.1224 13.9612L96.6865 14.4366L96.0993 14.6593L95.5605 14.9542L95.0883 15.3573L94.6342 15.7726L94.1136 16.1096L93.6534 16.5188L93.1631 16.8979L92.5395 17.1326L92.2368 17.7103L91.6738 18.0232L91.589 18.7814L90.8807 18.98L90.4751 19.4554L90.3479 20.1354L89.8455 20.5266L89.6154 21.1163L89.0403 21.4714L88.6589 21.9648L88.5499 22.6208L88.3501 23.2105L87.999 23.716L87.8961 24.3479L87.6297 24.8955L87.3088 25.419L86.7034 25.8403L86.655 26.4842L86.2433 26.9957L86.4128 27.6997Z" fill="url(#paint1_linear_1883_10909)"/>
<path d="M85.5169 29.3245L85.523 29.9744L85.5593 30.6123L85.3353 31.208L85.2505 31.8218L85.1537 32.4416L85.2384 33.0675L85.1537 33.6933L85.0447 34.3252L85.3111 34.927L85.2263 35.5649L85.2868 36.1907L85.3534 36.8226L85.6743 37.3882L85.7833 38.0081L85.9104 38.6279L86.2494 39.1695L86.3826 39.7953L86.7459 40.3189L87.0001 40.8906L87.3452 41.4201L87.7145 41.9256L88.217 42.3288L88.5015 42.9005L88.9011 43.3879L89.2946 43.8874L89.7789 44.2906L90.3662 44.5674L90.7839 45.0669L91.3227 45.4039L91.8736 45.7108L92.5577 45.7409L93.1026 46.0538L93.6475 46.3968L94.2831 46.457L94.9128 46.5232L95.5182 46.6917L96.1538 46.6195L96.7713 46.6496L97.3949 46.8361L98.0366 46.9143L98.6299 46.5834L99.2959 46.7519L99.8831 46.4871L100.47 46.2524L101.13 46.2343L101.681 45.9034L102.165 45.4641L102.85 45.4159L103.304 44.9465L103.77 44.5193L104.327 44.2304L104.841 43.8754L105.398 43.5625L105.737 43.0028L106.131 42.5214L106.549 42.064L107.045 41.6669L107.317 41.0952L107.711 40.6138L108.044 40.0842L108.48 39.6208L108.643 39.001L108.994 38.4835L109.182 37.8877L109.479 37.3341L109.642 36.7323L109.8 36.1305L109.999 35.5408L110.133 34.933L110.375 34.3493L110.302 33.7054L110.478 33.1036L110.708 32.4958L110.762 31.8639L110.623 31.2381L110.653 30.6123L110.405 30.0045L110.387 29.3846L110.417 28.7467L110.387 28.1149L110.09 27.5432L110.096 26.8873L109.612 26.3878L109.479 25.774L109.273 25.1842L109.134 24.5524L108.643 24.1071L108.353 23.5534L108.111 22.9577L107.578 22.5725L107.372 21.9347L106.797 21.6097L106.294 21.2246L105.98 20.6408L105.35 20.4302L104.878 20.021L104.424 19.5637L103.867 19.2628L103.231 19.1244L102.632 18.9498L102.057 18.7152L101.5 18.3902L100.84 18.4805L100.258 18.1495L99.6228 18.2097L98.9932 18.1796L98.3757 18.2217L97.746 18.1796L97.1043 18.1375L96.511 18.4083L95.9056 18.5527L95.3002 18.7091L94.713 18.9198L94.1681 19.2267L93.4719 19.2146L92.9815 19.6359L92.4427 19.9548L91.9766 20.3881L91.3348 20.5626L90.8505 20.9718L90.4691 21.4893L89.8516 21.7481L89.5004 22.2837L89.0888 22.7591L88.6347 23.1984L88.2957 23.7279L87.9869 24.2756L87.5329 24.7269L87.436 25.3949L87.0788 25.9064L86.7701 26.448L86.3645 26.9535L86.2979 27.5974L86.0254 28.169L85.8801 28.7768L85.5169 29.3245Z" fill="url(#paint2_linear_1883_10909)"/>
<path d="M0.730053 30.7447L0.723999 31.3645L0.81481 31.9783L0.820864 32.5921L0.5 33.236L0.705837 33.8438L0.645297 34.4757L1.28702 35.0173L1.36573 35.6251L1.06303 36.2991L1.20832 36.9009L1.57156 37.4605L1.46865 38.1104L1.37784 38.7724L1.76529 39.314L2.1467 39.8496L1.85005 40.5777L2.06194 41.1674L2.64918 41.6248L3.09718 42.1182L3.28486 42.6959L3.26669 43.3699L3.21221 44.068L3.44831 44.6457L3.70864 45.2114L4.27166 45.6266L4.42301 46.2464L4.81653 46.7399L5.28874 47.1852L5.46431 47.799L5.91231 48.2443L6.0576 48.8882L6.33609 49.4539L7.08074 49.6826L7.35922 50.2422L7.81933 50.6635L7.95857 51.3435L8.56397 51.6443L8.7577 52.2943L9.33889 52.6012L9.52051 53.2872L10.3983 53.2812L10.4528 54.1176L11.3004 54.1056L11.6636 54.6231L12.0874 55.0745L12.6444 55.3633L12.7836 56.2118L13.5525 56.2058L14.0187 56.621L14.4545 57.0844L14.9449 57.4756L15.5503 57.6802L16.1921 57.7945L16.7006 58.1556L17.3484 58.2398L17.645 59.0642L18.2686 59.1966L18.9345 59.2267L19.6186 59.1665L19.9879 59.9488L20.7023 59.7984L21.2351 60.1535L21.7678 60.5627L22.3853 60.695L23.0028 60.7913L23.6748 60.6409L24.25 60.9358L24.9341 60.5747L25.5274 60.7974L26.0965 61.3209L26.7442 61.026L27.3678 60.9478L27.9853 61.1043L28.6028 61.1343L29.2324 61.4834L29.8318 60.8034L30.4796 61.2667L31.085 61.02L31.7328 61.2126L32.3442 61.0682L32.9617 60.9538L33.5308 60.6168L34.1544 60.5687L34.7598 60.4182L35.2986 60.0391L35.9827 60.1715L36.6184 60.1234L37.1996 59.8766L37.6476 59.2989L38.3559 59.4072L38.822 58.9138H39.5001L40.1237 58.7634L40.5838 58.2879L41.165 58.0593L41.8127 57.9329L42.0307 57.0904L42.7814 57.1205L43.2536 56.7053L43.6289 56.1577L44.2222 55.923L44.6884 55.5138L45.0759 55.0143L45.4996 54.5569L45.9476 54.1417L46.8013 54.1658L46.9102 53.3775L47.5762 53.1668L48.121 52.8298L48.3995 52.2401L48.8717 51.8309L49.0594 51.181L49.3379 50.6153L50.1612 50.4709L50.3429 49.827L50.7364 49.3456L50.9846 48.7739L51.3539 48.2744L51.6445 47.7268L52.0683 47.2634L52.147 46.6015L52.6252 46.1622L52.9885 45.6507L53.1883 45.0609L53.6242 44.5855L53.9511 44.0499L53.9874 43.388L54.5444 42.9427L54.1266 42.1243L54.6836 41.6729L54.9016 41.0892L55.0105 40.4754L55.2224 39.8977L55.0711 39.2177L55.4101 38.6701L55.9489 38.1586L55.6886 37.4725L56.0397 36.9129L56.2637 36.3171L56.1971 35.6793L55.9005 35.0173L56.1911 34.4336L56.5906 33.8559V33.23L56.2334 32.5861L56.5725 31.9844L56.1366 31.3585L56.5785 30.7447L56.8267 30.1249L56.6088 29.505L56.5604 28.8852L56.179 28.2955L56.185 27.6756L56.0155 27.0799L56.5361 26.3939L56.4332 25.7801L55.8339 25.2445L56.0821 24.5765L55.8339 23.9928L55.7491 23.379L55.8339 22.723L55.6402 22.1273L55.1982 21.6097L54.8047 21.0802L55.0953 20.34L54.7442 19.8044L54.7381 19.1425L54.4414 18.5888L53.6665 18.2338L54.0419 17.4033L53.1701 17.1145L53.4425 16.3081L53.0732 15.7966L52.819 15.2249L52.1651 14.8759L52.147 14.1778L51.4386 13.883L51.6142 13.0405L50.9543 12.7336L50.8151 12.0776L50.4579 11.5661L49.7193 11.3495L49.3379 10.8681L49.0352 10.3265L48.7325 9.77283L48.3753 9.26734L48.0181 8.74981L47.2856 8.59335L47.1221 7.88927L46.6983 7.43192L46.1535 7.10697L45.5481 6.86626L45.1667 6.36076L44.5007 6.21032L44.0891 5.73492L43.5381 5.45208L43.3444 4.6457L42.854 4.25455L42.2849 3.98375L41.7825 3.60463L41.0257 3.67083L40.5051 3.33985L39.8815 3.20144L39.4456 2.68392L38.9916 2.17241L38.3438 2.1002L37.6899 2.05807L37.0906 1.91365L36.4368 1.92568L35.8858 1.61878L35.2623 1.57665L34.6992 1.29983L34.1423 0.96284L33.5369 0.848503L32.9678 0.499473L32.2716 0.932752L31.6601 0.896645L31.0547 0.794343L30.4433 0.698059L29.8379 0.577704L29.2324 0L28.6028 0.655935L27.9793 0.156462L27.3496 0.0541598L26.7382 0.361065L26.1025 0.222657L25.485 0.355047L24.9341 0.914698L24.2681 0.667971L23.6506 0.752219L23.0937 1.09523L22.4096 0.914698L21.8284 1.14337L21.3622 1.7632L20.6418 1.52249L20.1877 2.11223L19.431 1.84745L18.7832 1.91966L18.3291 2.44923L17.7298 2.62374L17.1244 2.81631L16.6098 3.17136L16.1012 3.53844L15.5443 3.80924L14.9389 4.01384L14.5211 4.52535L14.0489 4.92252L13.4375 5.13314L12.935 5.50023L12.4991 5.94554L11.8997 6.19227L11.3973 6.56537L11.1854 7.26343L10.7253 7.67263L10.2833 8.09388L9.6537 8.3406L9.15122 8.71972L8.78797 9.23123L8.6003 9.89318L8.12808 10.2964L7.89198 10.8981L7.30474 11.2171L6.97782 11.7467L6.37241 12.0716L5.96679 12.547L5.91231 13.2511L5.28269 13.5881L4.94366 14.1116L4.58647 14.6292L4.62885 15.3573L4.41091 15.935L4.1082 16.4706L3.84788 17.0302L3.29091 17.4575L3.19405 18.0894L2.92161 18.649L3.10929 19.3772L2.33437 19.7563L2.64918 20.5145L2.07405 20.9779L2.17697 21.6519L2.12248 22.2717L2.00745 22.8735L1.61394 23.4091L1.68054 24.053L1.30519 24.6066L1.22648 25.2204L0.911674 25.7981L0.917728 26.424L1.18411 27.0739L0.657405 27.6395L1.0267 28.2895L0.996431 28.9033L1.07513 29.5231L0.723999 30.1249L0.730053 30.7447Z" fill="url(#paint3_linear_1883_10909)"/>
<path d="M48.8777 27.1281L48.7808 27.8021L48.9503 28.3918L49.3257 28.9334L49.0835 29.6134L49.362 30.1851L49.695 30.7508L49.4468 31.4067L49.471 32.0205L49.6163 32.6163L49.6587 33.2241L49.7676 33.8318L50.0159 34.4396L50.028 35.0595L49.6708 35.6673L49.9432 36.2931L49.7253 36.8949L49.804 37.5207L49.7616 38.1345L49.4892 38.7183L49.5194 39.3441L49.2894 39.9278L49.3862 40.5838L49.253 41.1916L48.7142 41.673L48.4902 42.2447L48.4781 42.8886L47.9756 43.3459L47.9817 44.0139L47.7153 44.5675L47.4853 45.1452L47.1826 45.6808L46.6498 46.084L46.4258 46.6557L46.0141 47.119L45.996 47.8592L45.6146 48.3527L44.9971 48.6475L44.6157 49.129L44.3251 49.7007L43.7741 50.0196L43.2051 50.3084L42.86 50.844L42.4846 51.3555L41.7824 51.4458L41.298 51.8129L40.9409 52.3906L40.505 52.866L39.948 53.1488L39.3002 53.2511L38.6464 53.2993L38.0773 53.5159L37.5022 53.7205L36.9997 54.1357L36.3761 54.2019L35.801 54.4246L35.2258 54.6894L34.5902 54.6834L33.9969 54.8639L33.3612 54.7676L32.7437 54.7435L32.1383 55.0986L31.5208 55.0203L30.8912 55.0685L30.2918 54.7857L29.6561 54.912L29.0749 54.6172L28.4393 54.6653L27.8944 54.2862L27.18 54.575L26.7018 54.0094L25.9813 54.22L25.4304 53.901L24.8734 53.6302L24.268 53.4618L23.8927 52.8178L23.1904 52.8359L22.6758 52.4929L22.1976 52.0957L21.7011 51.7286L21.1321 51.4699L20.5388 51.2412L20.0787 50.826L19.4914 50.5672L19.3037 49.833L18.7831 49.5021L18.2201 49.2072L17.6207 48.9304L17.5117 48.1842L16.8942 47.9134L16.5855 47.3658L16.3373 46.776L15.9437 46.3066L15.5563 45.8373L15.0296 45.4581L14.7995 44.8744L14.1881 44.5314L13.958 43.9477L13.9459 43.2496L13.4374 42.8284L13.0802 42.3169L12.9046 41.7151L12.6746 41.1434V40.4815L12.0147 40.0783L12.1418 39.3742L11.8149 38.8386V38.1947L11.6091 37.623L11.4456 37.0333L11.1429 36.4736L11.0763 35.8598L10.9613 35.252L10.701 34.6683L10.8523 34.0304L10.8886 33.4106L10.8099 32.8088L10.4951 32.2071L10.7373 31.5872L10.5314 30.9734L10.7494 30.3596L10.8705 29.7578L10.7554 29.138L10.8705 28.5302L11.1005 27.9465L10.7494 27.2725L11.1671 26.7249L11.2277 26.1111L11.1974 25.4732L11.4698 24.9075L11.6151 24.3057L11.7059 23.6859L11.8573 23.0841L12.0692 22.5004L12.7048 22.1032L12.6322 21.3932L13.1105 20.9418L13.504 20.4604L13.6795 19.8586L14.0549 19.3652L14.2183 18.7393L14.4968 18.1737L15.187 17.9269L15.4352 17.3432L15.859 16.8919L16.2162 16.3804L16.6642 15.9651L17.088 15.5138L17.6147 15.1768L17.9658 14.6352L18.553 14.3765L19.0918 14.0695L19.5701 13.6844L20.1695 13.4798L20.7325 13.2331L21.1986 12.8118L21.8646 12.7757L22.2399 12.0897L22.918 12.1198L23.5052 11.9332L24.0804 11.7046L24.6797 11.5722L25.2367 11.2111L25.8784 11.2352L26.5262 11.4338L27.1074 11.0847L27.737 11.2051L28.3545 11.2713L28.966 11.1509L29.5956 10.8982L30.2071 11.1028L30.7943 11.4037L31.4058 11.4578L32.0656 11.2833L32.6226 11.6263L33.3067 11.4639L33.8153 11.9332L34.342 12.2883L34.9655 12.3605L35.5467 12.5711L36.2127 12.5892L36.7575 12.8841L37.3508 13.0947L37.6838 13.7626L38.2226 14.0575L38.937 14.0695L39.3123 14.6232L39.8693 14.9L40.3415 15.2912L40.7169 15.8027L41.2072 16.1697L41.8066 16.4225L42.3696 16.7234L42.5512 17.4094L43.0658 17.7705L43.3625 18.3241L43.8044 18.7514L44.5248 18.956V19.7383L45.2755 19.9429L45.2816 20.6891L45.6812 21.1585L45.9839 21.694L46.5469 22.0732L46.6438 22.7291L47.2189 23.1202L47.1099 23.8604L47.6245 24.2997L47.7032 24.9316L47.9272 25.5033L48.46 25.9606L48.6658 26.5443L48.8777 27.1281Z" fill="url(#paint4_linear_1883_10909)"/>
<path d="M49.4106 28.8672L49.5195 29.487L49.4469 30.1369L49.7738 30.7207L49.6891 31.3585L49.6709 31.9844L49.7435 32.6042L49.6769 33.224L49.8525 33.8499L49.6951 34.4697L49.6043 35.0835L49.5922 35.7094L49.3198 36.2931L49.2047 36.9009L49.2834 37.5749L49.0715 38.1706L48.7507 38.7182L48.563 39.32L48.2179 39.8496L47.9334 40.4092L47.4914 40.8726L47.3038 41.5045L46.8921 41.9738L46.5712 42.5335L45.9719 42.8344L45.6207 43.376L45.1788 43.8273L44.6218 44.1342L44.1799 44.6036L43.5563 44.7962L43.0175 45.1151L42.4303 45.3318L41.8612 45.5845L41.3103 45.9155L40.6685 45.9516L40.0813 46.2103L39.4638 46.3849L38.8281 46.3909L38.1924 46.2224L37.5689 46.2284L36.9514 46.2103L36.3036 46.3427L35.6679 46.2645L35.117 45.8613L34.4692 45.8553L33.8578 45.6868L33.2584 45.4882L32.6651 45.2656L32.1081 44.9587L31.5693 44.6277L31.1516 44.1162L30.6067 43.8032L30.0013 43.5505L29.6623 42.9848L29.2688 42.4974L28.6876 42.1905L28.4152 41.5947L27.9551 41.1675L27.5373 40.7041L27.1378 40.2227L26.8835 39.645L26.4537 39.1696L26.151 38.622L25.8725 38.0563L25.7756 37.4184L25.2731 36.949L25.3337 36.263L25.1702 35.6612L24.7646 35.1256L24.6435 34.5058L24.5103 33.892L24.4679 33.2662L24.3953 32.6463L24.5285 32.0085L24.25 31.4007L24.4498 30.7748L24.2682 30.1429L24.5164 29.5352L24.6011 28.9213L24.5466 28.2835L24.7888 27.6937L24.9886 27.104L24.9099 26.436L25.2973 25.9004L25.2852 25.2264L25.7635 24.751L25.927 24.1372L26.3931 23.6799L26.4839 23.0059L27.0651 22.6448L27.4284 22.1454L27.8279 21.67L28.2033 21.1765L28.5726 20.665L29.0993 20.3099L29.5897 19.9308L30.0074 19.4374L30.5099 19.0522L31.1516 18.9018L31.6844 18.5588L32.32 18.4685L32.8952 18.2158L33.4885 18.0292L34.0878 17.8366L34.7114 17.7524L35.3289 17.5779L35.9646 17.7644L36.5942 17.5899L37.2056 17.8667L37.8534 17.7103L38.483 17.7644L39.1127 17.8728L39.712 18.0834L40.2992 18.312L40.832 18.6791L41.4495 18.8296L41.9641 19.1967L42.5937 19.3712L42.9812 19.9248L43.5926 20.1414L44.083 20.5326L44.4463 21.0742L45.088 21.3029L45.4391 21.8385L45.9174 22.2537L46.3533 22.705L46.6136 23.3008L46.8981 23.8604L47.2311 24.384L47.7275 24.8112L47.9515 25.407L48.3935 25.8884L48.3511 26.5925L48.8778 27.0558L48.902 27.7118L49.1745 28.2835L49.4106 28.8672Z" fill="url(#paint5_linear_1883_10909)"/>
<path d="M112.736 68.6444L112.808 68.0366L113.244 67.4047L113.19 66.7909L113.553 66.141L112.821 65.5814L113.426 64.8953L112.463 64.3959L113.232 63.6617L112.361 63.1743L112.772 62.4762L112.905 61.8142L112.167 61.3388L112.282 60.6769L111.791 60.1714L112.264 59.3951L111.931 58.8415L111.349 58.3841L111.543 57.662L111.374 57.0602L110.411 56.7714L110.435 56.1034L110.012 55.616L110.181 54.8637L110.048 54.2439L109.412 53.8648L109.515 53.1186L109.309 52.5228L108.51 52.258L108.565 51.5118L107.759 51.2772L108.183 50.2782L107.317 50.1037L107.451 49.2612L107.063 48.7678L106.07 48.7256L106.373 47.7146L105.277 47.7869L105.622 46.7097L104.938 46.469L104.133 46.3486L104.248 45.4159L103.606 45.1571L102.862 45.0127L102.88 44.1341L102.135 43.9957L101.584 43.6767L101.681 42.6658L101.124 42.3528L100.355 42.2866L99.8771 41.8895L99.4472 41.4381L99.1445 40.8183L98.2122 41.0049L97.849 40.4633L97.2436 40.2466L96.8319 39.7652L96.2326 39.5546L96.1962 38.4954L95.4455 38.5075L94.7856 38.3931L94.6343 37.4604L93.7262 37.7553L93.2297 37.3822L92.697 37.0692L92.0311 36.997L91.6496 36.4073L91.2501 35.8236L90.5236 35.8777L90.2572 34.9991L89.4823 35.1736L88.9435 34.8487L88.211 34.9751L87.7387 34.5117L87.1939 34.1867L86.5703 34.0784L85.9407 33.9882L85.3898 33.6752L84.7904 33.5067L84.2274 33.242L83.7915 32.5439L83.0711 32.7726L82.5807 32.2189L81.721 32.9712L81.3396 31.9903L80.7342 31.8218L79.9714 32.3393L79.4387 31.8639L78.7667 32.0444L78.2702 31.3403L77.6769 31.1056L76.9747 31.5028L76.3208 31.6412L75.7275 31.4005L75.0616 31.7134L74.4501 31.6232L73.6147 31.2681L74.4622 30.552L74.1232 29.9502L74.5954 29.3906L74.2019 28.7768L73.4815 28.2532L73.6631 27.6394L73.2938 27.1399L73.6752 26.3637L73.2938 25.8642L72.5492 25.7137L72.5249 24.7629L71.7803 24.5764L71.1265 24.9013L70.7935 25.473L70.7208 26.1049L69.8006 26.2674L70.1518 27.0437L69.728 27.5191L69.5645 28.0908L69.4979 28.175L69.4798 27.9523L68.608 27.7297L68.7049 26.827L67.7544 26.7668L67.5788 26.0327L67.1005 25.6114L66.4346 25.4189L66.0713 24.8592L65.4538 24.6486L65.2843 23.6677L64.6729 23.3668L64.0009 23.2224L63.3591 22.9757L62.5963 23.6196L61.9243 22.8613L61.4279 23.6376L60.9496 23.9626L60.09 24.2093L60.0173 24.9555L60.1202 25.6415L60.0415 26.3396L61.0283 26.7127L61.0647 27.3446L60.6893 28.2472L61.331 28.6324L61.555 29.2642L62.5661 29.2883L62.5237 30.1488L63.3773 30.209L63.2623 30.7867L62.7719 30.5881L62.1483 30.6483L61.5308 30.7687L60.9617 31.2922L60.3624 31.4787L59.7812 31.7796L59.0608 31.2501L58.4312 31.2922L57.8621 31.6352L57.2869 31.9602L56.5847 31.6533L55.9914 31.8759L55.3739 31.9842L54.9198 32.7244L54.0783 31.9842L53.5274 32.3513L52.9644 32.6703L52.4316 33.0614L51.6991 32.8267L51.0694 32.929L50.4762 33.1336L50.1311 34.0303L49.5136 34.1386L48.7568 33.928L48.4723 34.8848L47.5944 34.3974L47.0132 34.6321L46.3715 34.7344L46.1899 35.8356L45.4634 35.7514L45.0396 36.299L44.2889 36.2027L44.0165 37.0151L43.2597 36.9248L42.5696 36.9669L41.9823 37.2137L41.8249 38.1585L40.8563 37.7793L40.2448 37.9839L40.2327 39.1032L39.1854 38.67L38.9674 39.4523L38.4407 39.7953L37.9685 40.2045L37.6598 40.8183L37.0846 41.0951L36.6487 41.5404L35.6619 41.3298L35.7346 42.3769L34.7357 42.1843L34.8386 43.2254L33.7549 42.9787L33.767 43.8934L33.5249 44.5252L32.7439 44.6336L32.7681 45.5061L31.9448 45.5904L31.4362 45.9695L31.1154 46.5171L30.8126 47.0707L30.1951 47.3716L30.2799 48.2262L29.1962 48.184L29.0025 48.8219L28.9722 49.5621L28.0641 49.6945L28.4516 50.6934L27.8159 51.0304L27.0713 51.3072L27.6222 52.3483L26.7625 52.571L26.2297 52.9982L26.2479 53.7083L25.5638 54.0694L25.7152 54.8276L24.9766 55.1827L25.4064 56.0492L24.8373 56.4825L24.8434 57.1505L24.91 57.8305L23.8808 58.1374L24.4922 58.9859L23.4328 59.3169L23.572 60.0089L23.4086 60.6107L23.1967 61.2004L23.6023 61.9286L23.6689 62.5665L22.6094 63.0057L22.5247 63.6256L22.4218 64.2514L22.7366 64.9194L22.5489 65.5272L23.1785 66.2012L23.1967 66.815L23.0211 67.4168L23.0756 68.0306L22.228 68.6444L22.3612 69.2823L22.5186 69.9141L23.1967 70.5099L22.2341 71.2079L22.2583 71.8519L23.0695 72.4055L23.4086 72.9952L22.8516 73.7113L23.4267 74.2529L23.2027 74.939L23.6265 75.4926L23.0938 76.2689L23.8445 76.7383L24.3046 77.2618L24.4256 77.8756L23.9898 78.67L24.1835 79.2778L24.5407 79.8254L24.3893 80.3549L24.7707 81.041L24.1956 81.4682L23.7415 81.9677L23.3541 82.5093L23.6083 83.2796L23.7779 83.9897L22.7366 84.3567L22.6639 85.0066L22.8334 85.6927L22.6518 86.3125L22.8153 86.9684L22.4944 87.5762L22.3309 88.2081L22.3491 88.852L22.9908 89.4598L22.8819 90.0796L22.6155 90.7235L22.3612 91.3975L22.8455 91.9572L22.8637 92.589L23.687 93.0283L23.7294 93.6421L23.4631 94.3703L23.2451 95.1165L23.8021 95.5798L24.4135 95.9951L24.014 96.8737L25.0432 97.0542L25.2732 97.6259L25.2672 98.348L26.0481 98.5947L25.8968 99.4312L26.3387 99.8886L27.2408 99.9909L27.3618 100.671L27.1621 101.646L28.276 101.513L28.052 102.548L28.5787 102.915L29.4263 102.964L29.6927 103.577L30.407 103.722L30.6613 104.354L31.0972 104.805L31.527 105.262L32.1385 105.491L32.7802 105.678L33.2585 106.063L33.4038 106.917L34.0455 107.098L34.8689 106.983L35.1655 107.657L35.5832 108.163L36.1584 108.422L36.7638 108.626L37.0362 109.409L37.9382 109.06L38.138 110.01L38.8948 109.92L39.3428 110.426L39.8453 110.817L40.4507 111.021L41.0016 111.322L41.8492 110.943L42.4243 111.184L42.9752 111.479L43.5503 111.707L43.9317 112.448L44.7854 111.936L45.4089 112.026L45.8024 112.791L46.2989 113.272L46.9769 113.206L47.6247 113.23L48.1332 113.693L48.8779 113.368L49.4409 113.663L49.9373 114.235L50.5851 114.217L51.1421 114.578L51.7354 114.801L52.4558 114.47L52.9886 114.951L53.6364 114.927L54.3447 114.554L54.8774 115.107H55.5071L56.173 114.903L56.6997 115.553L57.408 115.053L57.8923 116.076L58.6007 115.499L59.1758 115.938L59.8539 115.565L60.4835 115.523L61.0707 115.926L61.6882 116.088L62.3057 116.239L62.9777 115.529L63.5892 115.745L64.1825 116.413L64.8 116.66L65.4478 116.136L66.0653 116.486L66.707 115.739L67.3306 116.185L67.9602 115.685L68.5838 116.161L69.2073 116.052L69.837 116.311L70.4484 115.914L71.0901 116.299L71.6834 115.589L72.3191 115.836L72.9911 116.552L73.5784 115.95L74.214 116.058L74.7831 115.444L75.4914 116.287L76.0545 115.637L76.7022 115.818L77.2713 115.306L77.9857 115.962L78.585 115.727L79.1057 114.957L79.8443 115.643L80.4134 115.234L81.0914 115.469L81.6665 115.132L82.278 115.005L82.7502 114.205L83.5736 115.059L84.1124 114.584L84.5846 113.886L85.3837 114.506L85.7893 113.567L86.3947 113.422L87.1999 113.976L87.8174 113.838L88.4592 113.796L88.7861 112.748L89.5913 113.2L89.9787 112.381L90.5175 112.05L91.1593 111.996L91.801 111.93L92.4851 111.966L92.9936 111.557L93.4659 111.07L94.4103 111.689L94.5556 110.48L95.4758 110.979L95.8996 110.414L96.6019 110.426L96.9409 109.704L97.6552 109.728L98.2667 109.547L98.4302 108.554L99.0961 108.476L99.6712 108.223L100.089 107.718L100.525 107.26L101.306 107.314L101.572 106.61L102.408 106.725L103.049 106.544L103.655 106.303L103.806 105.479L104.357 105.172L104.617 104.516L105.628 104.733L105.834 104.023L106.173 103.475L106.869 103.295L106.821 102.38L107.808 102.452L108.335 102.073L108.026 100.996L109.164 101.116L109.57 100.629L109.297 99.6539L110.284 99.5816L109.903 98.5827L110.381 98.1615L110.92 97.7523L111.519 97.3671L111.925 96.8556L111.241 95.8567L111.949 95.4956L112.167 94.9119L112.687 94.4305L112.7 93.7805L112.827 93.1667L112.33 92.4205L113.359 91.9993L113.166 91.3313L113.269 90.7175L113.753 90.1278V89.4899L113.668 88.852L113.577 88.2081L113.638 87.5582L113.378 86.9384L112.887 86.3667L112.657 85.7709L112.336 85.2113L112.221 84.6095L112.469 83.8873L112.494 83.2194L112.1 82.6838L112.318 81.9075L111.906 81.384L111.422 80.9086L110.998 80.385L111.234 79.7772L111.416 79.1694L111.876 78.6519L112.197 78.0862L112.439 77.4905L112.7 76.8947L112.294 76.1425L112.512 75.5407L112.524 74.9028L113.226 74.3853L112.482 73.6211L112.566 73.0012L112.76 72.3934L113.263 71.8157L113.674 71.2079L113.39 70.552L112.784 69.8901L112.887 69.2702L112.736 68.6444Z" fill="url(#paint6_linear_1883_10909)"/>
<path d="M102.123 84.748L101.524 84.1462L101.79 83.6046L101.935 83.033L101.978 82.4372L102.704 81.9678L102.777 81.366L102.281 80.6981L102.838 80.1384L102.977 79.5186L103.201 78.8988L102.686 78.2428L102.813 77.623L102.965 77.0032L103.092 76.3713L102.946 75.7455L103.013 75.1136L103.116 74.4697L102.281 73.9221L102.274 73.3023L102.329 72.6704L102.716 71.9723L101.905 71.4849L102.105 70.8109L102.341 70.1068L101.457 69.6916L101.56 69.0176L101.59 68.3557L100.949 67.9164L101.445 67.0739L100.682 66.6948L100.277 66.1893V65.5153L99.9921 64.9616L100.143 64.1793L99.7984 63.6438L99.2293 63.2406L99.0659 62.6027L98.412 62.2777L98.3696 61.5436L97.5887 61.339L97.5402 60.5867L97.0438 60.1775L96.4747 59.8466L96.2447 59.2087L95.6938 58.8657L95.161 58.5227L94.7009 58.1074L94.4466 57.4274L93.5809 57.5237L93.1208 57.1085L92.6546 56.6933L92.1037 56.4104L91.6739 55.923L91.0927 55.6883L90.5478 55.3814L90.0393 54.9902L89.3249 55.0925L88.7074 54.9902L88.3442 54.0816H87.6843L87.097 53.7987L86.4008 54.0755L85.7651 54.1056L85.1416 54.2139L84.5422 54.1658L83.9429 53.889L83.3314 53.3113L82.7018 53.4076L82.0843 53.57L81.4365 53.4316L80.8069 53.5279L80.2015 53.7085L79.7232 54.4366L78.9725 53.9793L78.5064 54.5931L77.9978 54.9963L77.453 55.2731L76.678 54.9902L76.0303 55.0745L75.6125 55.6402L74.8618 55.5559L74.5652 56.2901L74.0809 56.6752L73.3907 56.7474L73.094 57.3913L72.5068 57.632L72.077 58.0773L71.6835 58.5588L71.0538 58.7694L70.8419 59.4434L70.4726 59.9308L70.0246 60.334L69.1952 60.4122L69.2013 61.2246L68.7836 61.6699L68.2024 61.9949L67.7847 62.2115L67.4698 61.9227L66.9795 61.5255L66.9068 60.7853L66.2651 60.5145L65.6294 60.2678L65.6173 59.4253L65.018 59.1485L64.346 58.962L63.904 58.5467L63.6437 57.9028L63.3107 57.3191L62.7235 57.0543L61.9546 57.0784L61.3492 56.8979L60.8286 56.5849L60.6046 55.7485L60.1445 55.2731L59.4059 55.3573L58.9518 54.8639L58.2011 55.0624L57.6986 54.6532L57.0932 54.5088L56.5665 54.0996L55.9975 53.7867L55.2649 54.232L54.7382 53.6663L54.1328 53.4677L53.4729 53.8108L52.8796 53.3293L52.244 53.3233L51.6325 54.0816L50.9847 53.3775L50.3854 53.7085L49.786 53.9371L49.1201 53.7746L48.4602 53.7085L47.8911 54.0936L47.3583 54.5028L46.8316 54.906L46.1899 54.9481L45.5603 55.0564L45.0094 55.3573L44.4827 55.7003L43.6472 55.4777L43.3021 56.1517L42.9268 56.7173L42.4667 57.1386L41.6494 57.0784L41.3527 57.7223L40.5173 57.7042L40.1661 58.2699L40.1298 59.1304L39.3489 59.2327L39.0885 59.8466L38.4468 60.1174L38.1925 60.7191L37.8172 61.2246L37.7566 61.9468L37.351 62.4101L36.4853 62.5967L36.4732 63.3248L36.2008 63.8845L36.1221 64.5404L35.8799 65.1121L35.0929 65.425L35.1837 66.1471L34.5722 66.5684L34.4511 67.1942L33.9002 67.6636L34.4875 68.5181L33.5673 68.8852L33.9305 69.6435L33.2524 70.1128L33.7186 70.8651L32.9679 71.3465L32.7863 71.9543L33.4886 72.7065L33.0284 73.2661L33.1193 73.904L32.6834 74.4878L32.7257 75.1196L33.198 75.7635L32.3625 76.3653L33.0345 76.9972L32.4775 77.629L32.9255 78.2428L32.8953 78.8627L32.7197 79.5066L33.095 80.0963L32.8105 80.7582L32.8408 81.36L33.2282 81.9076L32.9558 82.5576L33.2646 83.1112L33.7126 83.6167L33.2464 84.3448L33.761 84.8082L33.6823 85.5002L33.2282 85.9636L32.5502 86.3187L32.3928 86.9625L31.9508 87.4741L32.3383 88.3165L32.0598 88.8822L31.8721 89.478L31.6057 90.0557L31.5331 90.6875L31.1456 91.2773L31.5392 91.9392L31.3273 92.5591L31.0185 93.1909L31.0125 93.8228L31.5694 94.3704L31.8358 94.9361L31.969 95.5198L31.3696 96.3322L32.2354 96.6993L32.3746 97.295L32.1385 98.0773L32.9013 98.3903L32.8226 99.1365L33.0648 99.7262L33.876 99.9428L33.87 100.695L34.2271 101.213L34.6267 101.694L35.3532 101.887L35.8678 102.242L36.0494 102.922L36.3582 103.493L36.9938 103.722L37.1391 104.498L38.0593 104.366L38.356 104.992L38.8464 105.371L39.361 105.714L39.815 106.153L40.4023 106.394L40.9592 106.671L41.2983 107.321L42.1458 107.098L42.7331 107.303L43.1568 107.826L43.7017 108.121L44.3253 108.253L44.7672 108.771L45.1971 109.331H45.8812L46.4502 109.577L47.0314 109.788L47.54 110.203L48.2543 110.065L48.884 110.131L49.3804 110.606L49.8587 111.142L50.4701 111.292L51.2027 111.016L51.8686 110.937L52.4195 111.274L52.8796 111.978L53.6485 111.473L54.2115 111.768L54.72 112.369L55.4586 111.876L56.0762 111.936L56.6452 112.255L57.1719 112.857L57.8924 112.303L58.4009 113.098L59.0911 112.682L59.6904 112.911L60.32 112.875L60.9254 113.068L61.5611 112.977L62.1423 113.459L62.8082 112.995L63.3894 113.621L64.013 113.723L64.6547 113.399L65.2964 113.013L65.92 113.037L66.5375 113.248L67.1611 113.549L67.7847 113.447L68.4143 113.543L69.0257 112.989L69.6614 113.615L70.2668 113.08L70.8843 112.971L71.5382 113.513L72.1375 113.152L72.7611 113.17L73.4028 113.356L74.0203 113.242L74.6681 113.411L75.2251 112.809L75.8971 113.134L76.4238 112.424L77.0897 112.646L77.6709 112.327L78.2945 112.297L78.9725 112.556L79.6263 112.652L80.2136 112.388L80.7887 112.069L81.4244 112.039L82.0116 111.822L82.617 111.677L83.168 111.322L83.731 111.028L84.3909 111.058L84.9902 110.889L85.6441 110.895L86.1163 110.336L86.8367 110.516L87.4058 110.263L87.9567 109.956L88.5924 109.872L89.1736 109.631L89.6942 109.27L90.1604 108.789L90.8082 108.711L91.3106 108.326L92.134 108.584L92.6486 108.217L93.0179 107.591L93.7988 107.706L94.0289 106.857L94.7493 106.851L95.0399 106.153L95.5364 105.792L96.0207 105.407L96.5413 105.088L97.0983 104.805L97.5221 104.348L98.073 104.053L98.5997 103.716L99.3383 103.596L99.6047 102.97L100.15 102.633L100.591 102.187L101.015 101.718L101.481 101.291L101.397 100.454L101.645 99.8827L102.22 99.5276L102.716 99.1004L103.068 98.5768L103.237 97.969L103.679 97.4756L103.903 96.8858L103.994 96.254L103.588 95.5078L104.073 94.9963L104.194 94.3945L103.982 93.7566L104.514 93.1849L104.333 92.5591L104.508 91.9152L104.466 91.2713L103.982 90.6936L104.345 89.9774L104.278 89.3215L104.066 88.7077L103.83 88.0939L103.068 87.7148L102.783 87.1551L102.65 86.5172L102.45 85.9034L102.22 85.2896L102.123 84.748Z" fill="#F7F7F7"/>
<path d="M48.3692 60.2017C48.5024 60.2017 48.6417 60.2317 48.7749 60.2979C49.2228 60.5206 49.4045 61.0622 49.1805 61.5075C48.8414 62.1875 47.8365 63.8364 45.8144 64.5645C45.0274 64.8474 44.1919 64.9557 43.3383 64.8835C42.8358 64.8413 42.4665 64.402 42.5089 63.9086C42.5513 63.4091 42.9872 63.0481 43.4897 63.0842C44.083 63.1383 44.6581 63.0601 45.1969 62.8675C46.6015 62.3681 47.3158 61.1886 47.558 60.7071C47.7154 60.3882 48.0363 60.2077 48.3692 60.2077V60.2017Z" fill="#606060"/>
<path d="M88.1201 60.2017C87.9869 60.2017 87.8476 60.2317 87.7144 60.2979C87.2664 60.5206 87.0848 61.0622 87.3088 61.5075C87.6479 62.1875 88.6528 63.8364 90.6749 64.5645C91.4619 64.8474 92.2973 64.9557 93.151 64.8835C93.6535 64.8413 94.0228 64.402 93.9804 63.9086C93.938 63.4091 93.5021 63.0481 92.9996 63.0842C92.4063 63.1383 91.8312 63.0601 91.2924 62.8675C89.8878 62.3681 89.1735 61.1886 88.9313 60.7071C88.7739 60.3882 88.453 60.2077 88.1201 60.2077V60.2017Z" fill="#606060"/>
<path d="M51.8201 89.857C54.5417 89.857 56.7481 86.9634 56.7481 83.394C56.7481 79.8245 54.5417 76.9309 51.8201 76.9309C49.0984 76.9309 46.8921 79.8245 46.8921 83.394C46.8921 86.9634 49.0984 89.857 51.8201 89.857Z" fill="#606060"/>
<path d="M52.6373 82.8344C53.4096 82.8344 54.0357 82.0854 54.0357 81.1615C54.0357 80.2375 53.4096 79.4885 52.6373 79.4885C51.8649 79.4885 51.2388 80.2375 51.2388 81.1615C51.2388 82.0854 51.8649 82.8344 52.6373 82.8344Z" fill="white"/>
<path d="M82.8772 89.857C85.5989 89.857 87.8052 86.9634 87.8052 83.394C87.8052 79.8245 85.5989 76.9309 82.8772 76.9309C80.1556 76.9309 77.9492 79.8245 77.9492 83.394C77.9492 86.9634 80.1556 89.857 82.8772 89.857Z" fill="#606060"/>
<path d="M83.7005 82.8344C84.4728 82.8344 85.099 82.0854 85.099 81.1615C85.099 80.2375 84.4728 79.4885 83.7005 79.4885C82.9281 79.4885 82.302 80.2375 82.302 81.1615C82.302 82.0854 82.9281 82.8344 83.7005 82.8344Z" fill="white"/>
<rect x="13.0439" y="63.6738" width="59.1358" height="56.3262" fill="url(#pattern0_1883_10909)"/>
<rect x="63.8979" y="63.0962" width="58.4093" height="56.7594" fill="url(#pattern1_1883_10909)"/>
<path d="M66.5131 92.902C68.4156 92.902 69.9579 91.5845 69.9579 89.9593C69.9579 88.3341 68.4156 87.0166 66.5131 87.0166C64.6106 87.0166 63.0684 88.3341 63.0684 89.9593C63.0684 91.5845 64.6106 92.902 66.5131 92.902Z" fill="#606060"/>
<path d="M62.3722 100.135C62.233 100.135 62.0937 100.099 61.9727 100.021C61.6215 99.7984 61.5126 99.335 61.7305 98.986C62.9655 97.0182 65.1995 95.9049 67.4334 96.1335C70.1456 96.4164 71.5925 98.5226 71.8528 98.9438C72.0768 99.2989 71.9679 99.7622 71.6107 99.9789C71.2535 100.202 70.7873 100.093 70.5694 99.7382C70.3696 99.4253 69.2859 97.8366 67.276 97.632C65.6232 97.4635 63.9463 98.306 63.014 99.7863C62.8687 100.015 62.6265 100.141 62.3722 100.141V100.135Z" fill="#606060"/>
<path d="M87.2119 91.6745C89.1444 91.6745 90.7111 90.4352 90.7111 88.9064C90.7111 87.3775 89.1444 86.1382 87.2119 86.1382C85.2793 86.1382 83.7126 87.3775 83.7126 88.9064C83.7126 90.4352 85.2793 91.6745 87.2119 91.6745Z" fill="#EDEDED"/>
</g>
<defs>
<pattern id="pattern0_1883_10909" patternContentUnits="objectBoundingBox" width="1" height="1">
<use xlink:href="#image0_1883_10909" transform="scale(0.00248139 0.00259067)"/>
</pattern>
<pattern id="pattern1_1883_10909" patternContentUnits="objectBoundingBox" width="1" height="1">
<use xlink:href="#image1_1883_10909" transform="scale(0.00251256 0.0025641)"/>
</pattern>
<linearGradient id="paint0_linear_1883_10909" x1="93.5384" y1="4.96454" x2="117.843" y2="55.4538" gradientUnits="userSpaceOnUse">
<stop stop-color="#E2E2E2"/>
<stop offset="0.04" stop-color="#D2D2D2"/>
<stop offset="0.09" stop-color="#C1C1C1"/>
<stop offset="0.16" stop-color="#B5B5B5"/>
<stop offset="0.25" stop-color="#AEAEAE"/>
<stop offset="0.52" stop-color="#ADADAD"/>
<stop offset="0.63" stop-color="#A8A8A8"/>
<stop offset="0.75" stop-color="#9B9B9B"/>
</linearGradient>
<linearGradient id="paint1_linear_1883_10909" x1="98.2242" y1="43.1172" x2="117.022" y2="14.8136" gradientUnits="userSpaceOnUse">
<stop offset="0.00961538" stop-color="#C4C4C4"/>
<stop offset="0.34" stop-color="#DBDBDB"/>
<stop offset="0.51" stop-color="#EAEAEA"/>
<stop offset="0.7" stop-color="#F4F4F4"/>
<stop offset="0.97" stop-color="#F7F7F7"/>
</linearGradient>
<linearGradient id="paint2_linear_1883_10909" x1="92.8907" y1="39.4764" x2="107.429" y2="18.4647" gradientUnits="userSpaceOnUse">
<stop offset="0.27" stop-color="#797979"/>
<stop offset="0.48" stop-color="#8B8B8B"/>
<stop offset="0.71" stop-color="#959595"/>
<stop offset="0.97" stop-color="#999999"/>
</linearGradient>
<linearGradient id="paint3_linear_1883_10909" x1="12.9713" y1="6.90236" x2="41.7564" y2="51.2191" gradientUnits="userSpaceOnUse">
<stop stop-color="#E2E2E2"/>
<stop offset="0.04" stop-color="#D2D2D2"/>
<stop offset="0.09" stop-color="#C1C1C1"/>
<stop offset="0.16" stop-color="#B5B5B5"/>
<stop offset="0.25" stop-color="#AEAEAE"/>
<stop offset="0.52" stop-color="#ADADAD"/>
<stop offset="0.63" stop-color="#A8A8A8"/>
<stop offset="0.75" stop-color="#9B9B9B"/>
</linearGradient>
<linearGradient id="paint4_linear_1883_10909" x1="36.703" y1="42.7742" x2="19.3233" y2="16.1882" gradientUnits="userSpaceOnUse">
<stop offset="0.0576923" stop-color="#C4C4C4"/>
<stop offset="0.34" stop-color="#DBDBDB"/>
<stop offset="0.51" stop-color="#EAEAEA"/>
<stop offset="0.7" stop-color="#F4F4F4"/>
<stop offset="0.97" stop-color="#F7F7F7"/>
</linearGradient>
<linearGradient id="paint5_linear_1883_10909" x1="41.7583" y1="39.308" x2="28.0971" y2="17.636" gradientUnits="userSpaceOnUse">
<stop offset="0.27" stop-color="#797979"/>
<stop offset="0.48" stop-color="#8B8B8B"/>
<stop offset="0.71" stop-color="#959595"/>
<stop offset="0.97" stop-color="#999999"/>
</linearGradient>
<linearGradient id="paint6_linear_1883_10909" x1="46.541" y1="36.2268" x2="88.3219" y2="116.98" gradientUnits="userSpaceOnUse">
<stop stop-color="#E2E2E2"/>
<stop offset="0.04" stop-color="#D2D2D2"/>
<stop offset="0.09" stop-color="#C1C1C1"/>
<stop offset="0.16" stop-color="#B5B5B5"/>
<stop offset="0.25" stop-color="#AEAEAE"/>
<stop offset="0.52" stop-color="#ADADAD"/>
<stop offset="0.63" stop-color="#A8A8A8"/>
<stop offset="0.75" stop-color="#9B9B9B"/>
</linearGradient>
<clipPath id="clip0_1883_10909">
<rect width="134" height="120" fill="white" transform="translate(0.5)"/>
</clipPath>
</defs>
</svg>
