<svg xmlns="http://www.w3.org/2000/svg" width="24" height="24" viewBox="0 0 24 24" fill="none">
  <g clip-path="url(#clip0_1642_4946)">
    <path fill-rule="evenodd" clip-rule="evenodd" d="M19.9412 3.99817C20.2331 4.29002 20.2331 4.76321 19.9412 5.05506L5.055 19.9413C4.76315 20.2331 4.28996 20.2331 3.99811 19.9413C3.70626 19.6494 3.70626 19.1762 3.99811 18.8844L18.8843 3.99817C19.1762 3.70632 19.6494 3.70632 19.9412 3.99817Z" fill="#616161"/>
    <path fill-rule="evenodd" clip-rule="evenodd" d="M19.9412 19.9413C19.6494 20.2331 19.1762 20.2331 18.8843 19.9413L3.99811 5.05506C3.70626 4.76321 3.70626 4.29002 3.99811 3.99817C4.28996 3.70632 4.76315 3.70632 5.055 3.99817L19.9412 18.8844C20.2331 19.1762 20.2331 19.6494 19.9412 19.9413Z" fill="#616161"/>
  </g>
  <defs>
    <clipPath id="clip0_1642_4946">
      <rect width="24" height="24" fill="white"/>
    </clipPath>
  </defs>
</svg>