<svg xmlns="http://www.w3.org/2000/svg" width="20" height="20" viewBox="0 0 20 20" fill="none">
  <path d="M5.58077 19.4673C6.03454 19.4673 6.34312 19.2283 6.88749 18.7326L10.0275 15.9135H15.844C18.5481 15.9135 20 14.3983 20 11.7073V4.67305C20 1.98244 18.5481 0.467285 15.844 0.467285H4.15595C1.46121 0.467285 0 1.97343 0 4.67305V11.7073C0 14.4074 1.46082 15.9135 4.15595 15.9135H4.59153V18.3008C4.59153 19.0081 4.9547 19.4673 5.58077 19.4673ZM5.95245 17.7868V15.1236C5.95245 14.628 5.77126 14.4348 5.27219 14.4348H4.16486C2.32306 14.4348 1.46082 13.4889 1.46082 11.6983V4.67305C1.46082 2.88245 2.32306 1.946 4.16525 1.946H15.844C17.6769 1.946 18.5388 2.88245 18.5388 4.67305V11.6983C18.5388 13.4889 17.6769 14.4348 15.844 14.4348H9.96361C9.46454 14.4348 9.20164 14.5084 8.85628 14.8666L5.95245 17.7868ZM5.38098 5.85791H14.619C14.9094 5.85791 15.1456 5.6283 15.1456 5.32504C15.1456 5.03117 14.9094 4.80157 14.619 4.80157H5.38098C5.31282 4.80073 5.24519 4.81369 5.18205 4.8397C5.11892 4.86571 5.06156 4.90424 5.01337 4.95301C4.96517 5.00179 4.9271 5.05983 4.9014 5.12372C4.87569 5.18761 4.86288 5.25606 4.86371 5.32504C4.86371 5.6283 5.0906 5.85791 5.38098 5.85791ZM5.38098 8.84238H14.619C14.9094 8.84238 15.1456 8.61277 15.1456 8.30951C15.1456 8.02505 14.9094 7.77703 14.619 7.77703H5.38098C5.0906 7.77703 4.86371 8.02505 4.86371 8.3099C4.86371 8.61277 5.0906 8.84238 5.38098 8.84238ZM5.38098 11.8359H11.3884C11.6788 11.8359 11.915 11.6066 11.915 11.3128C11.915 11.0095 11.6788 10.7709 11.3884 10.7709H5.38098C5.0906 10.7709 4.86371 11.0099 4.86371 11.3128C4.86371 11.6066 5.0906 11.8359 5.38098 11.8359Z" fill="#029F64"/>
</svg>