<svg xmlns="http://www.w3.org/2000/svg" width="17" height="23" viewBox="0 0 17 23" fill="none">
  <path d="M16 11.4673H8.5M8.5 11.4673L11.7143 14.8006M8.5 11.4673L11.7143 8.13395M16 4.80062V3.68951C16 3.10014 15.7742 2.53491 15.3724 2.11816C14.9705 1.70141 14.4255 1.46729 13.8571 1.46729H3.14286C2.57454 1.46729 2.02949 1.70141 1.62763 2.11816C1.22576 2.53491 1 3.10014 1 3.68951V19.2451C1 19.8344 1.22576 20.3997 1.62763 20.8164C2.02949 21.2332 2.57454 21.4673 3.14286 21.4673H13.8571C14.4255 21.4673 14.9705 21.2332 15.3724 20.8164C15.7742 20.3997 16 19.8344 16 19.2451V18.134" stroke="#919191" stroke-width="1.5" stroke-linecap="round" stroke-linejoin="round"/>
</svg>