<svg xmlns="http://www.w3.org/2000/svg" width="20" height="20" viewBox="0 0 20 20" fill="none">
  <path d="M1.42857 18.7H6.70286V12.1001C6.70286 11.8028 6.81381 11.5537 7.03571 11.3526C7.25667 11.1507 7.53048 11.0497 7.85714 11.0497H12.1429C12.4695 11.0497 12.7438 11.1507 12.9657 11.3526C13.1867 11.5537 13.2971 11.8028 13.2971 12.1001V18.7H18.5714V7.40071C18.5714 7.26725 18.5395 7.14592 18.4757 7.03672C18.4119 6.92753 18.3248 6.8322 18.2143 6.75073L10.5229 1.47546C10.3762 1.35933 10.2019 1.30127 10 1.30127C9.7981 1.30127 9.62429 1.35933 9.47857 1.47546L1.78571 6.75073C1.67619 6.83393 1.58905 6.92926 1.52429 7.03672C1.45952 7.14419 1.42762 7.26552 1.42857 7.40071V18.7ZM0 18.7V7.40071C0 7.06792 0.0819047 6.7529 0.245714 6.45564C0.409524 6.15838 0.635238 5.91355 0.922857 5.72116L8.61572 0.41989C9.01857 0.139964 9.47857 0 9.99571 0C10.5129 0 10.9757 0.139964 11.3843 0.41989L19.0771 5.71986C19.3657 5.91225 19.5914 6.15751 19.7543 6.45564C19.9181 6.7529 20 7.06792 20 7.40071V18.7C20 19.0484 19.8576 19.3522 19.5729 19.6113C19.2881 19.8704 18.9543 20 18.5714 20H13.0229C12.6952 20 12.421 19.8995 12.2 19.6984C11.979 19.4965 11.8686 19.2469 11.8686 18.9496V12.351H8.13143V18.9496C8.13143 19.2478 8.02095 19.4973 7.8 19.6984C7.57905 19.8995 7.30524 20 6.97857 20H1.42857C1.04571 20 0.711904 19.8704 0.427143 19.6113C0.142381 19.3522 0 19.0484 0 18.7Z" fill="#029F64"/>
</svg>