<svg xmlns="http://www.w3.org/2000/svg" width="18" height="19" viewBox="0 0 18 19" fill="none">
  <path d="M16 17.9673C16.2652 17.9673 16.5196 17.8649 16.7071 17.6828C16.8946 17.5006 17 17.2535 17 16.9959V15.7855C17.004 13.0596 13.026 10.9244 9 10.9244C4.974 10.9244 1 13.0596 1 15.7855V16.9959C1 17.2535 1.10536 17.5006 1.29289 17.6828C1.48043 17.8649 1.73478 17.9673 2 17.9673H16ZM12.604 4.46831C12.604 4.92808 12.5108 5.38334 12.3297 5.8081C12.1485 6.23286 11.8831 6.61881 11.5484 6.94391C11.2137 7.26901 10.8164 7.5269 10.3792 7.70284C9.94193 7.87879 9.47328 7.96934 9 7.96934C8.52671 7.96934 8.05806 7.87879 7.62081 7.70284C7.18355 7.5269 6.78625 7.26901 6.45159 6.94391C6.11692 6.61881 5.85145 6.23286 5.67034 5.8081C5.48922 5.38334 5.396 4.92808 5.396 4.46831C5.396 3.53978 5.7757 2.64928 6.45159 1.99271C7.12747 1.33614 8.04416 0.967285 9 0.967285C9.95584 0.967285 10.8725 1.33614 11.5484 1.99271C12.2243 2.64928 12.604 3.53978 12.604 4.46831Z" stroke="#919191" stroke-width="1.5" stroke-linecap="round" stroke-linejoin="round"/>
</svg>