<svg xmlns="http://www.w3.org/2000/svg" width="20" height="24" viewBox="0 0 20 24" fill="none">
  <path fill-rule="evenodd" clip-rule="evenodd" d="M9.99858 9.95589C10.753 9.95589 11.4765 9.6562 12.01 9.12275C12.5434 8.5893 12.8431 7.86578 12.8431 7.11137C12.8431 6.35695 12.5434 5.63344 12.01 5.09999C11.4765 4.56654 10.753 4.26685 9.99858 4.26685C9.24417 4.26685 8.52065 4.56654 7.9872 5.09999C7.45375 5.63344 7.15406 6.35695 7.15406 7.11137C7.15406 7.86578 7.45375 8.5893 7.9872 9.12275C8.52065 9.6562 9.24417 9.95589 9.99858 9.95589ZM9.99858 5.68911C10.3758 5.68911 10.7375 5.83895 11.0043 6.10568C11.271 6.3724 11.4208 6.73416 11.4208 7.11137C11.4208 7.48858 11.271 7.85033 11.0043 8.11706C10.7375 8.38378 10.3758 8.53363 9.99858 8.53363C9.62138 8.53363 9.25962 8.38378 8.99289 8.11706C8.72617 7.85033 8.57632 7.48858 8.57632 7.11137C8.57632 6.73416 8.72617 6.3724 8.99289 6.10568C9.25962 5.83895 9.62138 5.68911 9.99858 5.68911Z" fill="#029F64"/>
  <path fill-rule="evenodd" clip-rule="evenodd" d="M3.59841 6.80694C3.59841 10.6086 7.37167 17.0671 9.99858 17.0671C12.6269 17.0671 16.3988 10.6086 16.3988 6.80694C16.3988 3.05786 13.5443 0 9.99858 0C6.45288 0 3.59841 3.05786 3.59841 6.80694ZM14.9765 6.80694C14.9765 9.92596 11.637 15.6449 9.99858 15.6449C8.36156 15.6449 5.02067 9.92738 5.02067 6.80694C5.02067 3.82162 7.26073 1.42226 9.99858 1.42226C12.7364 1.42226 14.9765 3.82162 14.9765 6.80694Z" fill="#029F64"/>
  <path d="M14.884 10.8659C14.714 10.7927 14.5792 10.6561 14.5083 10.4851C14.4373 10.3141 14.4359 10.1222 14.5042 9.95016C14.5726 9.77811 14.7053 9.63949 14.8742 9.56376C15.0431 9.48803 15.2349 9.48116 15.4089 9.54461C15.9872 9.774 16.5084 10.1271 16.9359 10.5792C17.3634 11.0312 17.6868 11.5713 17.8836 12.1616L19.7809 17.8506C19.9948 18.4923 20.0532 19.1756 19.9511 19.8442C19.8491 20.5128 19.5895 21.1476 19.1939 21.6962C18.7983 22.2448 18.2779 22.6914 17.6757 22.9993C17.0734 23.3073 16.4067 23.4676 15.7303 23.4671H4.26686C3.59074 23.4671 2.92429 23.3065 2.32244 22.9984C1.7206 22.6903 1.20059 22.2435 0.805274 21.695C0.409961 21.1465 0.150662 20.5119 0.0487492 19.8435C-0.0531639 19.1751 0.00522658 18.492 0.219108 17.8506L2.11498 12.1616C2.31517 11.5607 2.6466 11.012 3.08522 10.5552C3.52385 10.0983 4.05867 9.74488 4.65087 9.52043C4.73819 9.48728 4.83118 9.47165 4.92454 9.47444C5.0179 9.47722 5.10979 9.49837 5.19498 9.53667C5.28016 9.57497 5.35697 9.62967 5.42101 9.69766C5.48505 9.76564 5.53508 9.84557 5.56823 9.93289C5.60139 10.0202 5.61701 10.1132 5.61423 10.2066C5.61144 10.2999 5.5903 10.3918 5.552 10.477C5.5137 10.5622 5.45899 10.639 5.39101 10.703C5.32303 10.7671 5.24309 10.8171 5.15578 10.8502C4.76047 10.9998 4.40346 11.2355 4.11069 11.5404C3.81792 11.8452 3.59676 12.2114 3.46329 12.6124L1.56741 18.3015C1.42498 18.7291 1.38621 19.1845 1.45429 19.63C1.52237 20.0755 1.69535 20.4985 1.95898 20.8641C2.22261 21.2297 2.56934 21.5274 2.97059 21.7327C3.37185 21.938 3.81614 22.045 4.26686 22.0449H15.7331C16.1839 22.0448 16.6282 21.9377 17.0294 21.7322C17.4306 21.5267 17.7773 21.2289 18.0408 20.8631C18.3043 20.4974 18.4771 20.0743 18.545 19.6287C18.6128 19.183 18.5738 18.7276 18.4312 18.3001L16.5367 12.611C16.4054 12.2177 16.1897 11.8578 15.9047 11.5566C15.6198 11.2554 15.2724 11.0201 14.8869 10.8673" fill="#029F64"/>
</svg>