<svg xmlns="http://www.w3.org/2000/svg" width="22" height="23" viewBox="0 0 22 23" fill="none">
  <path d="M19.9474 10.941L10.4737 1.46729L1 10.941H3.10526V18.3094C3.10526 18.8677 3.32707 19.4032 3.72188 19.798C4.11669 20.1928 4.65218 20.4147 5.21053 20.4147H10.1579" stroke="#029F64" stroke-width="1.5" stroke-linecap="round" stroke-linejoin="round"/>
  <path d="M7.31579 20.4147V14.0989C7.31579 13.5406 7.53759 13.0051 7.93241 12.6103C8.32722 12.2155 8.8627 11.9937 9.42105 11.9937H11.5263M19.1053 19.5726L21 21.4673M13.6316 17.2568C13.6316 18.0943 13.9643 18.8976 14.5565 19.4898C15.1487 20.082 15.9519 20.4147 16.7895 20.4147C17.627 20.4147 18.4302 20.082 19.0224 19.4898C19.6147 18.8976 19.9474 18.0943 19.9474 17.2568C19.9474 16.4193 19.6147 15.6161 19.0224 15.0238C18.4302 14.4316 17.627 14.0989 16.7895 14.0989C15.9519 14.0989 15.1487 14.4316 14.5565 15.0238C13.9643 15.6161 13.6316 16.4193 13.6316 17.2568Z" stroke="#029F64" stroke-width="1.5" stroke-linecap="round" stroke-linejoin="round"/>
</svg>