<svg width="57" height="40" viewBox="0 0 57 40" fill="none" xmlns="http://www.w3.org/2000/svg">
<path d="M57 35.9779C57 38.2004 55.1788 40 52.9296 40H4.07041C1.82122 40 0 38.2004 0 35.9779V4.02208C0 1.7996 1.82122 0 4.07041 0H52.9248C55.174 0 56.9952 1.7996 56.9952 4.02208V35.9779H57Z" fill="url(#paint0_linear_910_4151)"/>
<path d="M57 9.14355H0V17.6482H57V9.14355Z" fill="#424242"/>
<path d="M14.1675 23.9634H8.65723C7.55266 23.9634 6.65723 24.8588 6.65723 25.9634V31.3608C6.65723 32.4653 7.55266 33.3608 8.65723 33.3608H14.1675C15.2721 33.3608 16.1675 32.4653 16.1675 31.3608V25.9634C16.1675 24.8588 15.2721 23.9634 14.1675 23.9634Z" fill="#424242"/>
<defs>
<linearGradient id="paint0_linear_910_4151" x1="28.5" y1="0" x2="28.5" y2="40" gradientUnits="userSpaceOnUse">
<stop stop-color="#FFED98"/>
<stop offset="1" stop-color="#FFDC36"/>
</linearGradient>
</defs>
</svg>
