<svg width="37" height="37" viewBox="0 0 37 37" fill="none" xmlns="http://www.w3.org/2000/svg">
<path d="M18.15 36.3C28.174 36.3 36.3 28.174 36.3 18.15C36.3 8.12603 28.174 0 18.15 0C8.12603 0 0 8.12603 0 18.15C0 28.174 8.12603 36.3 18.15 36.3Z" fill="#E6E6E6"/>
<path d="M24.3265 23.9075C20.828 27.7488 16.6031 29.0684 14.3167 29.5134C10.9921 30.163 7.76457 27.9943 7.11498 24.6696C6.46539 21.3449 8.6341 18.1174 11.9588 17.4679C12.6032 17.34 14.2298 16.8899 15.4471 15.4117C16.4292 14.2148 16.6849 12.8952 16.7514 12.2149C17.0788 8.83906 20.0812 6.37369 23.457 6.70104C26.8328 7.0284 29.2982 10.0308 28.9708 13.4066C28.7253 15.9283 27.8251 19.6775 24.9352 23.1965C24.7357 23.442 24.526 23.6824 24.3214 23.9075H24.3265Z" fill="#C3C3C3"/>
<path d="M17.5237 12.097C17.3089 11.9026 17.0838 11.7389 16.8485 11.5957C16.8076 11.8003 16.7769 12.0049 16.7564 12.2146C16.69 12.8949 16.4342 14.2145 15.4522 15.4114C14.2348 16.8896 12.6083 17.3448 11.9638 17.4676C11.7643 17.5085 11.5648 17.5545 11.3705 17.6159C11.5342 17.841 11.7183 18.0507 11.9331 18.2399C13.6313 19.7846 16.2552 19.6619 17.7999 17.9637C19.3446 16.2656 19.2218 13.6417 17.5237 12.097Z" fill="#919191"/>
</svg>
