<svg xmlns="http://www.w3.org/2000/svg" width="56" height="47" viewBox="0 0 56 47" fill="none">
  <g clip-path="url(#clip0_1220_3134)">
    <path d="M49.3763 17.5549L55.3414 24.6379C56.2113 25.6706 55.8435 26.5179 54.5232 26.5179H50.0002C50.0044 26.5776 50.0085 26.6354 50.0085 26.6972V44.5036C50.0085 45.8765 48.6861 47.002 47.0704 47.002H20.377C18.7612 47.002 17.4388 45.8786 17.4388 44.5036V26.6972C17.4388 26.6374 17.443 26.5776 17.4471 26.5179H12.8084C11.4881 26.5179 11.1183 25.6727 11.9902 24.6379L32.0821 0.775061C32.9519 -0.257703 34.3756 -0.257703 35.2454 0.775061L41.0721 7.69519L49.3742 17.5528L49.3763 17.5549Z" fill="#65CE58"/>
    <path d="M17.4388 26.6952C17.4388 26.6354 17.443 26.5756 17.4471 26.5158H12.8085C11.4882 26.5158 11.1183 25.6706 11.9902 24.6358L25.2161 8.93205L20.9287 3.85481C20.0588 2.82411 18.6352 2.82411 17.7653 3.85481L0.471119 24.3843C-0.398756 25.415 -0.0309706 26.2581 1.28934 26.2581H8.84341C8.83928 26.3179 8.83721 26.3757 8.83721 26.4354V39.4924C8.83721 40.8611 9.91784 41.9825 11.2381 41.9825H17.4388V26.6952Z" fill="#07A439"/>
    <path d="M43.6839 25.7077C42.0309 23.4999 38.8944 23.0464 36.6815 24.6955C36.6257 24.7368 36.5616 24.7821 36.4914 24.8295C35.9955 25.1614 35.1421 25.6026 34.0388 25.6603C32.4788 25.7366 31.3135 25.0068 30.8837 24.6894C30.8775 24.6852 30.8713 24.6811 30.8651 24.677C28.648 23.0464 25.526 23.5123 23.8834 25.7201C22.2345 27.934 22.6974 31.0612 24.9165 32.7041C26.4393 33.8337 29.551 35.6519 33.7888 35.6519C34.0409 35.6519 34.2971 35.6457 34.5553 35.6334C38.2621 35.4416 41.0143 33.9306 42.6714 32.6979C44.8843 31.0488 45.3389 27.9196 43.6859 25.7118L43.6839 25.7077Z" fill="white"/>
  </g>
  <defs>
    <clipPath id="clip0_1220_3134">
      <rect width="55.8125" height="47" fill="white"/>
    </clipPath>
  </defs>
</svg>