<svg xmlns="http://www.w3.org/2000/svg" width="53" height="53" viewBox="0 0 53 53" fill="none">
  <g clip-path="url(#clip0_468_1183)">
    <path d="M39.6042 17.1445C39.3974 17.1445 39.1906 17.1102 38.9838 17.0277L10.6678 6.13772C9.77865 5.79418 9.33751 4.80481 9.68215 3.91849C10.0268 3.03217 11.0194 2.59245 11.9086 2.93599L40.2246 13.826C41.1137 14.1695 41.5549 15.1589 41.2102 16.0452C40.9483 16.7254 40.2935 17.1445 39.6042 17.1445Z" fill="#B75800"/>
    <path d="M38.4944 20.8203C38.3359 20.8203 38.1773 20.7997 38.0119 20.7516L8.86183 12.3419C7.94508 12.0809 7.42122 11.1258 7.68315 10.212C7.94508 9.29823 8.90319 8.77606 9.81995 9.03715L38.97 17.4468C39.8868 17.7079 40.4106 18.663 40.1487 19.5767C39.9281 20.3257 39.2388 20.8203 38.4944 20.8203Z" fill="#B75800"/>
    <path d="M11.3433 4.55059C11.6191 3.77421 12.3566 3.32761 13.1148 3.39632L11.9086 2.93599C11.0194 2.59245 10.0199 3.03217 9.68215 3.91849C9.33751 4.80481 9.77865 5.80105 10.6678 6.13772L12.0051 6.65302C11.3571 6.20642 11.0607 5.34072 11.3433 4.55059Z" fill="#823813"/>
    <path d="M10.5988 12.8365C9.68209 12.5686 9.15133 11.593 9.41326 10.6517C9.62005 9.90964 10.2611 9.42182 10.9711 9.3806L9.81995 9.05081C8.90319 8.78285 7.95197 9.31189 7.68315 10.2257C7.42122 11.1395 7.94508 12.0876 8.86183 12.3556L13.0182 13.558L10.5988 12.8503V12.8365Z" fill="#823813"/>
    <path d="M31.243 46.173C31.243 46.173 31.2292 46.173 31.2154 46.173C30.6433 46.1593 30.1953 45.6852 30.2091 45.115L30.9397 14.8703C30.9535 14.3 31.4498 13.8603 32.0012 13.8672C32.5733 13.8809 33.0214 14.355 33.0076 14.9253L32.2769 45.1699C32.2631 45.7333 31.8013 46.173 31.243 46.173Z" fill="#FFB355"/>
    <path d="M28.7342 46.173C28.7342 46.173 28.7204 46.173 28.7066 46.173C28.1345 46.1593 27.6865 45.6852 27.7003 45.115L28.4309 14.8703C28.4447 14.3 28.9272 13.8603 29.4924 13.8672C30.0645 13.8809 30.5126 14.355 30.4988 14.9253L29.7681 45.1699C29.7543 45.7333 29.2925 46.173 28.7342 46.173Z" fill="#FFB355"/>
    <path d="M36.2542 46.173C36.2542 46.173 36.2404 46.173 36.2266 46.173C35.6545 46.1593 35.2065 45.6852 35.2203 45.115L35.9509 14.8703C35.9647 14.3 36.4541 13.8603 37.0124 13.8672C37.5845 13.8809 38.0326 14.355 38.0188 14.9253L37.2881 45.1699C37.2744 45.7333 36.8125 46.173 36.2542 46.173Z" fill="#FFB355"/>
    <path d="M33.7452 46.173C33.7452 46.173 33.7314 46.173 33.7176 46.173C33.1455 46.1593 32.6975 45.6852 32.7112 45.115L33.4419 14.8703C33.4557 14.3 33.9451 13.8603 34.5034 13.8672C35.0755 13.8809 35.5235 14.355 35.5098 14.9253L34.7791 45.1699C34.7653 45.7333 34.3035 46.173 33.7452 46.173Z" fill="#FFB355"/>
    <path fill-rule="evenodd" clip-rule="evenodd" d="M52.5 28.6779H0.5C2.20254 37.8021 8.10976 45.3324 16.0021 48.9326V53H36.9979V48.9326C44.8902 45.3324 50.7975 37.8021 52.5 28.6779Z" fill="#A6DA49"/>
    <path fill-rule="evenodd" clip-rule="evenodd" d="M8.86108 28.6779H0.5C2.20255 37.8021 8.10976 45.3323 16.0021 48.9326V53H24.3632V48.9326C16.4708 45.3323 10.5636 37.8021 8.86108 28.6779Z" fill="#A4C055"/>
    <path fill-rule="evenodd" clip-rule="evenodd" d="M14.5348 13.9771L15.4033 10.6585L14.5072 10.3975L13.6318 13.7229L14.5348 13.9771Z" fill="#A6DA49"/>
    <path fill-rule="evenodd" clip-rule="evenodd" d="M15.1689 7.86905L16.0512 8.21258L16.9266 4.86657L16.0512 4.52991L15.1689 7.86905Z" fill="#A6DA49"/>
  </g>
  <defs>
    <clipPath id="clip0_468_1183">
      <rect width="52" height="53" fill="white" transform="translate(0.5)"/>
    </clipPath>
  </defs>
</svg>