<svg xmlns="http://www.w3.org/2000/svg" width="52" height="53" viewBox="0 0 52 53" fill="none">
  <g clip-path="url(#clip0_468_1171)">
    <path d="M26 53C40.0833 53 51.5 41.1355 51.5 26.5C51.5 11.8645 40.0833 0 26 0C11.9167 0 0.5 11.8645 0.5 26.5C0.5 41.1355 11.9167 53 26 53Z" fill="#C84E3F"/>
    <path d="M25.9421 49.3176C38.1004 49.3176 47.9566 39.0748 47.9566 26.4397C47.9566 13.8046 38.1004 3.56183 25.9421 3.56183C13.7838 3.56183 3.92749 13.8046 3.92749 26.4397C3.92749 39.0748 13.7838 49.3176 25.9421 49.3176Z" fill="#F68D77"/>
    <path d="M40.2999 24.1785C40.4188 23.0923 40.3054 21.9438 39.8933 20.7756C37.9796 15.3388 31.7627 13.9753 27.855 17.763C25.7449 16.4561 23.35 15.6414 20.8693 15.8932C17.5258 16.2298 14.8046 18.5126 12.8687 21.1857C10.6812 24.204 8.9223 28.3481 10.1115 32.1329C11.06 35.1568 13.7868 37.5188 16.9755 37.2755C18.1536 37.185 18.1619 35.2954 16.9755 35.3859C14.5031 35.5754 12.4705 33.7537 11.8123 31.3748C11.0794 28.7186 12.1441 25.8701 13.4882 23.6156C16.132 19.1773 20.5734 16.309 25.6011 18.6597C25.9551 18.8238 26.3063 19.0104 26.6576 19.2113C25.9053 20.3399 25.4352 21.5902 25.2112 22.8971C22.2632 25.6834 20.6868 30.0764 21.6188 34.1158C22.9407 39.844 29.8103 41.1565 33.5575 37.1058C37.7362 37.7677 41.8873 34.3166 41.8928 29.4032C41.8928 27.4061 41.301 25.6353 40.3054 24.1813L40.2999 24.1785ZM31.1432 31.9179C32.125 31.9151 33.0957 31.7425 34.0221 31.4342C33.8451 32.7099 33.3722 33.9744 32.667 35.0295C29.058 33.4765 26.7461 27.8502 26.8816 24.385C26.8871 24.2153 26.9009 24.0456 26.9203 23.8758C27.9435 23.0612 29.1355 22.4785 30.3827 22.1616C32.3103 24.1983 33.7456 26.7442 34.0443 29.4116C33.1372 29.802 32.1526 30.0255 31.1432 30.0283C29.9541 30.0311 29.9541 31.9207 31.1432 31.9179ZM32.4983 21.8901C34.5725 21.8788 36.619 22.6397 38.1317 24.3511C38.1981 24.4274 38.2644 24.5095 38.328 24.5887C37.9658 26.102 37.0034 27.4598 35.7119 28.4442C35.2113 26.0851 34.0221 23.7995 32.5011 21.8901H32.4983ZM37.2854 19.7318C37.8496 20.5182 38.1953 21.3215 38.364 22.122C36.3147 20.5125 33.6045 19.7374 30.875 20.1108C30.828 20.0656 30.7809 20.0203 30.7339 19.975C30.3495 19.6186 29.9485 19.2735 29.5309 18.9426C31.7904 16.9681 35.0177 16.5806 37.2882 19.7346L37.2854 19.7318ZM28.3058 20.3032C28.4551 20.4163 28.6017 20.5323 28.7483 20.6483C28.4386 20.7643 28.1371 20.8972 27.8412 21.0443C27.985 20.7869 28.1399 20.538 28.3086 20.3003L28.3058 20.3032ZM25.9938 37.1708C21.8317 35.1907 22.9103 29.1571 25.0978 25.8644C25.4269 29.6097 27.4181 33.3577 30.2057 35.5867C30.6178 35.9149 31.0409 36.1864 31.4723 36.4099C30.037 37.6743 28.1233 38.1863 25.9911 37.1737L25.9938 37.1708ZM35.4796 35.3604C35.2362 35.4057 34.9984 35.4255 34.7605 35.434C35.64 33.8867 35.9995 32.2262 35.958 30.5516C37.479 29.6464 38.7429 28.3424 39.52 26.8007C40.6926 30.2631 39.5117 34.6165 35.4796 35.3633V35.3604Z" fill="#542900"/>
    <path d="M25.9999 42.4132C18.4016 42.4132 12.2217 35.9882 12.2217 28.0946C12.2217 20.2011 18.4042 13.7761 25.9999 13.7761C33.5956 13.7761 39.7781 20.2011 39.7781 28.0946C39.7781 35.9882 33.5956 42.4132 25.9999 42.4132Z" fill="#542900"/>
    <path d="M20.5266 31.0591C17.6291 31.1002 15.8363 27.6014 18.0272 25.3712C19.0264 24.3519 20.4765 24.0916 21.713 24.8204C22.2034 25.1109 22.641 25.5438 22.9416 26.0397C23.1947 26.4561 23.983 28.7439 23.2421 28.9987C24.3126 28.6289 23.8538 26.8616 22.7728 27.2343C20.0836 28.1603 22.8309 31.9277 24.6632 29.5303C26.572 27.037 23.7721 23.3793 21.3966 22.7244C18.6099 21.9573 15.7124 24.1382 15.3037 27.0562C14.8555 30.2481 17.5474 32.9332 20.5266 32.8894C21.6576 32.8729 21.6629 31.0427 20.5266 31.0591Z" fill="#823813"/>
    <path d="M12.9803 12.7388C10.937 19.3912 17.0405 25.3997 23.1413 25.8764C25.5299 26.0628 28.4327 24.5476 28.1875 21.6707C27.9001 18.3035 24.3461 17.5061 21.7228 17.2239C20.5971 17.1034 20.605 18.9336 21.7228 19.0542C23.3706 19.2323 27.8843 20.2049 26.0783 22.9749C24.7521 25.0106 21.4724 23.827 19.7718 23.0188C16.1414 21.2954 13.3678 17.4897 14.6782 13.221C15.0236 12.0977 13.3257 11.6154 12.9803 12.7333V12.7388Z" fill="#823813"/>
    <path d="M32.0586 30.2783C31.4338 28.9221 31.4707 27.2727 32.5016 25.8068C32.5253 25.774 32.5543 25.7356 32.5859 25.6945C32.9603 26.1055 33.4111 26.4644 33.9543 26.7357C35.1196 27.3192 36.7885 27.322 37.6611 26.1904C38.4785 25.1328 38.1199 23.6232 37.1286 22.8313C35.8314 21.7957 34.3682 22.0258 33.1 22.8478C32.9234 21.7354 33.3268 20.5189 34.1652 19.6668C34.9772 18.8448 33.7328 17.5516 32.9208 18.3736C31.4101 19.9052 30.954 22.2313 31.6447 24.13C30.8221 25.0753 30.2157 26.2151 30.0101 27.2124C29.7174 28.6316 29.9389 30.018 30.5163 31.2153C28.1962 33.2593 27.8218 37.2129 30.4425 39.3747C31.3204 40.1007 32.5754 38.813 31.6869 38.0814C30.7009 37.2677 30.1973 35.9526 30.4003 34.695C30.4372 34.9032 30.4926 35.1142 30.5743 35.3361C31.7818 38.6157 37.9749 39.5719 39.4197 36.043C41.2573 31.5551 35.4175 29.0015 32.0586 30.2783ZM34.7927 24.1328C35.0748 24.5218 35.3595 24.9082 35.6416 25.2972C35.1881 25.3109 34.7768 25.1794 34.4104 24.8999C34.2047 24.7629 34.0307 24.6068 33.8725 24.4424C34.1942 24.2232 34.5211 24.0862 34.7927 24.1355V24.1328ZM35.6047 36.4019C34.8032 36.3937 33.8593 36.18 33.1686 35.7279C32.4541 35.2621 32.23 34.9717 32.3724 34.0648C32.3355 33.8429 32.3407 33.6675 32.3803 33.5305C33.195 34.1607 34.1625 34.6018 35.2171 34.7689C35.8578 34.8703 36.4932 34.3771 36.3007 33.6429C36.0713 32.7688 35.6311 32.1606 35.0906 31.7715C35.2646 31.8044 35.436 31.8428 35.5994 31.8948C36.5354 32.1935 37.5768 32.9469 37.8536 33.9744C38.2939 35.6046 36.9098 36.4156 35.6021 36.4019H35.6047Z" fill="#823813"/>
    <path d="M39.2115 24.4259C37.83 22.1902 35.2726 21.012 32.7838 21.9217C32.7205 21.9436 32.6572 21.971 32.5939 21.9984C31.9691 21.1107 31.1096 20.4038 30.1367 20.0503C30.055 20.0202 29.9733 19.9983 29.8889 19.9736C29.4354 17.516 27.901 15.1569 25.7734 13.9843C23.3663 12.6582 20.0232 12.9705 18.291 15.3296C16.6485 17.5653 17.1705 20.7271 19.3061 22.3546C20.2209 23.0505 21.0989 21.4641 20.1946 20.7737C18.7814 19.6969 18.7261 17.4365 19.9204 16.1597C21.1226 14.872 23.1474 14.7268 24.6581 15.4391C26.2321 16.1789 27.553 17.8995 28.0724 19.7681C26.1847 19.8777 24.2943 20.9326 23.6615 22.8423C22.9049 25.1246 24.753 27.3055 27.0178 26.574C28.9503 25.9493 29.8573 23.9821 30.0075 22.0148C30.4215 22.2477 30.7906 22.5655 31.0911 22.9601C29.8204 24.0588 28.8686 25.741 29.6279 27.3C30.78 29.6591 33.2715 27.7768 33.5747 25.8835C33.696 25.1301 33.6222 24.3629 33.4007 23.6368C35.0458 23.0478 36.7596 23.8368 37.6955 25.3492C38.3045 26.3383 39.8311 25.4205 39.2168 24.4259H39.2115ZM27.9511 23.2998C27.6637 23.9875 26.973 25.0068 26.1056 24.9163C23.9832 24.6972 26.1715 22.1491 27.0758 21.8011C27.4818 21.6449 27.8984 21.5737 28.307 21.571C28.2912 22.1655 28.1805 22.7519 27.9511 23.2998ZM31.2256 25.7547C31.2256 25.3931 31.4787 25.0122 31.8109 24.678C31.8346 24.8342 31.8531 24.9903 31.8583 25.1492C32.0139 25.8287 31.8003 26.0315 31.2256 25.7547Z" fill="#823813"/>
    <path d="M36.0503 32.8154C34.4209 30.0728 31.1385 29.2919 29.1401 26.9494C28.386 26.0671 27.1469 27.3631 27.8956 28.2426C29.6779 30.3358 33.2161 31.2756 34.5475 33.7579C33.3083 32.4263 31.3073 32.5085 30.0312 33.8429C27.5213 36.4622 30.0628 39.8404 32.8575 39.8897C31.6236 41.5638 29.467 42.668 27.5845 42.6406C25.9684 42.6159 24.3997 41.8104 23.2686 40.6377C22.6095 39.9555 22.0849 39.1007 21.7922 38.1801C21.4257 37.0293 21.3308 34.9169 23.063 34.9826C24.1967 35.0237 24.194 33.1962 23.063 33.1524C20.8167 33.0702 19.6039 35.1936 19.8254 37.3417C20.0574 39.5993 21.4046 41.6241 23.1632 42.9173C27.0889 45.8051 32.6756 44.3201 34.877 39.8815C35.0194 39.5938 35.1433 39.2897 35.2514 38.9719C36.9651 37.4567 37.2156 34.7744 36.0529 32.8154H36.0503ZM31.8161 37.8431C30.8432 37.3225 30.4451 36.0128 31.2782 35.1388C32.3645 33.9963 33.6142 35.0621 33.8119 36.3224C33.8936 36.8348 33.8778 37.3334 33.7882 37.8129C33.2556 38.1691 32.5754 38.2486 31.8161 37.8431Z" fill="#823813"/>
    <path d="M37.6137 14.4419C35.602 13.2528 33.1976 13.6857 31.8319 15.6721C31.6763 15.8995 31.5471 16.1241 31.4285 16.3515C31.2466 16.3351 31.0673 16.3214 30.8827 16.3159C27.8587 16.2447 24.9849 17.9407 23.1763 20.423C22.5066 20.3079 21.8317 20.2887 21.1726 20.3709C20.6611 19.9572 20.1312 19.5873 19.6144 19.2668C16.3505 17.2447 11.038 16.294 8.94197 20.5983C6.84861 24.8972 10.1178 28.9769 13.4187 31.2044C14.3678 31.8455 15.1377 30.1988 14.1991 29.5632C11.7445 27.9056 8.87079 24.6972 10.5212 21.4066C12.198 18.0667 16.4427 19.412 18.834 20.9052C18.9158 20.9545 18.9949 21.0066 19.0766 21.0586C16.6484 22.4751 15.1614 25.8589 16.8382 28.4672C18.2197 30.6153 21.104 31.1441 22.9206 29.7084C23.3345 30.0701 23.8407 30.3577 24.4471 30.5495C27.8244 31.6126 29.9652 27.6946 28.7656 24.7027C28.0907 23.0231 26.6696 21.7162 25.0113 20.9819C26.5484 19.2394 28.7366 18.2914 30.8564 18.2777C30.5954 21.8039 34.6318 24.5355 38.2121 23.5464C38.6762 23.4177 38.9003 22.8313 38.7632 22.3875C37.9195 19.6668 35.805 17.5817 33.2424 16.7324C33.4454 16.4337 33.6985 16.168 34.0017 15.9625C35.5888 14.8912 37.4133 16.2228 38.286 17.5982C39.1586 18.9791 39.4407 20.7107 39.7492 22.2998C39.9707 23.4505 41.6369 22.8532 41.4155 21.7135C40.8855 18.9626 40.1368 15.9323 37.6084 14.4391L37.6137 14.4419ZM21.2306 28.6453C19.654 29.1769 17.9429 27.6891 17.8954 26.0671C17.848 24.3903 19.095 22.8533 20.5847 22.3628C20.6427 22.3436 20.7007 22.3299 20.7587 22.3135C21.1067 22.6231 21.4336 22.9601 21.7157 23.3245C21.2359 24.9657 21.199 26.8261 21.8686 28.2837C21.6867 28.4344 21.4784 28.5604 21.2306 28.6453ZM27.305 27.3165C26.8252 29.1166 25.1537 29.144 24.0674 28.2124C24.0674 28.207 24.0727 28.2042 24.0727 28.1987C24.89 26.3493 24.5473 24.6205 23.6535 23.1245C23.7405 22.9272 23.8328 22.7382 23.9303 22.5546C26.0395 23.2916 27.9061 25.0534 27.305 27.3165ZM36.7093 21.971C35.4333 22.0532 34.115 21.6121 33.2898 20.5463C32.8443 19.9682 32.6465 19.2366 32.6755 18.5106C34.3523 18.9626 35.834 20.0887 36.7093 21.971Z" fill="#823813"/>
    <path d="M37.0441 26.3739C37.139 25.5629 37.1733 24.7602 37.168 24.0177C37.1311 19.5106 34.8954 12.513 29.8966 11.6746C28.7498 11.4828 27.7584 11.702 26.92 12.1951C26.6168 12.0225 26.3084 11.8663 25.9973 11.7321C21.2173 9.70733 15.5858 12.6198 13.9222 17.631C12.2507 22.6751 15.6148 28.3083 20.4739 29.5193C21.5759 29.7933 22.0452 28.0288 20.9431 27.7548C18.0272 27.026 15.7967 24.4917 15.3354 21.3983C14.8687 18.2475 16.6378 15.2747 19.2822 13.8062C21.2806 12.6965 23.5005 12.6527 25.4542 13.4993C23.8565 15.5268 23.2395 18.7653 23.6218 21.1463C23.9672 23.2971 25.3329 25.2698 27.4948 25.6808C29.4062 26.0452 31.0593 24.8506 31.7079 23.0067C32.8996 19.6147 31.286 15.872 28.7287 13.5212C30.7166 13.3212 32.8758 15.5378 33.9014 17.6064C35.0615 19.9435 35.594 22.6888 35.3779 25.341C35.2882 25.3081 35.1986 25.2725 35.1037 25.2424C31.7052 24.1656 26.7434 28.5138 29.9757 31.8482C31.3941 33.314 33.7564 32.8291 35.0509 31.4537C35.7417 30.7194 36.2189 29.7823 36.5458 28.7686C36.9887 29.6371 37.1627 30.6755 37.0098 31.6071C36.7145 33.4127 35.4253 34.9196 33.9093 35.769C30.0706 37.9252 25.4805 36.2731 21.6708 34.9278C20.5951 34.547 20.1337 36.3142 21.2015 36.6923C26.1344 38.4348 32.5595 40.2514 36.7488 35.8101C39.1032 33.314 39.5198 28.7028 37.0467 26.3685L37.0441 26.3739ZM27.8665 15.1569C28.9264 16.2118 29.7305 17.5927 30.0891 19.0749C30.445 20.549 30.5399 23.2368 28.7814 23.8396C26.7355 24.5382 25.4278 22.0641 25.2881 20.338C25.1562 18.7188 25.4937 16.8995 26.2688 15.4802C26.5035 15.0501 26.7566 14.7049 27.0202 14.4226C27.3129 14.6446 27.5976 14.8857 27.8665 15.1542V15.1569ZM34.8453 28.1412C34.5579 29.0755 34.0702 30.1796 33.1869 30.6591C31.9742 31.3167 30.7877 30.5632 30.8642 29.1741C30.9591 27.4096 33.1949 26.5192 34.6291 27.0069C34.7899 27.0617 34.9402 27.1329 35.0852 27.2123C35.014 27.5247 34.9376 27.8343 34.8426 28.1384L34.8453 28.1412Z" fill="#823813"/>
    <path d="M29.9861 21.8918L29.4331 20.7192L19.9738 25.5372L20.5268 26.7097L29.9861 21.8918Z" fill="#879E1C"/>
    <path d="M31.881 23.8447L30.8958 23.0343L24.3581 31.6185L25.3434 32.4289L31.881 23.8447Z" fill="#B8DA8D"/>
    <path d="M31.4256 23.851L30.646 22.827L22.3846 29.6195L23.1642 30.6436L31.4256 23.851Z" fill="#8AB242"/>
    <path d="M27.7941 22.4078L26.749 21.683L20.901 30.7886L21.9462 31.5135L27.7941 22.4078Z" fill="#B8DA8D"/>
  </g>
  <defs>
    <clipPath id="clip0_468_1171">
      <rect width="51" height="53" fill="white" transform="translate(0.5)"/>
    </clipPath>
  </defs>
</svg>