<svg width="54" height="54" viewBox="0 0 54 54" fill="none" xmlns="http://www.w3.org/2000/svg">
<path d="M47.8633 39.2558L44.4574 36.1498C43.3154 35.1084 41.5894 35.2408 40.6022 36.4455L37.7279 39.9533C36.7408 41.158 36.8663 42.979 38.0083 44.0204L41.4141 47.1263C42.5561 48.1678 44.2821 48.0354 45.2693 46.8306L48.1436 43.3229C49.1308 42.1181 49.0053 40.2972 47.8633 39.2558Z" stroke="#373737" stroke-width="5" stroke-miterlimit="10"/>
<path d="M15.0625 9.34562L11.6566 6.23967C10.5146 5.19823 8.7886 5.33063 7.80142 6.53539L4.92717 10.0431C3.93998 11.2479 4.06548 13.0688 5.20748 14.1102L8.61332 17.2162C9.75532 18.2576 11.4814 18.1252 12.4685 16.9205L15.3428 13.4127C16.33 12.208 16.2045 10.3871 15.0625 9.34562Z" stroke="#373737" stroke-width="5" stroke-miterlimit="10"/>
<path d="M26.534 50.2293C38.8611 50.2293 48.8542 39.687 48.8542 26.6824C48.8542 13.6778 38.8611 3.13547 26.534 3.13547C14.2069 3.13547 4.21387 13.6778 4.21387 26.6824C4.21387 39.687 14.2069 50.2293 26.534 50.2293Z" fill="#4C4C4C"/>
<path d="M26.5341 46.52C36.9193 46.52 45.3382 37.6384 45.3382 26.6824C45.3382 15.7264 36.9193 6.84476 26.5341 6.84476C16.1489 6.84476 7.72998 15.7264 7.72998 26.6824C7.72998 37.6384 16.1489 46.52 26.5341 46.52Z" fill="#373737"/>
<path d="M29.3824 30.7187H15.596C14.1588 30.7187 12.9937 31.9478 12.9937 33.464V37.8837C12.9937 39.3999 14.1588 40.629 15.596 40.629H29.3824C30.8197 40.629 31.9848 39.3999 31.9848 37.8837V33.464C31.9848 31.9478 30.8197 30.7187 29.3824 30.7187Z" fill="#E75D4F"/>
<path d="M15.1843 30.7581C15.9591 31.4176 17.287 32.8382 17.7573 35.127C18.2702 37.6271 17.4206 39.6932 16.921 40.6318H18.5962C19.1706 39.2957 19.721 37.2353 19.2187 34.7944C18.8527 33.0102 18.0538 31.6629 17.2844 30.7214H15.5985C15.4568 30.7214 15.3206 30.7355 15.187 30.7581H15.1843Z" fill="#ED7265"/>
<path d="M20.5093 30.7581C21.2841 31.4176 22.612 32.8382 23.0822 35.127C23.5952 37.6271 22.7456 39.6932 22.2459 40.6318H23.9212C24.4956 39.2957 25.046 37.2353 24.5437 34.7944C24.1776 33.0102 23.3788 31.6629 22.6093 30.7214H20.9234C20.7818 30.7214 20.6455 30.7355 20.5119 30.7581H20.5093Z" fill="#ED7265"/>
<path d="M25.8369 30.7581C26.6117 31.4176 27.9396 32.8382 28.4099 35.127C28.9228 37.6271 28.0732 39.6932 27.5736 40.6318H29.2488C29.8232 39.2957 30.3736 37.2353 29.8713 34.7944C29.5053 33.0102 28.7064 31.6629 27.9369 30.7214H26.251C26.1094 30.7214 25.9732 30.7355 25.8396 30.7581H25.8369Z" fill="#ED7265"/>
<path d="M23.9186 26.1384H10.1321C8.69489 26.1384 7.52979 27.3675 7.52979 28.8838V33.3034C7.52979 34.8196 8.69489 36.0487 10.1321 36.0487H23.9186C25.3558 36.0487 26.5209 34.8196 26.5209 33.3034V28.8838C26.5209 27.3675 25.3558 26.1384 23.9186 26.1384Z" fill="#F68D77"/>
<path d="M9.72046 26.1778C10.4953 26.8374 11.8232 28.258 12.2934 30.5467C12.8064 33.0469 11.9568 35.1129 11.4571 36.0515H13.1323C13.7068 34.7155 14.2572 32.6551 13.7549 30.2141C13.3888 28.4299 12.59 27.0826 11.8205 26.1412H10.1346C9.99298 26.1412 9.85672 26.1553 9.72313 26.1778H9.72046Z" fill="#ED7265"/>
<path d="M15.0454 26.1778C15.8202 26.8374 17.1481 28.258 17.6183 30.5467C18.1313 33.0469 17.2817 35.1129 16.7821 36.0515H18.4573C19.0317 34.7155 19.5821 32.6551 19.0798 30.2141C18.7138 28.4299 17.9149 27.0826 17.1454 26.1412H15.4595C15.3179 26.1412 15.1817 26.1553 15.0481 26.1778H15.0454Z" fill="#ED7265"/>
<path d="M20.373 26.1778C21.1479 26.8374 22.4757 28.258 22.946 30.5467C23.459 33.0469 22.6093 35.1129 22.1097 36.0515H23.7849C24.3594 34.7155 24.9098 32.6551 24.4075 30.2141C24.0414 28.4299 23.2426 27.0826 22.4731 26.1412H20.7872C20.6456 26.1412 20.5093 26.1553 20.3757 26.1778H20.373Z" fill="#ED7265"/>
<path d="M32.9598 10.3793H27.9181C26.2285 10.3793 24.8589 11.8243 24.8589 13.6067V18.7986C24.8589 20.581 26.2285 22.026 27.9181 22.026H32.9598C34.6493 22.026 36.019 20.581 36.019 18.7986V13.6067C36.019 11.8243 34.6493 10.3793 32.9598 10.3793Z" fill="#F8E6C0"/>
<path d="M27.3785 11.4448H22.3368C20.6472 11.4448 19.2776 12.8897 19.2776 14.6721V19.8641C19.2776 21.6465 20.6472 23.0914 22.3368 23.0914H27.3785C29.068 23.0914 30.4377 21.6465 30.4377 19.8641V14.6721C30.4377 12.8897 29.068 11.4448 27.3785 11.4448Z" fill="#FCF4E5"/>
<path d="M29.3824 19.1538H15.596C14.1588 19.1538 12.9937 20.3829 12.9937 21.8992V26.3188C12.9937 27.835 14.1588 29.0641 15.596 29.0641H29.3824C30.8197 29.0641 31.9848 27.835 31.9848 26.3188V21.8992C31.9848 20.3829 30.8197 19.1538 29.3824 19.1538Z" fill="#E75D4F"/>
<path d="M15.1843 19.1905C15.9591 19.85 17.287 21.2706 17.7573 23.5594C18.2702 26.0595 17.4206 28.1256 16.921 29.0642H18.5962C19.1706 27.7281 19.721 25.6677 19.2187 23.2268C18.8527 21.4426 18.0538 20.0953 17.2844 19.1538H15.5985C15.4568 19.1538 15.3206 19.1679 15.187 19.1905H15.1843Z" fill="#ED7265"/>
<path d="M20.5093 19.1905C21.2841 19.85 22.612 21.2706 23.0822 23.5594C23.5952 26.0595 22.7456 28.1256 22.2459 29.0642H23.9212C24.4956 27.7281 25.046 25.6677 24.5437 23.2268C24.1776 21.4426 23.3788 20.0953 22.6093 19.1538H20.9234C20.7818 19.1538 20.6455 19.1679 20.5119 19.1905H20.5093Z" fill="#ED7265"/>
<path d="M25.8369 19.1905C26.6117 19.85 27.9396 21.2706 28.4099 23.5594C28.9228 26.0595 28.0732 28.1256 27.5736 29.0642H29.2488C29.8232 27.7281 30.3736 25.6677 29.8713 23.2268C29.5053 21.4426 28.7064 20.0953 27.9369 19.1538H26.251C26.1094 19.1538 25.9732 19.1679 25.8396 19.1905H25.8369Z" fill="#ED7265"/>
<path d="M43.0832 28.6696L43.1019 32.7707C43.1019 34.2871 41.937 35.5161 40.4996 35.5161H36.3102C34.8728 35.5161 33.7079 34.2871 33.7079 32.7707L33.6892 28.6696C33.6892 27.1532 34.8541 25.9242 36.2915 25.9242H40.4809C41.9183 25.9242 43.0832 27.1532 43.0832 28.6696Z" fill="#FFB355"/>
<path d="M40.4971 35.9895H36.3077C34.6245 35.9895 33.2565 34.5464 33.2565 32.7706L33.2378 28.6695C33.2378 26.8938 34.6058 25.4478 36.289 25.4478H40.4784C42.1616 25.4478 43.5295 26.891 43.5295 28.6667L43.5482 32.7678C43.5482 34.5436 42.1803 35.9895 40.4971 35.9895ZM36.2917 26.3949C35.1027 26.3949 34.1382 27.4152 34.1382 28.6667L34.1569 32.7678C34.1569 34.0221 35.1241 35.0425 36.3104 35.0425H40.4997C41.6887 35.0425 42.6532 34.0221 42.6532 32.7706L42.6345 28.6695C42.6345 27.4152 41.6673 26.3977 40.481 26.3977H36.2917V26.3949Z" fill="#DE8D34"/>
<path d="M39.2278 38.6926C41.6084 35.2849 40.6385 32.5592 38.7095 31.0597C36.9301 29.6758 35.2469 32.1393 36.4946 33.1089C36.8099 33.3541 37.0476 33.729 37.1038 34.1433C37.1358 34.3829 37.0877 34.6394 36.9328 34.8198C36.7163 35.0706 36.3503 35.1073 36.035 35.0396C35.5648 34.9382 35.1346 34.6394 34.8648 34.2194C34.7419 34.0306 34.651 33.8192 34.5415 33.619C34.3465 33.2611 34.0873 32.9341 33.74 32.7424C33.243 32.4662 32.5216 32.5761 32.1235 32.9989C31.8056 33.3372 31.7308 33.8502 31.8724 34.2899C32.0247 34.755 32.4709 35.0791 32.9037 35.2172C33.1816 35.3046 33.4728 35.344 33.7507 35.4427C34.1434 35.578 34.4988 35.8289 34.7686 36.1586C34.9797 36.4151 35.1427 36.7365 35.1427 37.0747C35.1427 38.126 33.935 38.033 33.3606 37.5877C32.1128 36.6181 30.3815 39.0421 32.1609 40.4261C34.09 41.9256 36.8446 42.0947 39.2252 38.687L39.2278 38.6926Z" fill="#F8E6C0"/>
<path d="M33.032 39.5748C34.0767 35.4878 32.2332 33.3203 29.9194 32.6635C27.7846 32.0575 27.0632 34.9974 28.5621 35.423C28.9415 35.5301 29.2915 35.7866 29.4866 36.153C29.5988 36.3644 29.6415 36.6237 29.5614 36.8492C29.4465 37.1649 29.1179 37.3396 28.8026 37.3988C28.3297 37.4862 27.8247 37.3706 27.4293 37.086C27.2503 36.9563 27.0926 36.7956 26.9216 36.6519C26.6171 36.3926 26.2617 36.1868 25.8743 36.1417C25.3159 36.0769 24.6827 36.4546 24.4582 37.0014C24.2792 37.4383 24.3834 37.9457 24.6693 38.3008C24.9712 38.6757 25.5002 38.8082 25.9518 38.7687C26.243 38.7433 26.5262 38.67 26.8174 38.6531C27.2289 38.6306 27.6484 38.7264 28.0117 38.9294C28.2976 39.0872 28.5594 39.324 28.677 39.6397C29.0404 40.6177 27.8835 40.9954 27.1942 40.8009C25.6953 40.3753 24.9205 43.2983 27.0552 43.9043C29.369 44.561 31.9927 43.6647 33.0374 39.5776L33.032 39.5748Z" fill="#FCF4E5"/>
<path d="M32.9597 31.5022C31.9738 30.7948 32.4708 28.2157 33.7399 26.2511L38.0815 19.523L41.6457 22.0852L37.304 28.8133C36.1445 30.6115 33.9429 32.2097 32.9597 31.5022Z" fill="#A4C055"/>
<path d="M41.6997 21.9753C43.2859 19.5176 43.7739 16.9521 42.7896 16.245C41.8053 15.538 39.7214 16.9572 38.1352 19.4149C36.5491 21.8726 36.0611 24.4381 37.0454 25.1451C38.0297 25.8521 40.1135 24.4329 41.6997 21.9753Z" fill="#DAE294"/>
<path d="M40.927 21.4172C39.7194 23.286 38.29 24.4782 37.7316 24.078C37.1732 23.6778 37.6995 21.8372 38.9072 19.9684C40.1148 18.0997 41.5442 16.9074 42.1026 17.3076C42.661 17.7079 42.1347 19.5484 40.927 21.4172Z" fill="#A4C055"/>
<path d="M40.4353 21.0648C39.6605 22.2656 38.8002 23.0745 38.5143 22.8688C38.2284 22.663 38.6239 21.5214 39.4014 20.3207C40.1762 19.12 41.0365 18.311 41.3224 18.5168C41.6083 18.7225 41.2128 19.8641 40.4353 21.0648Z" fill="#DAE294"/>
<path d="M30.9133 26.7387C29.9274 26.0312 30.4244 23.4522 31.6935 21.4876L36.0351 14.7595L39.5993 17.3216L35.2576 24.0497C34.0981 25.848 31.8965 27.4462 30.9133 26.7387Z" fill="#A4C055"/>
<path d="M39.6514 17.2115C41.2376 14.7538 41.7255 12.1883 40.7412 11.4812C39.7569 10.7742 37.6731 12.1934 36.0869 14.6511C34.5007 17.1088 34.0128 19.6743 34.9971 20.3813C35.9814 21.0883 38.0652 19.6691 39.6514 17.2115Z" fill="#DAE294"/>
<path d="M38.8785 16.6562C40.0851 14.7865 40.6115 12.9463 40.0541 12.5459C39.4967 12.1456 38.0666 13.3366 36.8599 15.2063C35.6532 17.0759 35.1269 18.9161 35.6843 19.3165C36.2417 19.7169 37.6718 18.5258 38.8785 16.6562Z" fill="#A4C055"/>
<path d="M38.3863 16.3013C37.6115 17.5021 36.7511 18.311 36.4653 18.1053C36.1794 17.8995 36.5748 16.758 37.3523 15.5572C38.1271 14.3565 38.9874 13.5475 39.2733 13.7533C39.5592 13.959 39.1638 15.1006 38.3863 16.3013Z" fill="#DAE294"/>
<path d="M29.8225 22.7485L29.6918 22.7557C26.3865 22.9372 23.8465 25.9111 24.0186 29.398L24.0187 29.4009C24.1908 32.8878 27.0097 35.5674 30.315 35.3858L30.4457 35.3787C33.751 35.1971 36.291 32.2233 36.1189 28.7363L36.1188 28.7335C35.9467 25.2466 33.1278 22.567 29.8225 22.7485Z" fill="#704E31"/>
<path d="M31.4982 28.2101L30.7635 28.2496L30.7261 27.4745C30.7047 27.046 30.2852 25.2421 29.8818 25.2618C29.4783 25.2816 29.2379 27.125 29.2592 27.5534L29.2967 28.3285L28.6928 28.3624C28.2867 28.3849 26.4459 28.8331 26.4672 29.2615C26.4886 29.6899 28.3642 29.9323 28.7676 29.9098L29.3715 29.876L29.4035 30.513C29.4249 30.9414 29.8497 32.8835 30.2558 32.8609C30.6619 32.8384 30.8917 30.8597 30.8703 30.4312L30.8383 29.7942L31.573 29.7548C31.9791 29.7322 33.6891 29.2897 33.6704 28.8641C33.6517 28.4385 31.9043 28.1848 31.4982 28.2073V28.2101Z" fill="#FAE187"/>
</svg>
