<svg width="52" height="47" viewBox="0 0 52 47" fill="none" xmlns="http://www.w3.org/2000/svg">
<g clip-path="url(#clip0_468_1168)">
<path d="M33.8141 12.2239H5.36924C2.40389 12.2239 0 14.7136 0 17.7849V26.7372C0 29.8085 2.40389 32.2982 5.36924 32.2982H33.8141C36.7794 32.2982 39.1833 29.8085 39.1833 26.7372V17.7849C39.1833 14.7136 36.7794 12.2239 33.8141 12.2239Z" fill="#F6F2ED"/>
<path d="M4.95027 26.7372V17.7849C4.95027 14.7132 7.35374 12.2239 10.3195 12.2239H5.4023C2.44205 12.2239 0.0385742 14.7132 0.0385742 17.7849V26.7372C0.0385742 29.8089 2.44205 32.2982 5.40781 32.2982H10.325C7.35926 32.2982 4.95578 29.8089 4.95578 26.7372H4.95027Z" fill="#DDD5CA"/>
<path d="M32.7832 4.52185H6.40008C2.86542 4.52185 0 7.4896 0 11.1505V17.9676C0 21.6285 2.86542 24.5962 6.40008 24.5962H32.7832C36.3179 24.5962 39.1833 21.6285 39.1833 17.9676V11.1505C39.1833 7.4896 36.3179 4.52185 32.7832 4.52185Z" fill="#DC4F3C"/>
<path d="M32.7832 0H6.40008C2.86542 0 0 2.96775 0 6.62864V13.4457C0 17.1066 2.86542 20.0743 6.40008 20.0743H32.7832C36.3179 20.0743 39.1833 17.1066 39.1833 13.4457V6.62864C39.1833 2.96775 36.3179 0 32.7832 0Z" fill="#EF5D3F"/>
<path d="M6.04175 0.0742225C7.64039 1.41023 10.3801 4.28778 11.3503 8.92383C12.4088 13.9881 10.6558 18.1731 9.62491 20.0743H13.0813C14.2665 17.3681 15.4021 13.1945 14.3657 8.25012C13.6105 4.63605 11.9678 1.91266 10.3746 0H6.8962C6.60403 0 6.32289 0.0285471 6.04175 0.0742225Z" fill="#F68D77"/>
<path d="M16.7307 0.0742225C18.3294 1.41023 21.0691 4.28778 22.0393 8.92383C23.0977 13.9881 21.3447 18.1731 20.3139 20.0743H23.7703C24.9555 17.3681 26.091 13.1945 25.0547 8.25012C24.2995 4.63605 22.6512 1.91266 21.0636 0H17.5852C17.2875 0 17.0063 0.0285471 16.7307 0.0742225Z" fill="#F68D77"/>
<path d="M26.4988 0.0742225C28.0974 1.41023 30.8372 4.28778 31.8074 8.92383C32.8658 13.9881 31.1128 18.1731 30.0819 20.0743H33.5383C34.7235 17.3681 35.8591 13.1945 34.8227 8.25012C34.0675 4.63605 32.4193 1.91266 30.8317 0H27.3532C27.0611 0 26.7799 0.0285471 26.5043 0.0742225H26.4988Z" fill="#F68D77"/>
<path d="M46.5592 26.9257H18.1144C15.149 26.9257 12.7451 29.4154 12.7451 32.4866V41.439C12.7451 44.5103 15.149 47 18.1144 47H46.5592C49.5245 47 51.9284 44.5103 51.9284 41.439V32.4866C51.9284 29.4154 49.5245 26.9257 46.5592 26.9257Z" fill="#F6F2ED"/>
<path d="M17.6623 41.439V32.4866C17.6623 29.415 20.0658 26.9257 23.0316 26.9257H18.1144C15.1486 26.9257 12.7451 29.415 12.7451 32.4866V41.439C12.7451 44.5107 15.1486 47 18.1144 47H23.0316C20.0658 47 17.6623 44.5107 17.6623 41.439Z" fill="#DDD5CA"/>
<path d="M45.5283 19.3664H19.1452C15.6105 19.3664 12.7451 22.3341 12.7451 25.995V32.8121C12.7451 36.473 15.6105 39.4407 19.1452 39.4407H45.5283C49.063 39.4407 51.9284 36.473 51.9284 32.8121V25.995C51.9284 22.3341 49.063 19.3664 45.5283 19.3664Z" fill="#E8AA19"/>
<path d="M45.8205 16.7058H18.853C16.4357 16.7058 14.4761 18.7354 14.4761 21.2391V28.53C14.4761 31.0337 16.4357 33.0633 18.853 33.0633H45.8205C48.2378 33.0633 50.1975 31.0337 50.1975 28.53V21.2391C50.1975 18.7354 48.2378 16.7058 45.8205 16.7058Z" fill="#FBED21"/>
<path d="M45.8205 14.8445H18.853C15.4518 14.8445 12.679 17.7106 12.679 21.2391V28.53C12.679 32.0527 15.4463 34.9246 18.853 34.9246H45.826C49.2272 34.9246 52.0001 32.0584 52.0001 28.53V21.2391C52.0001 17.7164 49.2327 14.8445 45.826 14.8445H45.8205ZM45.8205 31.202H18.853C17.4308 31.202 16.2731 30.003 16.2731 28.53V21.2391C16.2731 19.766 17.4308 18.5671 18.853 18.5671H45.826C47.2482 18.5671 48.4059 19.766 48.4059 21.2391V23.0261H22.8662C21.8739 23.0261 21.0691 23.8597 21.0691 24.8874C21.0691 25.9151 21.8739 26.7487 22.8662 26.7487H48.4059V28.5357C48.4059 30.0087 47.2482 31.2077 45.826 31.2077L45.8205 31.202Z" fill="#FFC800"/>
<path d="M35.9255 14.8445H29.0569V34.9189H35.9255V14.8445Z" fill="#4D4D4D"/>
<path d="M35.9255 34.9246H29.0569V47H35.9255V34.9246Z" fill="#373737"/>
</g>
<defs>
<clipPath id="clip0_468_1168">
<rect width="52" height="47" fill="white"/>
</clipPath>
</defs>
</svg>
