<svg xmlns="http://www.w3.org/2000/svg" width="52" height="50" viewBox="0 0 52 50" fill="none">
  <path d="M25.8644 50.0045C40.1489 50.0045 51.7288 38.8106 51.7288 25.0022C51.7288 11.1939 40.1489 0 25.8644 0C11.5799 0 0 11.1939 0 25.0022C0 38.8106 11.5799 50.0045 25.8644 50.0045Z" fill="#4C4C4C"/>
  <path d="M25.8644 45.7633C37.7258 45.7633 47.3414 36.4682 47.3414 25.0021C47.3414 13.5361 37.7258 4.24097 25.8644 4.24097C14.0029 4.24097 4.38733 13.5361 4.38733 25.0021C4.38733 36.4682 14.0029 45.7633 25.8644 45.7633Z" fill="#373737"/>
  <path d="M25.8199 27.2151L22.5204 29.3023C21.8775 29.7089 21.6973 30.5424 22.118 31.1638L30.5626 43.6387C30.9833 44.2601 31.8454 44.4342 32.4883 44.0276L35.7879 41.9404C36.4308 41.5338 36.6109 40.7003 36.1902 40.0789L27.7456 27.604C27.325 26.9826 26.4628 26.8085 25.8199 27.2151Z" fill="#FF8F1E"/>
  <path d="M27.7912 25.2201L25.3645 28.2117C24.8887 28.7984 24.9949 29.6468 25.6017 30.1068L37.7298 39.2997C38.3367 39.7597 39.2144 39.657 39.6902 39.0704L42.1169 36.0788C42.5927 35.4921 42.4865 34.6437 41.8797 34.1837L29.7516 24.9908C29.1448 24.5308 28.2671 24.6335 27.7912 25.2201Z" fill="#FF8F1E"/>
  <path d="M28.6567 22.8161L27.3568 26.4041C27.1019 27.1076 27.4853 27.8777 28.2131 28.1241L42.7588 33.0484C43.4867 33.2948 44.2833 32.9242 44.5382 32.2206L45.8381 28.6326C46.093 27.929 45.7096 27.1589 44.9818 26.9125L30.436 21.9883C29.7082 21.7419 28.9116 22.1125 28.6567 22.8161Z" fill="#FF8F1E"/>
  <path d="M15.7941 33.8379C18.2107 32.9666 19.9012 31.0323 20.5028 28.7859C21.0661 26.6865 18.9005 24.8559 16.7986 25.6161L9.45735 28.2702C7.35549 29.0304 6.96227 31.7811 8.81058 33.008C10.7881 34.3184 13.3762 34.714 15.7941 33.8379Z" fill="#B75800"/>
  <path d="M27.6872 38.1476C27.969 35.6693 26.942 33.3398 25.1369 31.8101C23.4505 30.3797 20.7852 31.4261 20.5423 33.5828L19.6931 41.1148C19.4503 43.2715 21.815 44.848 23.7798 43.8039C25.88 42.6859 27.4094 40.6293 27.6872 38.1476Z" fill="#B75800"/>
  <path d="M21.7944 38.2715C23.6047 36.4917 24.2923 34.0491 23.8557 31.7688C23.4509 29.637 20.6874 28.8592 19.1163 30.4067L13.621 35.8053C12.045 37.3512 12.8925 40.0081 15.1061 40.3649C17.4701 40.7486 19.9857 40.0464 21.796 38.2667L21.7944 38.2715Z" fill="#DE8D34"/>
  <path d="M29.4358 19.2245C29.4358 19.2245 24.2035 20.0652 24.6125 13.6513C25.0194 7.24333 30.0154 4.84206 31.1605 5.61947C32.3057 6.39688 38.7853 18.5443 29.4338 19.2205L29.4358 19.2245Z" fill="#65CE58"/>
  <path d="M33.3963 22.2736C33.3963 22.2736 28.182 21.334 30.8353 15.442C33.4844 9.55485 39.0288 8.94984 39.8298 10.0589C40.6309 11.168 42.4228 24.725 33.3958 22.2692L33.3963 22.2736Z" fill="#07A439"/>
  <path d="M31.6793 22.1767C31.6793 22.1767 30.3091 17.2235 36.9527 16.9985C43.5899 16.7719 46.5443 21.3474 45.8542 22.5241C45.1642 23.7009 33.2814 31.1069 31.6832 22.1744L31.6793 22.1767Z" fill="#65CE58"/>
  <ellipse cx="18.1065" cy="13.4637" rx="6.03549" ry="5.83431" fill="#ED7265"/>
  <ellipse cx="11.6067" cy="22.4395" rx="6.03549" ry="5.83431" fill="#ED7265"/>
  <path d="M25.7262 36.32C32.4603 36.32 37.9193 31.043 37.9193 24.5334C37.9193 18.0239 32.4603 12.7468 25.7262 12.7468C18.9922 12.7468 13.5332 18.0239 13.5332 24.5334C13.5332 31.043 18.9922 36.32 25.7262 36.32Z" fill="#FEFDF9"/>
  <path d="M29.8271 27.0661C31.4616 24.768 30.8594 21.6241 28.4821 20.0441C26.1047 18.4641 22.8525 19.0462 21.218 21.3443C19.5835 23.6424 20.1856 26.7862 22.563 28.3663C24.9403 29.9463 28.1926 29.3642 29.8271 27.0661Z" fill="#FBED21"/>
  <path d="M31.2793 30.7716C31.2793 30.9809 31.101 31.1532 30.8845 31.1532C30.6679 31.1532 30.4896 30.9809 30.4896 30.7716C30.4896 30.5623 30.6679 30.3899 30.8845 30.3899C31.101 30.3899 31.2793 30.5623 31.2793 30.7716Z" fill="#FFBE6E"/>
  <path d="M33.7587 30.7713C33.7587 31.1858 33.4105 31.5183 32.986 31.5183C32.5614 31.5183 32.2133 31.1817 32.2133 30.7713C32.2133 30.3609 32.5614 30.0244 32.986 30.0244C33.4105 30.0244 33.7587 30.3609 33.7587 30.7713Z" fill="#FFBE6E"/>
  <path d="M31.827 32.2694C31.827 32.5608 31.5807 32.7988 31.2793 32.7988C30.9779 32.7988 30.7316 32.5608 30.7316 32.2694C30.7316 31.978 30.9779 31.74 31.2793 31.74C31.5807 31.74 31.827 31.978 31.827 32.2694Z" fill="#FFBE6E"/>
  <path d="M24.508 24.3825C25.5631 24.3825 26.4185 23.6476 26.4185 22.741C26.4185 21.8343 25.5631 21.0994 24.508 21.0994C23.4529 21.0994 22.5975 21.8343 22.5975 22.741C22.5975 23.6476 23.4529 24.3825 24.508 24.3825Z" fill="#FFF8D2"/>
</svg>