<svg width="62" height="42" viewBox="0 0 62 42" fill="none" xmlns="http://www.w3.org/2000/svg">
<g clip-path="url(#clip0_468_1186)">
<path d="M61.5 28.3957V13.6043C61.5 6.09086 55.3269 0 47.712 0L14.288 0C6.67311 0 0.5 6.09086 0.5 13.6043V28.3957C0.5 35.9091 6.67311 42 14.288 42H47.712C55.3269 42 61.5 35.9091 61.5 28.3957Z" fill="#5D728B"/>
<path d="M59.3162 28.3956V13.6023C59.3162 7.27897 54.1208 2.15286 47.7121 2.15286L14.2862 2.15286C7.87741 2.15286 2.68207 7.27897 2.68207 13.6023V28.3956C2.68207 34.719 7.87741 39.8451 14.2862 39.8451H47.7121C54.1208 39.8451 59.3162 34.719 59.3162 28.3956Z" fill="#243952"/>
<path d="M14.2881 4.30777C9.08369 4.30777 4.86597 8.46929 4.86597 13.6043V28.3957C4.86597 33.5308 9.08369 37.6923 14.2881 37.6923H25.627C26.9295 37.6923 27.9845 36.6514 27.9845 35.3662V6.63384C27.9845 5.34863 26.9295 4.30777 25.627 4.30777H14.2881Z" fill="white"/>
<g style="mix-blend-mode:multiply" opacity="0.3">
<path d="M25.627 4.30777H23.4333C24.7359 4.30777 25.7908 5.34863 25.7908 6.63384V35.3662C25.7908 36.6514 24.7359 37.6923 23.4333 37.6923H25.627C26.9296 37.6923 27.9845 36.6514 27.9845 35.3662V6.63384C27.9845 5.34863 26.9296 4.30777 25.627 4.30777Z" fill="#CACADD"/>
</g>
<path d="M26.7948 17.6816L27.4366 20.7605C27.5617 21.3604 28.1506 21.7459 28.7519 21.6216L40.8235 19.1264C41.4249 19.0021 41.811 18.415 41.6859 17.8151L41.044 14.7362C40.919 14.1363 40.3301 13.7508 39.7287 13.8751L27.6572 16.3703C27.0558 16.4946 26.6697 17.0817 26.7948 17.6816Z" fill="#FF8F1E"/>
<path d="M31.0255 3.63051L29.6601 6.46253C29.3923 7.01786 29.6248 7.68364 30.1793 7.94958L41.2608 13.2645C41.8153 13.5305 42.4818 13.2959 42.7496 12.7405L44.115 9.90851C44.3827 9.35318 44.1503 8.68741 43.5958 8.42146L32.5143 3.10653C31.9598 2.84058 31.2932 3.07518 31.0255 3.63051Z" fill="#FF8F1E"/>
<path d="M26.6596 11.0902L26.5923 14.231C26.5791 14.8469 27.0672 15.3546 27.6826 15.365L39.9807 15.5728C40.5961 15.5832 41.1056 15.0924 41.1188 14.4765L41.1861 11.3357C41.1993 10.7198 40.7112 10.2121 40.0958 10.2017L27.7977 9.99383C27.1823 9.98343 26.6728 10.4743 26.6596 11.0902Z" fill="#FF8F1E"/>
<path d="M41.8172 12.3919C41.8172 12.3919 38.3571 12.9666 38.6276 8.58216C38.8967 4.20174 42.2005 2.56026 42.9578 3.09169C43.715 3.62312 48 11.927 41.8159 12.3892L41.8172 12.3919Z" fill="#65CE58"/>
<path d="M53.1143 19.6834C53.1143 19.6834 49.6662 19.0411 51.4207 15.0134C53.1726 10.989 56.839 10.5754 57.3688 11.3335C57.8985 12.0917 59.0835 21.3591 53.114 19.6804L53.1143 19.6834Z" fill="#07A439"/>
<path d="M48.4002 20.6242C48.4002 20.6242 47.4941 17.2382 51.8875 17.0844C56.2766 16.9295 58.2303 20.0572 57.774 20.8617C57.3177 21.6661 49.4596 26.7287 48.4028 20.6226L48.4002 20.6242Z" fill="#65CE58"/>
<path d="M17.9189 21.8026C18.4664 22.5011 18.351 23.4855 17.6519 24.0367C16.9903 24.5519 16.0078 24.427 15.4557 23.729C14.9036 23.031 15.0392 22.0628 15.6962 21.5481C16.3958 21.0014 17.3718 21.1087 17.9193 21.8071L17.9189 21.8026Z" fill="#A6DA49"/>
<path d="M12.7452 20.1214C13.2872 20.8113 13.1283 21.8187 12.4667 22.3338C11.8051 22.8489 10.7861 22.7692 10.2436 22.0748C9.70102 21.3804 9.88153 20.4028 10.5426 19.8831C11.2037 19.3635 12.2196 19.4573 12.7406 20.1219L12.7452 20.1214Z" fill="#A6DA49"/>
<path d="M16.1562 15.8495C16.6749 16.5096 16.5228 17.4734 15.8898 17.9663C15.2568 18.4591 14.2819 18.3828 13.7629 17.7184C13.2438 17.0541 13.4165 16.1187 14.049 15.6216C14.6815 15.1244 15.6534 15.2142 16.1519 15.85L16.1562 15.8495Z" fill="#A6DA49"/>
<path d="M21.3354 17.9954C21.829 18.6274 21.7348 19.5982 21.0699 20.1208C20.4049 20.6434 19.4686 20.4752 18.9749 19.8433C18.4515 19.1793 18.5658 18.2327 19.1988 17.7398C19.8318 17.247 20.8124 17.3358 21.3358 17.9998L21.3354 17.9954Z" fill="#A6DA49"/>
<path d="M44.3842 28.3304C46.8344 27.4173 48.5484 25.39 49.1583 23.0356C49.7294 20.8353 47.5338 18.9167 45.4027 19.7135L37.9595 22.4951C35.8285 23.2919 35.4298 26.1748 37.3038 27.4606C39.3088 28.8341 41.9328 29.2487 44.3842 28.3304Z" fill="#B75800"/>
<path d="M56.9459 30.1381C57.2537 27.3398 56.132 24.7096 54.1604 22.9824C52.3183 21.3673 49.407 22.5489 49.1418 24.9839L48.2142 33.4883C47.949 35.9234 50.5319 37.7035 52.678 36.5246C54.9719 35.2622 56.6425 32.9401 56.9459 30.1381Z" fill="#B75800"/>
<path d="M50.2231 31.7448C52.2005 29.7353 52.9516 26.9774 52.4747 24.4026C52.0325 21.9956 49.014 21.1175 47.298 22.8647L41.2956 28.9603C39.5741 30.7058 40.4999 33.7056 42.9177 34.1085C45.4999 34.5417 48.2475 33.7489 50.2249 31.7394L50.2231 31.7448Z" fill="#DE8D34"/>
<path d="M52.7983 6.92416C50.5399 4.66744 44.0808 5.91589 39.7373 10.2541C37.0501 12.9392 37.0501 17.2904 39.7373 19.9733C42.4244 22.6585 46.7788 22.6585 49.4637 19.9733C53.8073 15.633 55.0545 9.17872 52.7961 6.922L52.7983 6.92416Z" fill="#FEFDF9"/>
<path d="M53.1252 7.31583C53.9047 10.055 52.5168 14.7264 49.1779 18.065C46.6596 20.5814 42.5759 20.5814 40.0577 18.065C38.5312 16.5396 37.9314 14.4408 38.2562 12.4632C37.2125 14.958 37.7062 17.9438 39.7394 19.9755C42.4265 22.6607 46.7809 22.6607 49.4659 19.9755C53.5799 15.8645 54.9159 9.85599 53.1252 7.31583Z" fill="#F8F6EC"/>
<path d="M44.828 18.7962C46.9877 18.7962 48.7385 17.0467 48.7385 14.8886C48.7385 12.7305 46.9877 10.981 44.828 10.981C42.6683 10.981 40.9175 12.7305 40.9175 14.8886C40.9175 17.0467 42.6683 18.7962 44.828 18.7962Z" fill="#FFC800"/>
<ellipse cx="5.85965" cy="5.8148" rx="5.85965" ry="5.8148" transform="matrix(0.99749 -0.0708054 0.069548 0.997579 25.7197 20.8982)" fill="#DC4F3C"/>
<ellipse cx="35.9959" cy="33.429" rx="5.856" ry="5.81117" transform="rotate(-4.02398 35.9959 33.429)" fill="#ED7265"/>
</g>
<defs>
<clipPath id="clip0_468_1186">
<rect width="61" height="42" fill="white" transform="translate(0.5)"/>
</clipPath>
</defs>
</svg>
