<svg xmlns="http://www.w3.org/2000/svg" width="52" height="57" viewBox="0 0 52 57" fill="none">
  <g clip-path="url(#clip0_468_1177)">
    <path d="M36.5898 12.6702L13.1017 35.8865C10.1866 38.7045 5.41207 38.7045 2.49703 35.8865L2.18629 35.5861C-0.728762 32.7681 -0.728762 28.1525 2.18629 25.3345L25.6744 2.1135C28.5894 -0.704499 33.364 -0.704499 36.279 2.1135L36.5898 2.41389C39.5048 5.23189 39.5048 9.84749 36.5898 12.6655V12.6702Z" fill="#DC4F3C"/>
    <path d="M5.02759 28.2644L28.7026 4.85677C31.2083 2.43379 35.0763 2.08285 37.9847 3.79431C37.6814 3.30876 37.3185 2.85204 36.886 2.43379L36.5727 2.13092C33.6345 -0.710307 28.8219 -0.710307 25.8837 2.13092L2.20369 25.5386C-0.734562 28.3798 -0.734562 33.0335 2.20369 35.8747L2.5169 36.1776C2.94943 36.5958 3.42671 36.942 3.92388 37.24C2.15397 34.4276 2.51193 30.6922 5.02262 28.2644H5.02759Z" fill="#EF5D3F"/>
    <path d="M27.8801 22.6176C27.3144 23.1148 27.3512 24.0541 27.9722 24.7147L32.4348 29.4864L31.0127 30.7292L26.5502 25.9575C25.9292 25.2969 24.9663 25.162 24.4006 25.6593C23.8349 26.1566 23.8717 27.0959 24.4927 27.7565L28.9552 32.5281L27.5332 33.771L23.0707 28.9993C22.4497 28.3387 21.4915 28.2025 20.921 28.7011C20.3553 29.1983 20.3969 30.1363 21.0132 30.7982L26.5935 36.7659L26.7517 36.9365L29.0247 39.3681C30.0529 40.4693 31.801 40.554 32.9337 39.5641L34.3835 38.2938C38.6755 43.3555 41.3543 46.8643 42.8611 49.3409C43.2475 49.9711 44.1881 51.5733 45.8455 51.9064C46.7068 52.079 47.8356 51.9251 48.7102 51.1895C49.5117 50.5185 49.9284 49.5003 49.8469 48.5831C49.7009 46.9629 48.0259 45.894 47.3196 45.4307C44.8412 43.7956 41.4112 41.0584 36.3909 36.5334L37.8407 35.2631C38.9734 34.2731 39.0525 32.5816 38.0243 31.4804L35.7513 29.0488L35.5932 28.8782L30.0128 22.9105C29.3918 22.2499 28.4288 22.115 27.8631 22.6122L27.8801 22.6176Z" fill="#DDD5CA"/>
    <path d="M42.1293 17.9871L18.6412 41.2063C15.7262 44.0246 10.9516 44.0246 8.03658 41.2063L7.72584 40.9058C4.81079 38.0875 4.81079 33.4713 7.72584 30.653L31.2139 7.43377C34.129 4.61542 38.9035 4.61542 41.8186 7.43377L42.1293 7.7342C45.0444 10.5526 45.0444 15.1687 42.1293 17.9871Z" fill="#DC4F3C"/>
    <path d="M10.4582 33.5844L33.643 10.1768C36.0968 7.7538 39.8847 7.40285 42.7329 9.11432C42.4359 8.62876 42.0805 8.17205 41.6569 7.7538L41.3502 7.45093C38.4728 4.6097 33.7599 4.6097 30.8824 7.45093L7.69761 30.8586C4.8202 33.6998 4.8202 38.3535 7.69761 41.1947L8.00434 41.4976C8.42792 41.9158 8.89531 42.262 9.38219 42.56C7.64892 39.7476 7.99947 36.0122 10.4582 33.5844Z" fill="#EF5D3F"/>
    <path d="M41.706 17.48C41.1217 19.1176 41.1044 20.3902 41.1996 21.2535C41.4074 23.1377 42.2599 24.144 41.8141 25.6435C41.7363 25.9 41.5112 26.6497 40.8751 27.0739C40.4596 27.3502 40.0572 27.36 39.9447 27.36C39.9447 27.36 39.3951 27.36 38.8541 26.9753C38.0838 26.4278 37.7376 24.2821 38.179 21.6086" fill="#DC4F3C"/>
    <path d="M35.7718 29.0481L35.6136 28.8775L30.0333 22.9098C29.4123 22.2492 28.4493 22.1143 27.8836 22.6116C27.3179 23.1089 27.3548 24.0481 27.9758 24.7087L32.4383 29.4804" fill="#DDD5CA"/>
    <path d="M47.9098 45.8315C48.6975 46.3969 49.6815 47.2964 49.7966 48.5523C49.8782 49.4695 49.4614 50.4877 48.6599 51.1587C47.7887 51.8884 46.6559 52.0633 45.7953 51.8756C44.5569 51.6071 43.8176 50.6507 43.2949 49.9931C43.8064 50.9768 45.4346 52.6848 47.2327 53.3721C47.7414 53.5664 49.3604 54.0988 50.4546 53.2387C51.2995 52.5758 51.4442 51.3832 51.195 50.2981C50.732 48.2822 48.8236 46.3377 47.9159 45.8348L47.9098 45.8315Z" fill="#C3BDB5"/>
  </g>
  <defs>
    <clipPath id="clip0_468_1177">
      <rect width="52" height="57" fill="white"/>
    </clipPath>
  </defs>
</svg>