<svg width="50" height="50" viewBox="0 0 50 50" fill="none" xmlns="http://www.w3.org/2000/svg">
<g clip-path="url(#clip0_468_1165)">
<path d="M24.9987 49.9974C38.8051 49.9974 49.9974 38.8051 49.9974 24.9987C49.9974 11.1923 38.8051 0 24.9987 0C11.1923 0 0 11.1923 0 24.9987C0 38.8051 11.1923 49.9974 24.9987 49.9974Z" fill="#DDD5CA"/>
<path d="M24.9419 46.5237C36.8612 46.5237 46.5237 36.8611 46.5237 24.9418C46.5237 13.0225 36.8612 3.36005 24.9419 3.36005C13.0226 3.36005 3.36011 13.0225 3.36011 24.9418C3.36011 36.8611 13.0226 46.5237 24.9419 46.5237Z" fill="#F6F2ED"/>
<path d="M39.0175 22.8087C39.134 21.784 39.0229 20.7007 38.6189 19.5986C36.7428 14.4698 30.6481 13.1836 26.8173 16.7567C24.7487 15.5238 22.4008 14.7553 19.9689 14.9928C16.6911 15.3104 14.0234 17.4638 12.1255 19.9855C9.98103 22.8328 8.25673 26.7421 9.42253 30.3125C10.3525 33.165 13.0257 35.3932 16.1516 35.1637C17.3066 35.0783 17.3147 33.2958 16.1516 33.3812C13.7278 33.56 11.7351 31.8415 11.0899 29.5973C10.3714 27.0916 11.4152 24.4045 12.7328 22.2777C15.3247 18.0909 19.6788 15.3851 24.6077 17.6026C24.9547 17.7573 25.299 17.9335 25.6433 18.1229C24.9059 19.1876 24.445 20.3671 24.2254 21.5999C21.3353 24.2284 19.79 28.3725 20.7036 32.1831C21.9996 37.5867 28.7341 38.8249 32.4077 35.0036C36.5042 35.628 40.5737 32.3725 40.5791 27.7374C40.5791 25.8535 39.9989 24.183 39.0229 22.8114L39.0175 22.8087ZM30.0408 30.1097C31.0033 30.107 31.9549 29.9442 32.8631 29.6533C32.6896 30.8568 32.226 32.0496 31.5347 33.045C27.9966 31.58 25.7301 26.2724 25.863 23.0035C25.8684 22.8434 25.8819 22.6833 25.9009 22.5232C26.904 21.7547 28.0725 21.205 29.2953 20.9061C31.1849 22.8274 32.592 25.229 32.8848 27.7454C31.9956 28.1136 31.0304 28.3245 30.0408 28.3271C28.875 28.3298 28.875 30.1123 30.0408 30.1097ZM31.3693 20.6499C33.4027 20.6393 35.4089 21.3571 36.8919 22.9715C36.957 23.0436 37.0221 23.1209 37.0844 23.1957C36.7292 24.6233 35.7858 25.9042 34.5197 26.8328C34.0289 24.6073 32.8631 22.4512 31.372 20.6499H31.3693ZM36.0623 18.6139C36.6154 19.3557 36.9543 20.1136 37.1197 20.8688C35.1107 19.3504 32.4538 18.6192 29.7779 18.9715C29.7318 18.9288 29.6857 18.8861 29.6396 18.8434C29.2627 18.5072 28.8696 18.1816 28.4602 17.8694C30.6752 16.0068 33.8392 15.6412 36.065 18.6166L36.0623 18.6139ZM27.2592 19.1529C27.4056 19.2597 27.5493 19.3691 27.693 19.4785C27.3893 19.5879 27.0938 19.7133 26.8037 19.8521C26.9447 19.6092 27.0965 19.3744 27.2619 19.1503L27.2592 19.1529ZM24.9927 35.065C20.9124 33.1971 21.9697 27.5052 24.1143 24.3991C24.4369 27.9322 26.3889 31.4679 29.1218 33.5707C29.5257 33.8802 29.9405 34.1364 30.3635 34.3472C28.9564 35.54 27.0803 36.023 24.99 35.0677L24.9927 35.065ZM34.2919 33.3572C34.0533 33.3999 33.8202 33.4186 33.587 33.4266C34.4492 31.9669 34.8016 30.4005 34.761 28.8208C36.2521 27.9669 37.4911 26.7367 38.2529 25.2824C39.4024 28.5486 38.2448 32.6554 34.2919 33.3598V33.3572Z" fill="#EF5D3F"/>
<path d="M24.9988 40.0103C17.5499 40.0103 11.4915 33.9493 11.4915 26.503C11.4915 19.0566 17.5525 12.9956 24.9988 12.9956C32.4452 12.9956 38.5062 19.0566 38.5062 26.503C38.5062 33.9493 32.4452 40.0103 24.9988 40.0103Z" fill="#EF5D3F"/>
<path d="M19.6329 29.2996C16.7924 29.3383 15.0348 26.0377 17.1826 23.9338C18.1622 22.9724 19.5838 22.7268 20.796 23.4143C21.2767 23.6883 21.7058 24.0967 22.0004 24.5645C22.2486 24.9574 23.0214 27.1155 22.2951 27.3559C23.3444 27.007 22.8947 25.3399 21.835 25.6914C19.1987 26.565 21.8919 30.1189 23.6882 27.8573C25.5595 25.5053 22.8146 22.0548 20.4858 21.4371C17.7539 20.7134 14.9133 22.7708 14.5127 25.5234C14.0733 28.5345 16.7122 31.0675 19.6329 31.0261C20.7417 31.0106 20.7469 29.2841 19.6329 29.2996Z" fill="#DC4F3C"/>
<path d="M12.2348 12.0171C10.2317 18.2926 16.2152 23.9607 22.1961 24.4105C24.5377 24.5862 27.3834 23.1569 27.1431 20.443C26.8613 17.2665 23.3772 16.5144 20.8055 16.2481C19.7019 16.1344 19.7096 17.861 20.8055 17.9747C22.4209 18.1427 26.8458 19.0602 25.0754 21.6733C23.7753 23.5937 20.56 22.4771 18.8929 21.7147C15.3338 20.0889 12.6148 16.4989 13.8993 12.472C14.2379 11.4123 12.5734 10.9574 12.2348 12.0119V12.0171Z" fill="#DC4F3C"/>
<path d="M30.9381 28.5448C30.3256 27.2654 30.3617 25.7095 31.3723 24.3267C31.3956 24.2957 31.424 24.2595 31.455 24.2207C31.8221 24.6084 32.264 24.947 32.7965 25.2029C33.9389 25.7534 35.575 25.756 36.4305 24.6885C37.2317 23.6909 36.8802 22.2667 35.9084 21.5198C34.6367 20.5428 33.2023 20.7599 31.959 21.5353C31.7859 20.4859 32.1813 19.3383 33.0032 18.5345C33.7993 17.7591 32.5794 16.5392 31.7833 17.3145C30.3023 18.7594 29.8551 20.9537 30.5323 22.7449C29.7259 23.6366 29.1314 24.7118 28.9298 25.6526C28.6429 26.9915 28.8601 28.2993 29.4261 29.4288C27.1516 31.3569 26.7846 35.0866 29.3537 37.1259C30.2144 37.8108 31.4447 36.596 30.5737 35.9059C29.607 35.1383 29.1134 33.8976 29.3124 32.7113C29.3486 32.9077 29.4028 33.1067 29.483 33.3161C30.6667 36.4099 36.7381 37.312 38.1544 33.9829C39.9559 29.7493 34.231 27.3404 30.9381 28.5448ZM33.6184 22.7475C33.895 23.1145 34.1741 23.4789 34.4506 23.846C34.0061 23.8589 33.6029 23.7348 33.2436 23.4712C33.042 23.3419 32.8714 23.1946 32.7164 23.0395C33.0317 22.8328 33.3522 22.7035 33.6184 22.7501V22.7475ZM34.4145 34.3215C33.6287 34.3138 32.7034 34.1122 32.0263 33.6857C31.3258 33.2463 31.1061 32.9723 31.2457 32.1168C31.2095 31.9075 31.2147 31.742 31.2534 31.6128C32.0521 32.2073 33.0007 32.6234 34.0345 32.7811C34.6626 32.8767 35.2855 32.4115 35.0968 31.7188C34.8719 30.8943 34.4403 30.3205 33.9105 29.9535C34.081 29.9845 34.249 30.0207 34.4093 30.0698C35.3268 30.3515 36.3478 31.0623 36.6192 32.0315C37.0508 33.5694 35.6939 34.3344 34.4119 34.3215H34.4145Z" fill="#EF5D3F"/>
<path d="M37.9504 23.0421C36.596 20.9331 34.0889 19.8217 31.649 20.6798C31.587 20.7005 31.525 20.7263 31.4629 20.7521C30.8504 19.9147 30.0078 19.2479 29.054 18.9145C28.9739 18.886 28.8938 18.8654 28.8111 18.8421C28.3665 16.5237 26.8623 14.2983 24.7764 13.1921C22.4167 11.9411 19.1393 12.2357 17.4412 14.4611C15.831 16.5702 16.3427 19.5529 18.4363 21.0881C19.3332 21.7446 20.1939 20.2481 19.3073 19.5968C17.922 18.581 17.8677 16.4487 19.0385 15.2443C20.2171 14.0295 22.2021 13.8925 23.6831 14.5645C25.2262 15.2624 26.5211 16.8855 27.0303 18.6482C25.1797 18.7516 23.3265 19.7467 22.7061 21.5482C21.9643 23.7012 23.7762 25.7586 25.9964 25.0685C27.8909 24.4792 28.7801 22.6234 28.9274 20.7677C29.3332 20.9873 29.695 21.2872 29.9897 21.6594C28.7439 22.6958 27.8108 24.2828 28.5552 25.7534C29.6847 27.9788 32.1272 26.2032 32.4244 24.4172C32.5433 23.7064 32.4709 22.9827 32.2538 22.2978C33.8666 21.7421 35.5467 22.4864 36.4642 23.9132C37.0613 24.8462 38.5578 23.9804 37.9556 23.0421H37.9504ZM26.9114 21.9799C26.6296 22.6286 25.9525 23.5901 25.1021 23.5048C23.0215 23.298 25.1667 20.8943 26.0533 20.5661C26.4513 20.4187 26.8597 20.3515 27.2603 20.3489C27.2448 20.9098 27.1362 21.4629 26.9114 21.9799ZM30.1215 24.2957C30.1215 23.9545 30.3696 23.5953 30.6953 23.2799C30.7185 23.4273 30.7366 23.5746 30.7418 23.7245C30.8943 24.3655 30.6849 24.5567 30.1215 24.2957Z" fill="#DC4F3C"/>
<path d="M34.8514 30.9563C33.2541 28.3691 30.0362 27.6325 28.077 25.4226C27.3378 24.5903 26.1231 25.8129 26.8571 26.6425C28.6043 28.6172 32.0729 29.5037 33.3782 31.8454C32.1634 30.5893 30.2016 30.6668 28.9507 31.9256C26.4901 34.3965 28.9817 37.5833 31.7214 37.6299C30.5118 39.2091 28.3975 40.2507 26.5521 40.2249C24.9677 40.2016 23.4299 39.4417 22.321 38.3355C21.6749 37.6919 21.1605 36.8855 20.8736 36.0171C20.5144 34.9315 20.4213 32.9387 22.1194 33.0008C23.2308 33.0395 23.2283 31.3156 22.1194 31.2742C19.9173 31.1967 18.7284 33.1998 18.9455 35.2261C19.1729 37.3559 20.4937 39.266 22.2177 40.4859C26.0662 43.2101 31.5431 41.8092 33.7012 37.6221C33.8408 37.3507 33.9623 37.0638 34.0683 36.764C35.7483 35.3347 35.9938 32.8043 34.854 30.9563H34.8514ZM30.7005 35.6991C29.7467 35.2081 29.3565 33.9726 30.1732 33.1481C31.2381 32.0703 32.4632 33.0757 32.657 34.2647C32.7372 34.748 32.7217 35.2184 32.6338 35.6707C32.1117 36.0067 31.4448 36.0817 30.7005 35.6991Z" fill="#DC4F3C"/>
<path d="M36.384 13.6237C34.4119 12.5019 32.0547 12.9103 30.7158 14.7842C30.5633 14.9987 30.4367 15.2107 30.3204 15.4252C30.142 15.4097 29.9663 15.3967 29.7854 15.3916C26.8208 15.3244 24.0035 16.9243 22.2304 19.266C21.5739 19.1574 20.9123 19.1393 20.2661 19.2169C19.7647 18.8266 19.2452 18.4776 18.7386 18.1752C15.5388 16.2678 10.3307 15.3709 8.27593 19.4314C6.22372 23.4867 9.42868 27.3352 12.6647 29.4366C13.5951 30.0414 14.3498 28.488 13.4297 27.8883C11.0234 26.3246 8.20614 23.298 9.82413 20.1939C11.468 17.0432 15.6292 18.3122 17.9735 19.7209C18.0536 19.7674 18.1312 19.8165 18.2113 19.8656C15.8308 21.2019 14.3731 24.3939 16.0169 26.8545C17.3713 28.8809 20.1989 29.3797 21.9797 28.0253C22.3855 28.3665 22.8818 28.6379 23.4762 28.8188C26.7872 29.8217 28.8859 26.1256 27.7099 23.3032C27.0482 21.7188 25.6551 20.4859 24.0294 19.7932C25.5362 18.1494 27.6815 17.2551 29.7595 17.2422C29.5036 20.5686 33.4607 23.1455 36.9707 22.2125C37.4256 22.091 37.6453 21.5379 37.5109 21.1192C36.6838 18.5526 34.6109 16.5857 32.0986 15.7844C32.2976 15.5027 32.5458 15.252 32.843 15.0582C34.399 14.0476 36.1875 15.3037 37.043 16.6012C37.8986 17.9039 38.1751 19.5374 38.4775 21.0364C38.6946 22.122 40.3281 21.5585 40.111 20.4833C39.5915 17.8883 38.8575 15.0297 36.3788 13.6211L36.384 13.6237ZM20.323 27.0225C18.7773 27.5239 17.0999 26.1204 17.0534 24.5903C17.0069 23.0085 18.2294 21.5585 19.6897 21.0959C19.7466 21.0778 19.8035 21.0649 19.8603 21.0494C20.2015 21.3414 20.522 21.6593 20.7985 22.0031C20.3281 23.5513 20.292 25.3063 20.9485 26.6813C20.7701 26.8235 20.5659 26.9424 20.323 27.0225ZM26.278 25.7689C25.8076 27.467 24.1689 27.4929 23.104 26.6141C23.104 26.6089 23.1092 26.6064 23.1092 26.6012C23.9105 24.8566 23.5745 23.2256 22.6983 21.8144C22.7836 21.6283 22.874 21.45 22.9696 21.2768C25.0374 21.9721 26.8673 23.634 26.278 25.7689ZM35.4974 20.7263C34.2465 20.8038 32.9541 20.3877 32.1451 19.3823C31.7083 18.8369 31.5145 18.1468 31.5429 17.4619C33.1868 17.8883 34.6393 18.9506 35.4974 20.7263Z" fill="#F68D77"/>
<path d="M35.8259 24.8617C35.919 24.0967 35.9526 23.3393 35.9474 22.6389C35.9112 18.3872 33.7194 11.786 28.8189 10.9951C27.6946 10.8142 26.7228 11.0209 25.9009 11.4862C25.6036 11.3233 25.3012 11.176 24.9962 11.0494C20.3103 9.1393 14.7895 11.8868 13.1586 16.6141C11.5199 21.3724 14.8179 26.6865 19.5814 27.8289C20.6618 28.0873 21.1218 26.4228 20.0415 26.1644C17.1828 25.4769 14.9962 23.0861 14.5439 20.168C14.0864 17.1956 15.8207 14.3913 18.4131 13.0059C20.3723 11.9591 22.5486 11.9178 24.4638 12.7165C22.8975 14.6291 22.2927 17.6841 22.6675 19.9302C23.0061 21.9591 24.3449 23.8201 26.4643 24.2078C28.3382 24.5515 29.9588 23.4246 30.5946 21.6852C31.7628 18.4854 30.181 14.9548 27.6739 12.7371C29.6228 12.5484 31.7396 14.6394 32.745 16.5908C33.8823 18.7955 34.4043 21.3854 34.1924 23.8873C34.1045 23.8563 34.0167 23.8227 33.9236 23.7942C30.592 22.7785 25.7277 26.8803 28.8965 30.0258C30.287 31.4086 32.6029 30.9511 33.8719 29.6536C34.5491 28.961 35.0169 28.077 35.3374 27.1207C35.7716 27.94 35.9422 28.9196 35.7923 29.7984C35.5028 31.5017 34.2389 32.9232 32.7528 33.7245C28.9895 35.7586 24.4896 34.2 20.7548 32.931C19.7003 32.5717 19.248 34.2388 20.2948 34.5955C25.1306 36.2393 31.4294 37.9529 35.5364 33.7632C37.8445 31.4086 38.2529 27.0587 35.8285 24.8565L35.8259 24.8617ZM26.8288 14.2802C27.8678 15.2753 28.6561 16.5779 29.0076 17.9762C29.3565 19.3667 29.4496 21.9023 27.7256 22.4709C25.7199 23.13 24.438 20.7961 24.301 19.1677C24.1717 17.6402 24.5026 15.924 25.2625 14.5852C25.4925 14.1794 25.7406 13.8537 25.9991 13.5875C26.286 13.7968 26.5651 14.0243 26.8288 14.2776V14.2802ZM33.6703 26.5288C33.3886 27.4102 32.9104 28.4518 32.0446 28.9041C30.8556 29.5244 29.6925 28.8136 29.7675 27.5032C29.8605 25.8387 32.0523 24.9987 33.4584 25.4588C33.616 25.5105 33.7634 25.5777 33.9055 25.6526C33.8357 25.9473 33.7608 26.2393 33.6677 26.5262L33.6703 26.5288Z" fill="#F68D77"/>
<path d="M25.8077 24.6188C25.8077 24.6188 28.1649 26.4745 25.2365 28.8317C22.3081 31.1889 19.3693 30.0465 19.2685 29.2608C19.1677 28.4751 21.9514 20.977 25.8077 24.6188Z" fill="#65CE58"/>
<path d="M27.2655 23.6547C27.2655 23.6547 26.4306 26.5366 23.1455 24.7066C19.863 22.8793 19.8165 19.7234 20.5066 19.3357C21.1967 18.948 29.191 18.7128 27.2629 23.6547H27.2655Z" fill="#65CE58"/>
<path d="M26.4435 23.983C26.4435 23.983 25.1977 25.6423 27.5729 26.6994C29.9482 27.7565 31.7136 26.472 31.6412 25.9266C31.5688 25.3838 28.3768 20.8633 26.4435 23.983Z" fill="#65CE58"/>
</g>
<defs>
<clipPath id="clip0_468_1165">
<rect width="50" height="50" fill="white"/>
</clipPath>
</defs>
</svg>
