<svg width="50" height="50" viewBox="0 0 50 50" fill="none" xmlns="http://www.w3.org/2000/svg">
<g clip-path="url(#clip0_1220_3168)">
<path d="M24.9987 49.9974C38.8051 49.9974 49.9974 38.8051 49.9974 24.9987C49.9974 11.1923 38.8051 0 24.9987 0C11.1923 0 0 11.1923 0 24.9987C0 38.8051 11.1923 49.9974 24.9987 49.9974Z" fill="#DDD5CA"/>
<path d="M24.9418 46.5237C36.8611 46.5237 46.5236 36.8612 46.5236 24.9419C46.5236 13.0226 36.8611 3.36011 24.9418 3.36011C13.0225 3.36011 3.35999 13.0226 3.35999 24.9419C3.35999 36.8612 13.0225 46.5237 24.9418 46.5237Z" fill="#F6F2ED"/>
<path d="M39.0173 22.8087C39.1339 21.784 39.0228 20.7006 38.6188 19.5985C36.7427 14.4697 30.648 13.1835 26.8172 16.7566C24.7485 15.5238 22.4007 14.7552 19.9688 14.9927C16.691 15.3103 14.0232 17.4637 12.1254 19.9854C9.98091 22.8327 8.25661 26.742 9.42241 30.3124C10.3523 33.165 13.0255 35.3932 16.1515 35.1637C17.3064 35.0783 17.3146 33.2957 16.1515 33.3811C13.7277 33.5599 11.735 31.8414 11.0898 29.5972C10.3713 27.0916 11.4151 24.4044 12.7327 22.2776C15.3246 18.0908 19.6787 15.385 24.6076 17.6025C24.9546 17.7573 25.2989 17.9334 25.6432 18.1228C24.9058 19.1876 24.4449 20.367 24.2253 21.5999C21.3352 24.2283 19.7899 28.3724 20.7035 32.183C21.9994 37.5866 28.7339 38.8248 32.4076 35.0036C36.5041 35.628 40.5735 32.3725 40.579 27.7373C40.579 25.8534 39.9988 24.1829 39.0228 22.8113L39.0173 22.8087ZM30.0407 30.1096C31.0032 30.1069 31.9548 29.9441 32.863 29.6533C32.6895 30.8568 32.2259 32.0496 31.5346 33.0449C27.9965 31.5799 25.73 26.2723 25.8628 23.0035C25.8683 22.8434 25.8818 22.6833 25.9008 22.5231C26.9039 21.7546 28.0724 21.2049 29.2951 20.9061C31.1848 22.8274 32.5919 25.229 32.8847 27.7453C31.9955 28.1136 31.0303 28.3244 30.0407 28.3271C28.8749 28.3297 28.8749 30.1123 30.0407 30.1096ZM31.3692 20.6499C33.4025 20.6392 35.4088 21.357 36.8918 22.9715C36.9569 23.0435 37.0219 23.1209 37.0843 23.1956C36.7291 24.6232 35.7856 25.9041 34.5195 26.8327C34.0288 24.6072 32.863 22.4511 31.3719 20.6499H31.3692ZM36.0622 18.6138C36.6153 19.3557 36.9542 20.1135 37.1195 20.8687C35.1106 19.3503 32.4536 18.6192 29.7777 18.9714C29.7316 18.9287 29.6856 18.886 29.6395 18.8433C29.2626 18.5071 28.8695 18.1816 28.4601 17.8693C30.6751 16.0068 33.839 15.6412 36.0649 18.6165L36.0622 18.6138ZM27.2591 19.1529C27.4055 19.2596 27.5492 19.369 27.6929 19.4784C27.3892 19.5878 27.0937 19.7133 26.8036 19.852C26.9446 19.6092 27.0964 19.3744 27.2618 19.1502L27.2591 19.1529ZM24.9926 35.0649C20.9123 33.197 21.9696 27.5052 24.1141 24.3991C24.4368 27.9321 26.3888 31.4678 29.1216 33.5706C29.5256 33.8801 29.9404 34.1363 30.3633 34.3471C28.9563 35.5399 27.0801 36.0229 24.9898 35.0676L24.9926 35.0649ZM34.2918 33.3571C34.0532 33.3998 33.8201 33.4185 33.5869 33.4265C34.449 31.9668 34.8015 30.4005 34.7608 28.8207C36.252 27.9668 37.491 26.7367 38.2528 25.2823C39.4023 28.5485 38.2447 32.6553 34.2918 33.3598V33.3571Z" fill="#EF5D3F"/>
<path d="M24.9987 40.0103C17.5497 40.0103 11.4913 33.9493 11.4913 26.503C11.4913 19.0566 17.5523 12.9956 24.9987 12.9956C32.4451 12.9956 38.5061 19.0566 38.5061 26.503C38.5061 33.9493 32.4451 40.0103 24.9987 40.0103Z" fill="#EF5D3F"/>
<path d="M19.633 29.2995C16.7925 29.3382 15.0349 26.0377 17.1828 23.9338C18.1624 22.9723 19.5839 22.7267 20.7961 23.4142C21.2768 23.6882 21.7059 24.0966 22.0006 24.5644C22.2487 24.9573 23.0215 27.1155 22.2952 27.3558C23.3446 27.0069 22.8948 25.3398 21.8351 25.6913C19.1988 26.5649 21.892 30.1188 23.6883 27.8572C25.5596 25.5052 22.8147 22.0547 20.4859 21.437C17.754 20.7133 14.9134 22.7707 14.5128 25.5233C14.0734 28.5344 16.7124 31.0674 19.633 31.026C20.7418 31.0105 20.747 29.284 19.633 29.2995Z" fill="#DC4F3C"/>
<path d="M12.235 12.0171C10.2319 18.2926 16.2153 23.9608 22.1962 24.4105C24.5379 24.5863 27.3836 23.1569 27.1432 20.4431C26.8615 17.2665 23.3774 16.5144 20.8056 16.2482C19.702 16.1345 19.7098 17.861 20.8056 17.9747C22.421 18.1427 26.846 19.0603 25.0755 21.6734C23.7754 23.5937 20.5601 22.4772 18.893 21.7147C15.3339 20.089 12.6149 16.4989 13.8995 12.472C14.2381 11.4123 12.5735 10.9574 12.235 12.0119V12.0171Z" fill="#DC4F3C"/>
<path d="M30.9382 28.5448C30.3257 27.2654 30.3619 25.7095 31.3725 24.3267C31.3957 24.2957 31.4241 24.2595 31.4552 24.2207C31.8222 24.6084 32.2642 24.947 32.7966 25.2029C33.939 25.7534 35.5751 25.756 36.4306 24.6885C37.2319 23.6909 36.8803 22.2667 35.9085 21.5198C34.6369 20.5428 33.2024 20.7599 31.9592 21.5353C31.786 20.4859 32.1815 19.3383 33.0034 18.5345C33.7994 17.7591 32.5795 16.5392 31.7834 17.3145C30.3024 18.7594 29.8553 20.9537 30.5324 22.7449C29.726 23.6366 29.1316 24.7118 28.93 25.6526C28.6431 26.9915 28.8602 28.2993 29.4262 29.4288C27.1517 31.3569 26.7847 35.0866 29.3538 37.1259C30.2145 37.8108 31.4448 36.596 30.5738 35.9059C29.6071 35.1383 29.1135 33.8976 29.3125 32.7113C29.3487 32.9077 29.403 33.1067 29.4831 33.3161C30.6668 36.4099 36.7382 37.312 38.1546 33.9829C39.9561 29.7493 34.2311 27.3404 30.9382 28.5448ZM33.6185 22.7475C33.8951 23.1145 34.1742 23.4789 34.4508 23.846C34.0062 23.8589 33.603 23.7348 33.2437 23.4712C33.0421 23.3419 32.8716 23.1946 32.7165 23.0395C33.0318 22.8328 33.3523 22.7035 33.6185 22.7501V22.7475ZM34.4146 34.3215C33.6289 34.3138 32.7036 34.1122 32.0264 33.6857C31.3259 33.2463 31.1062 32.9723 31.2458 32.1168C31.2096 31.9075 31.2148 31.742 31.2536 31.6128C32.0522 32.2073 33.0008 32.6234 34.0346 32.7811C34.6627 32.8767 35.2856 32.4115 35.0969 31.7188C34.8721 30.8943 34.4404 30.3205 33.9106 29.9535C34.0812 29.9845 34.2492 30.0207 34.4094 30.0698C35.327 30.3515 36.3479 31.0623 36.6193 32.0315C37.0509 33.5694 35.694 34.3344 34.412 34.3215H34.4146Z" fill="#EF5D3F"/>
<path d="M37.9504 23.0422C36.596 20.9332 34.0889 19.8218 31.649 20.6799C31.587 20.7005 31.525 20.7264 31.4629 20.7522C30.8504 19.9148 30.0078 19.248 29.054 18.9146C28.9739 18.8861 28.8938 18.8654 28.8111 18.8422C28.3665 16.5238 26.8623 14.2984 24.7764 13.1921C22.4167 11.9412 19.1393 12.2358 17.4412 14.4612C15.831 16.5703 16.3427 19.553 18.4363 21.0882C19.3332 21.7447 20.1939 20.2482 19.3073 19.5969C17.922 18.5811 17.8677 16.4488 19.0385 15.2444C20.2171 14.0296 22.2021 13.8926 23.6831 14.5646C25.2262 15.2624 26.5211 16.8856 27.0303 18.6483C25.1797 18.7517 23.3265 19.7468 22.7061 21.5483C21.9643 23.7013 23.7762 25.7587 25.9964 25.0686C27.8909 24.4793 28.7801 22.6235 28.9274 20.7677C29.3332 20.9874 29.695 21.2873 29.9897 21.6594C28.7439 22.6959 27.8108 24.2829 28.5552 25.7535C29.6847 27.9789 32.1272 26.2033 32.4244 24.4173C32.5433 23.7065 32.4709 22.9828 32.2538 22.2979C33.8666 21.7422 35.5467 22.4865 36.4642 23.9133C37.0613 24.8463 38.5578 23.9805 37.9556 23.0422H37.9504ZM26.9114 21.9799C26.6296 22.6287 25.9525 23.5902 25.1021 23.5049C23.0215 23.2981 25.1667 20.8944 26.0533 20.5661C26.4513 20.4188 26.8597 20.3516 27.2603 20.349C27.2448 20.9099 27.1362 21.463 26.9114 21.9799ZM30.1215 24.2958C30.1215 23.9546 30.3696 23.5953 30.6953 23.28C30.7185 23.4273 30.7366 23.5747 30.7418 23.7246C30.8943 24.3656 30.6849 24.5568 30.1215 24.2958Z" fill="#DC4F3C"/>
<path d="M34.8514 30.9563C33.2541 28.3691 30.0362 27.6325 28.077 25.4226C27.3378 24.5904 26.1231 25.8129 26.8571 26.6426C28.6043 28.6172 32.0729 29.5038 33.3782 31.8455C32.1634 30.5893 30.2016 30.6669 28.9507 31.9256C26.4901 34.3965 28.9817 37.5834 31.7214 37.6299C30.5118 39.2091 28.3975 40.2507 26.5521 40.2249C24.9677 40.2016 23.4299 39.4417 22.321 38.3355C21.6749 37.6919 21.1605 36.8855 20.8736 36.0171C20.5144 34.9315 20.4213 32.9388 22.1194 33.0008C23.2308 33.0396 23.2283 31.3156 22.1194 31.2743C19.9173 31.1967 18.7284 33.1998 18.9455 35.2262C19.1729 37.3559 20.4937 39.266 22.2177 40.4859C26.0662 43.2101 31.5431 41.8093 33.7012 37.6221C33.8408 37.3508 33.9623 37.0639 34.0683 36.764C35.7483 35.3347 35.9938 32.8044 34.854 30.9563H34.8514ZM30.7005 35.6992C29.7467 35.2081 29.3565 33.9726 30.1732 33.1481C31.2381 32.0703 32.4632 33.0758 32.657 34.2647C32.7372 34.748 32.7217 35.2184 32.6338 35.6707C32.1117 36.0067 31.4448 36.0817 30.7005 35.6992Z" fill="#DC4F3C"/>
<path d="M36.3841 13.6236C34.412 12.5019 32.0548 12.9103 30.716 14.7842C30.5635 14.9987 30.4368 15.2106 30.3205 15.4251C30.1422 15.4096 29.9664 15.3967 29.7855 15.3915C26.8209 15.3243 24.0036 16.9242 22.2306 19.2659C21.5741 19.1574 20.9124 19.1393 20.2662 19.2168C19.7648 18.8265 19.2453 18.4776 18.7387 18.1752C15.5389 16.2677 10.3308 15.3709 8.27605 19.4314C6.22384 23.4867 9.4288 27.3352 12.6648 29.4365C13.5953 30.0413 14.35 28.488 13.4298 27.8883C11.0235 26.3246 8.20626 23.298 9.82425 20.1938C11.4681 17.0431 15.6294 18.3122 17.9736 19.7208C18.0538 19.7674 18.1313 19.8165 18.2114 19.8656C15.831 21.2018 14.3732 24.3939 16.0171 26.8545C17.3714 28.8808 20.199 29.3797 21.9798 28.0253C22.3856 28.3665 22.8819 28.6379 23.4764 28.8188C26.7873 29.8216 28.886 26.1256 27.71 23.3032C27.0483 21.7188 25.6552 20.4859 24.0295 19.7932C25.5363 18.1494 27.6816 17.2551 29.7596 17.2422C29.5038 20.5686 33.4608 23.1455 36.9708 22.2124C37.4257 22.091 37.6454 21.5378 37.511 21.1191C36.6839 18.5526 34.611 16.5857 32.0987 15.7844C32.2978 15.5027 32.5459 15.252 32.8431 15.0581C34.3991 14.0475 36.1877 15.3037 37.0432 16.6012C37.8987 17.9038 38.1752 19.5373 38.4776 21.0364C38.6948 22.122 40.3283 21.5585 40.1111 20.4833C39.5916 17.8883 38.8576 15.0297 36.3789 13.6211L36.3841 13.6236ZM20.3231 27.0225C18.7775 27.5239 17.1 26.1204 17.0535 24.5903C17.007 23.0085 18.2295 21.5585 19.6898 21.0959C19.7467 21.0778 19.8036 21.0648 19.8604 21.0493C20.2016 21.3414 20.5221 21.6593 20.7987 22.0031C20.3283 23.5513 20.2921 25.3063 20.9486 26.6813C20.7702 26.8234 20.566 26.9423 20.3231 27.0225ZM26.2781 25.7689C25.8077 27.467 24.169 27.4929 23.1042 26.6141C23.1042 26.6089 23.1093 26.6063 23.1093 26.6012C23.9106 24.8565 23.5746 23.2256 22.6984 21.8144C22.7837 21.6283 22.8741 21.45 22.9698 21.2768C25.0375 21.9721 26.8674 23.634 26.2781 25.7689ZM35.4975 20.7263C34.2466 20.8038 32.9543 20.3877 32.1453 19.3822C31.7085 18.8369 31.5146 18.1468 31.543 17.4618C33.1869 17.8883 34.6394 18.9506 35.4975 20.7263Z" fill="#F68D77"/>
<path d="M35.8258 24.8618C35.9188 24.0967 35.9524 23.3394 35.9473 22.639C35.9111 18.3872 33.7193 11.786 28.8188 10.9951C27.6945 10.8142 26.7227 11.021 25.9007 11.4862C25.6035 11.3234 25.3011 11.1761 24.9961 11.0494C20.3101 9.13936 14.7893 11.8868 13.1584 16.6142C11.5198 21.3725 14.8178 26.6865 19.5813 27.8289C20.6617 28.0874 21.1217 26.4229 20.0413 26.1644C17.1827 25.4769 14.9961 23.0861 14.5438 20.168C14.0863 17.1957 15.8206 14.3914 18.413 13.006C20.3722 11.9592 22.5485 11.9179 24.4637 12.7165C22.8974 14.6292 22.2926 17.6842 22.6673 19.9303C23.0059 21.9592 24.3448 23.8202 26.4642 24.2079C28.3381 24.5516 29.9586 23.4247 30.5945 21.6852C31.7627 18.4854 30.1809 14.9548 27.6738 12.7372C29.6226 12.5485 31.7395 14.6395 32.7449 16.5909C33.8821 18.7956 34.4042 21.3854 34.1923 23.8874C34.1044 23.8563 34.0165 23.8227 33.9235 23.7943C30.5919 22.7785 25.7276 26.8804 28.8963 30.0259C30.2869 31.4087 32.6027 30.9512 33.8718 29.6537C34.549 28.961 35.0168 28.0771 35.3373 27.1208C35.7715 27.9401 35.9421 28.9197 35.7922 29.7984C35.5027 31.5017 34.2388 32.9233 32.7526 33.7245C28.9894 35.7586 24.4895 34.2001 20.7547 32.931C19.7002 32.5718 19.2479 34.2389 20.2946 34.5956C25.1305 36.2394 31.4293 37.953 35.5363 33.7633C37.8444 31.4087 38.2528 27.0587 35.8284 24.8566L35.8258 24.8618ZM26.8286 14.2802C27.8677 15.2753 28.656 16.578 29.0075 17.9763C29.3564 19.3668 29.4495 21.9023 27.7255 22.471C25.7198 23.1301 24.4378 20.7961 24.3008 19.1678C24.1716 17.6403 24.5024 15.9241 25.2623 14.5852C25.4924 14.1794 25.7405 13.8538 25.999 13.5875C26.2859 13.7969 26.565 14.0243 26.8286 14.2776V14.2802ZM33.6702 26.5289C33.3885 27.4102 32.9103 28.4518 32.0445 28.9042C30.8555 29.5245 29.6924 28.8137 29.7674 27.5033C29.8604 25.8388 32.0522 24.9988 33.4583 25.4588C33.6159 25.5105 33.7632 25.5777 33.9054 25.6527C33.8356 25.9473 33.7607 26.2394 33.6676 26.5263L33.6702 26.5289Z" fill="#F68D77"/>
<path d="M25.8077 24.6188C25.8077 24.6188 28.1649 26.4746 25.2365 28.8318C22.3081 31.189 19.3693 30.0466 19.2685 29.2608C19.1677 28.4751 21.9514 20.977 25.8077 24.6188Z" fill="#65CE58"/>
<path d="M27.2655 23.6547C27.2655 23.6547 26.4306 26.5366 23.1455 24.7067C19.863 22.8793 19.8165 19.7235 20.5066 19.3358C21.1967 18.9481 29.191 18.7129 27.2629 23.6547H27.2655Z" fill="#65CE58"/>
<path d="M26.4435 23.9829C26.4435 23.9829 25.1977 25.6422 27.5729 26.6994C29.9482 27.7565 31.7136 26.4719 31.6412 25.9265C31.5688 25.3838 28.3768 20.8632 26.4435 23.9829Z" fill="#65CE58"/>
</g>
<defs>
<clipPath id="clip0_1220_3168">
<rect width="50" height="50" fill="white"/>
</clipPath>
</defs>
</svg>
