<svg xmlns="http://www.w3.org/2000/svg" width="48" height="48" viewBox="0 0 48 48" fill="none">
  <rect width="48" height="48" rx="10" fill="#F4F6F8"/>
  <path d="M18.2149 36C18.8089 36 19.2129 35.6981 19.9255 35.072L24.0361 31.511H31.6505C35.1903 31.511 37.091 29.5971 37.091 26.198V17.3125C37.091 13.9139 35.1903 12 31.6505 12H16.3497C12.822 12 10.9092 13.9025 10.9092 17.3125V26.198C10.9092 29.6085 12.8215 31.511 16.3497 31.511H16.9199V34.5266C16.9199 35.4199 17.3953 36 18.2149 36ZM18.7015 33.8773V30.5132C18.7015 29.8872 18.4643 29.6432 17.8109 29.6432H16.3614C13.9503 29.6432 12.8215 28.4484 12.8215 26.1866V17.3125C12.8215 15.0507 13.9503 13.8679 16.3619 13.8679H31.6505C34.0499 13.8679 35.1782 15.0507 35.1782 17.3125V26.1866C35.1782 28.4484 34.0499 29.6432 31.6505 29.6432H23.9524C23.2991 29.6432 22.955 29.7362 22.5029 30.1886L18.7015 33.8773ZM17.9534 18.8092H30.0468C30.4269 18.8092 30.7361 18.5192 30.7361 18.1361C30.7361 17.7649 30.4269 17.4749 30.0468 17.4749H17.9534C17.8641 17.4738 17.7756 17.4902 17.693 17.5231C17.6103 17.5559 17.5352 17.6046 17.4721 17.6662C17.409 17.7278 17.3592 17.8011 17.3256 17.8818C17.2919 17.9625 17.2751 18.049 17.2762 18.1361C17.2762 18.5192 17.5732 18.8092 17.9534 18.8092ZM17.9534 22.5791H30.0468C30.4269 22.5791 30.7361 22.289 30.7361 21.906C30.7361 21.5466 30.4269 21.2334 30.0468 21.2334H17.9534C17.5732 21.2334 17.2762 21.5466 17.2762 21.9065C17.2762 22.289 17.5732 22.5791 17.9534 22.5791ZM17.9534 26.3603H25.8177C26.1978 26.3603 26.507 26.0708 26.507 25.6996C26.507 25.3165 26.1978 25.0151 25.8177 25.0151H17.9534C17.5732 25.0151 17.2762 25.317 17.2762 25.6996C17.2762 26.0708 17.5732 26.3603 17.9534 26.3603Z" fill="#029F64"/>
</svg>