<svg xmlns="http://www.w3.org/2000/svg" width="48" height="48" viewBox="0 0 48 48" fill="none">
  <rect width="48" height="48" rx="10" fill="#F4F6F8"/>
  <path fill-rule="evenodd" clip-rule="evenodd" d="M24.5438 21.2236C25.4903 21.2236 26.3979 20.8474 27.0672 20.1779C27.7364 19.5083 28.1124 18.6002 28.1124 17.6533C28.1124 16.7064 27.7364 15.7983 27.0672 15.1287C26.3979 14.4592 25.4903 14.083 24.5438 14.083C23.5974 14.083 22.6897 14.4592 22.0204 15.1287C21.3512 15.7983 20.9752 16.7064 20.9752 17.6533C20.9752 18.6002 21.3512 19.5083 22.0204 20.1779C22.6897 20.8474 23.5974 21.2236 24.5438 21.2236ZM24.5438 15.8682C25.017 15.8682 25.4709 16.0562 25.8055 16.391C26.1401 16.7258 26.3281 17.1799 26.3281 17.6533C26.3281 18.1268 26.1401 18.5808 25.8055 18.9156C25.4709 19.2504 25.017 19.4384 24.5438 19.4384C24.0706 19.4384 23.6167 19.2504 23.2821 18.9156C22.9475 18.5808 22.7595 18.1268 22.7595 17.6533C22.7595 17.1799 22.9475 16.7258 23.2821 16.391C23.6167 16.0562 24.0706 15.8682 24.5438 15.8682Z" fill="#029F64"/>
  <path fill-rule="evenodd" clip-rule="evenodd" d="M16.5142 17.2713C16.5142 22.0429 21.2479 30.1493 24.5435 30.1493C27.8408 30.1493 32.5728 22.0429 32.5728 17.2713C32.5728 12.5656 28.9917 8.72754 24.5435 8.72754C20.0952 8.72754 16.5142 12.5656 16.5142 17.2713ZM30.7885 17.2713C30.7885 21.1861 26.599 28.3642 24.5435 28.3642C22.4898 28.3642 18.2985 21.1879 18.2985 17.2713C18.2985 13.5242 21.1087 10.5127 24.5435 10.5127C27.9782 10.5127 30.7885 13.5242 30.7885 17.2713Z" fill="#029F64"/>
  <path d="M30.6727 22.365C30.4594 22.2732 30.2902 22.1017 30.2013 21.8871C30.1123 21.6725 30.1105 21.4316 30.1962 21.2157C30.2819 20.9997 30.4485 20.8257 30.6604 20.7307C30.8723 20.6356 31.1129 20.627 31.3311 20.7066C32.0567 20.9946 32.7105 21.4378 33.2469 22.0052C33.7832 22.5726 34.189 23.2505 34.4358 23.9913L36.816 31.1319C37.0844 31.9372 37.1577 32.7949 37.0296 33.6341C36.9016 34.4733 36.576 35.2701 36.0796 35.9586C35.5833 36.6472 34.9304 37.2078 34.1749 37.5943C33.4194 37.9808 32.5829 38.182 31.7344 38.1814H17.353C16.5047 38.1815 15.6687 37.9798 14.9136 37.5931C14.1586 37.2064 13.5062 36.6457 13.0103 35.9572C12.5143 35.2687 12.189 34.4722 12.0612 33.6332C11.9333 32.7943 12.0066 31.937 12.2749 31.1319L14.6533 23.9913C14.9045 23.2372 15.3203 22.5484 15.8706 21.975C16.4208 21.4016 17.0918 20.958 17.8347 20.6763C17.9443 20.6347 18.0609 20.6151 18.1781 20.6186C18.2952 20.6221 18.4105 20.6486 18.5173 20.6967C18.6242 20.7447 18.7206 20.8134 18.8009 20.8987C18.8813 20.9841 18.944 21.0844 18.9856 21.194C19.0272 21.3036 19.0468 21.4203 19.0433 21.5375C19.0398 21.6547 19.0133 21.77 18.9652 21.8769C18.9172 21.9838 18.8486 22.0802 18.7633 22.1606C18.678 22.241 18.5777 22.3038 18.4682 22.3454C17.9722 22.5331 17.5243 22.829 17.157 23.2116C16.7898 23.5942 16.5123 24.0539 16.3449 24.5572L13.9664 31.6978C13.7877 32.2345 13.7391 32.8061 13.8245 33.3653C13.9099 33.9245 14.1269 34.4554 14.4576 34.9143C14.7884 35.3731 15.2234 35.7468 15.7267 36.0045C16.2301 36.2621 16.7875 36.3964 17.353 36.3963H31.7379C32.3034 36.3962 32.8608 36.2617 33.3642 36.0038C33.8675 35.746 34.3024 35.3721 34.633 34.913C34.9636 34.454 35.1804 33.9229 35.2655 33.3636C35.3507 32.8043 35.3017 32.2327 35.1227 31.696L32.7461 24.5554C32.5814 24.0617 32.3108 23.61 31.9532 23.232C31.5957 22.8539 31.1599 22.5586 30.6763 22.3668" fill="#029F64"/>
</svg>