<svg xmlns="http://www.w3.org/2000/svg" width="48" height="48" viewBox="0 0 48 48" fill="none">
  <rect width="48" height="48" rx="10" fill="#F4F6F8"/>
  <path d="M35.7131 23.3111L23.3111 10.9092L10.9092 23.3111H13.6652V32.957C13.6652 33.688 13.9555 34.389 14.4724 34.9058C14.9892 35.4227 15.6902 35.713 16.4212 35.713H22.8977" stroke="#029F64" stroke-width="1.7" stroke-linecap="round" stroke-linejoin="round"/>
  <path d="M19.1771 35.7131V27.4452C19.1771 26.7143 19.4675 26.0133 19.9843 25.4964C20.5012 24.9796 21.2022 24.6892 21.9331 24.6892H24.6891M34.6107 34.6107L37.0911 37.0911M27.4451 31.5792C27.4451 32.6756 27.8806 33.7271 28.6559 34.5023C29.4312 35.2776 30.4827 35.7131 31.5791 35.7131C32.6755 35.7131 33.727 35.2776 34.5023 34.5023C35.2775 33.7271 35.7131 32.6756 35.7131 31.5792C35.7131 30.4828 35.2775 29.4313 34.5023 28.656C33.727 27.8807 32.6755 27.4452 31.5791 27.4452C30.4827 27.4452 29.4312 27.8807 28.6559 28.656C27.8806 29.4313 27.4451 30.4828 27.4451 31.5792Z" stroke="#029F64" stroke-width="1.7" stroke-linecap="round" stroke-linejoin="round"/>
</svg>