<svg xmlns="http://www.w3.org/2000/svg" width="15" height="20" viewBox="0 0 15 20" fill="none">
  <path d="M7.24992 10.7347C8.06591 10.7347 8.84848 10.4106 9.42548 9.83356C10.0025 9.25657 10.3266 8.47399 10.3266 7.658C10.3266 6.84201 10.0025 6.05944 9.42548 5.48244C8.84848 4.90545 8.06591 4.5813 7.24992 4.5813C6.43393 4.5813 5.65136 4.90545 5.07436 5.48244C4.49737 6.05944 4.17322 6.84201 4.17322 7.658C4.17322 8.47399 4.49737 9.25657 5.07436 9.83356C5.65136 10.4106 6.43393 10.7347 7.24992 10.7347Z" stroke="#616161" stroke-width="1.5" stroke-miterlimit="10" stroke-linecap="round"/>
  <path d="M7.25 1.50464C1.09659 1.50464 0.0707211 6.63217 1.09659 10.5189C1.9994 13.9244 4.70598 16.2517 6.49139 18.1602C6.58753 18.2658 6.70467 18.3502 6.8353 18.4079C6.96593 18.4656 7.10718 18.4954 7.25 18.4954C7.39282 18.4954 7.53407 18.4656 7.6647 18.4079C7.79533 18.3502 7.91247 18.2658 8.00861 18.1602C9.7931 16.2517 12.5006 13.9244 13.4034 10.5189C14.4293 6.63217 13.4034 1.50464 7.25 1.50464Z" stroke="#616161" stroke-width="1.5" stroke-miterlimit="10" stroke-linecap="round"/>
</svg>