<svg width="20" height="22" viewBox="0 0 20 22" fill="none" xmlns="http://www.w3.org/2000/svg">
<path d="M8.26764 20C8.44318 20.304 8.69565 20.5565 8.99968 20.732C9.30371 20.9075 9.64858 20.9999 9.99964 20.9999C10.3507 20.9999 10.6956 20.9075 10.9996 20.732C11.3036 20.5565 11.5561 20.304 11.7316 20M1.26164 14.326C1.131 14.4692 1.04479 14.6472 1.01349 14.8385C0.982193 15.0298 1.00716 15.226 1.08534 15.4034C1.16353 15.5807 1.29157 15.7316 1.45389 15.8375C1.61621 15.9434 1.80581 15.9999 1.99964 16H17.9996C18.1934 16.0001 18.3831 15.9438 18.5455 15.8381C18.7079 15.7324 18.8361 15.5817 18.9145 15.4045C18.9929 15.2273 19.0181 15.0311 18.9871 14.8398C18.956 14.6485 18.8701 14.4703 18.7396 14.327C17.4096 12.956 15.9996 11.499 15.9996 7C15.9996 5.4087 15.3675 3.88258 14.2423 2.75736C13.1171 1.63214 11.5909 1 9.99964 1C8.40834 1 6.88221 1.63214 5.757 2.75736C4.63178 3.88258 3.99964 5.4087 3.99964 7C3.99964 11.499 2.58864 12.956 1.26164 14.326Z" stroke="#212121" stroke-width="2" stroke-linecap="round" stroke-linejoin="round"/>
</svg>
