<svg xmlns="http://www.w3.org/2000/svg" width="43" height="43" viewBox="0 0 43 43" fill="none">
  <circle cx="21.5" cy="21.5" r="20.5" fill="white" stroke="#65CE58" stroke-width="2"/>
  <path d="M21.3076 8C21.8599 8 22.3076 8.44772 22.3076 9V10.5088C24.8174 10.7411 27.1806 11.8417 28.9775 13.6387C30.7742 15.4355 31.874 17.7982 32.1064 20.3076H33.6152L33.7178 20.3125C34.222 20.3638 34.6152 20.7899 34.6152 21.3076C34.6152 21.8253 34.222 22.2515 33.7178 22.3027L33.6152 22.3076H32.1064C31.8743 24.8174 30.7745 27.1805 28.9775 28.9775C27.1806 30.7745 24.8173 31.8741 22.3076 32.1064V33.6152C22.3076 34.1675 21.8599 34.6152 21.3076 34.6152C20.7554 34.6152 20.3076 34.1675 20.3076 33.6152V32.1064C17.798 31.8741 15.4356 30.7743 13.6387 28.9775C11.8417 27.1806 10.7411 24.8175 10.5088 22.3076H9C8.44772 22.3076 8 21.8599 8 21.3076C8.00004 20.7554 8.44774 20.3076 9 20.3076H10.5088C10.7412 17.798 11.8418 15.4355 13.6387 13.6387C15.4356 11.8418 17.798 10.7411 20.3076 10.5088V9C20.3076 8.44774 20.7554 8.00004 21.3076 8ZM21.3076 12.4619C18.9617 12.462 16.7116 13.394 15.0527 15.0527C13.3939 16.7116 12.462 18.9616 12.4619 21.3076C12.4619 23.6538 13.3938 25.9045 15.0527 27.5635C16.7116 29.2222 18.9618 30.1542 21.3076 30.1543L21.7471 30.1436C23.9332 30.0349 26.0084 29.1186 27.5635 27.5635C29.2223 25.9045 30.1543 23.6536 30.1543 21.3076L30.1436 20.8691C30.035 18.6829 29.1185 16.6079 27.5635 15.0527C26.0084 13.4976 23.9332 12.5813 21.7471 12.4727L21.3076 12.4619ZM21.54 16.6221C22.6999 16.6796 23.801 17.1652 24.626 17.9902C25.5058 18.8702 26 20.0643 26 21.3086L25.9941 21.541C25.9365 22.7007 25.4509 23.802 24.626 24.627C23.746 25.5067 22.5519 26.001 21.3076 26.001C20.0633 26.001 18.8692 25.5067 17.9893 24.627C17.1094 23.7471 16.6154 22.5529 16.6152 21.3086C16.6152 20.0642 17.1095 18.8702 17.9893 17.9902C18.8692 17.1103 20.0632 16.6162 21.3076 16.6162L21.54 16.6221ZM21.3076 18.6162C20.5936 18.6162 19.9082 18.8994 19.4033 19.4043C18.8986 19.9092 18.6152 20.5947 18.6152 21.3086C18.6154 22.0222 18.8988 22.7072 19.4033 23.2119C19.9082 23.7167 20.5937 24.001 21.3076 24.001C22.0215 24.001 22.7061 23.7166 23.2109 23.2119C23.7157 22.7071 23.9999 22.0224 24 21.3086L23.9863 21.042C23.9251 20.4259 23.6525 19.846 23.2109 19.4043C22.7691 18.9626 22.1895 18.69 21.5732 18.6289L21.3076 18.6162Z" fill="#212121"/>
</svg>