<svg width="20" height="21" viewBox="0 0 20 21" fill="none" xmlns="http://www.w3.org/2000/svg">
<path d="M1.42857 19.2H6.70286V12.6001C6.70286 12.3028 6.81381 12.0537 7.03571 11.8526C7.25667 11.6507 7.53048 11.5497 7.85714 11.5497H12.1429C12.4695 11.5497 12.7438 11.6507 12.9657 11.8526C13.1867 12.0537 13.2971 12.3028 13.2971 12.6001V19.2H18.5714V7.90071C18.5714 7.76725 18.5395 7.64592 18.4757 7.53672C18.4119 7.42753 18.3248 7.3322 18.2143 7.25073L10.5229 1.97546C10.3762 1.85933 10.2019 1.80127 10 1.80127C9.7981 1.80127 9.62429 1.85933 9.47857 1.97546L1.78571 7.25073C1.67619 7.33393 1.58905 7.42926 1.52429 7.53672C1.45952 7.64419 1.42762 7.76552 1.42857 7.90071V19.2ZM0 19.2V7.90071C0 7.56792 0.0819047 7.2529 0.245714 6.95564C0.409524 6.65838 0.635238 6.41355 0.922857 6.22116L8.61572 0.91989C9.01857 0.639964 9.47857 0.5 9.99571 0.5C10.5129 0.5 10.9757 0.639964 11.3843 0.91989L19.0771 6.21986C19.3657 6.41225 19.5914 6.65751 19.7543 6.95564C19.9181 7.2529 20 7.56792 20 7.90071V19.2C20 19.5484 19.8576 19.8522 19.5729 20.1113C19.2881 20.3704 18.9543 20.5 18.5714 20.5H13.0229C12.6952 20.5 12.421 20.3995 12.2 20.1984C11.979 19.9965 11.8686 19.7469 11.8686 19.4496V12.851H8.13143V19.4496C8.13143 19.7478 8.02095 19.9973 7.8 20.1984C7.57905 20.3995 7.30524 20.5 6.97857 20.5H1.42857C1.04571 20.5 0.711904 20.3704 0.427143 20.1113C0.142381 19.8522 0 19.5484 0 19.2Z" fill="#212121"/>
</svg>
