<svg width="44" height="40" viewBox="0 0 44 40" fill="none" xmlns="http://www.w3.org/2000/svg">
<path d="M39.2 0.649903C40.2848 0.649559 41.3297 1.05928 42.1252 1.79692C42.9206 2.53457 43.4079 3.54562 43.4893 4.6274L43.5 4.9499V35.0499C43.5003 36.1347 43.0906 37.1796 42.353 37.9751C41.6153 38.7705 40.6043 39.2578 39.5225 39.3392L39.2 39.3499H4.8C3.71516 39.3502 2.67028 38.9405 1.87482 38.2029C1.07936 37.4652 0.592113 36.4542 0.51075 35.3724L0.5 35.0499V4.9499C0.499657 3.86506 0.909374 2.82018 1.64702 2.02472C2.38466 1.22926 3.39572 0.742016 4.4775 0.660653L4.8 0.649903H39.2ZM17.4398 20.1074L5.2773 32.27C5.13582 32.412 4.97516 32.5336 4.8 32.6312V35.0499H39.2V32.6312C39.0248 32.5336 38.8642 32.412 38.7227 32.27L32.6425 26.1919L31.1225 27.712L31.5675 28.157C31.7671 28.3568 31.9254 28.5939 32.0334 28.8548C32.1414 29.1158 32.1969 29.3954 32.1968 29.6778C32.1967 29.9602 32.141 30.2398 32.0328 30.5007C31.9247 30.7616 31.7662 30.9986 31.5664 31.1982C31.3667 31.3978 31.1296 31.5561 30.8686 31.6641C30.6077 31.7721 30.328 31.8276 30.0456 31.8275C29.7632 31.8274 29.4836 31.7717 29.2227 31.6635C28.9619 31.5553 28.7249 31.3969 28.5253 31.1971L17.442 20.1074H17.4398ZM39.2 4.9499H4.8V26.6649L15.5393 15.9278C16.0074 15.4598 16.6318 15.181 17.2928 15.1449C17.9538 15.1088 18.6048 15.3179 19.1212 15.7322L19.3383 15.9257L28.0802 24.6697L30.7419 22.008C31.21 21.54 31.8344 21.2612 32.4954 21.2251C33.1564 21.189 33.8075 21.3981 34.3238 21.8124L34.5431 22.008L39.2 26.6671V4.9499ZM29.525 9.2499C30.3803 9.2499 31.2006 9.58968 31.8054 10.1945C32.4102 10.7993 32.75 11.6196 32.75 12.4749C32.75 13.3302 32.4102 14.1505 31.8054 14.7553C31.2006 15.3601 30.3803 15.6999 29.525 15.6999C28.6697 15.6999 27.8494 15.3601 27.2446 14.7553C26.6398 14.1505 26.3 13.3302 26.3 12.4749C26.3 11.6196 26.6398 10.7993 27.2446 10.1945C27.8494 9.58968 28.6697 9.2499 29.525 9.2499Z" fill="white"/>
</svg>
