<svg xmlns="http://www.w3.org/2000/svg" width="23" height="22" viewBox="0 0 23 22" fill="none">
  <path d="M21.5 21L16.9692 16.4692M16.9692 16.4692C17.8106 15.6277 18.4781 14.6288 18.9335 13.5294C19.3889 12.43 19.6233 11.2516 19.6233 10.0616C19.6233 7.65834 18.6686 5.35348 16.9692 3.65409C15.2698 1.95471 12.9649 1 10.5616 1C8.15834 1 5.85348 1.95471 4.15409 3.65409C2.45471 5.35348 1.5 7.65834 1.5 10.0616C1.5 11.2516 1.73439 12.43 2.18978 13.5294C2.64517 14.6288 3.31264 15.6277 4.15409 16.4692C4.99554 17.3106 5.99449 17.9781 7.0939 18.4335C8.19331 18.8889 9.37165 19.1233 10.5616 19.1233C11.7516 19.1233 12.93 18.8889 14.0294 18.4335C15.1288 17.9781 16.1277 17.3106 16.9692 16.4692Z" stroke="#65CE58" stroke-width="2" stroke-linecap="round"/>
</svg>