<svg width="22" height="23" viewBox="0 0 22 23" fill="none" xmlns="http://www.w3.org/2000/svg">
<path d="M21 21.5L16.4692 16.9692M16.4692 16.9692C17.3106 16.1277 17.9781 15.1288 18.4335 14.0294C18.8889 12.93 19.1233 11.7516 19.1233 10.5616C19.1233 8.15834 18.1686 5.85348 16.4692 4.15409C14.7698 2.45471 12.4649 1.5 10.0616 1.5C7.65834 1.5 5.35348 2.45471 3.65409 4.15409C1.95471 5.85348 1 8.15834 1 10.5616C1 11.7516 1.23439 12.93 1.68978 14.0294C2.14517 15.1288 2.81264 16.1277 3.65409 16.9692C4.49554 17.8106 5.49449 18.4781 6.5939 18.9335C7.69331 19.3889 8.87165 19.6233 10.0616 19.6233C11.2516 19.6233 12.43 19.3889 13.5294 18.9335C14.6288 18.4781 15.6277 17.8106 16.4692 16.9692Z" stroke="#212121" stroke-width="2" stroke-linecap="round"/>
</svg>
