<svg width="12" height="12" viewBox="0 0 12 12" fill="none" xmlns="http://www.w3.org/2000/svg">
<path fill-rule="evenodd" clip-rule="evenodd" d="M11.627 0.373019C11.833 0.579033 11.833 0.913046 11.627 1.11906L1.11906 11.627C0.913046 11.833 0.579033 11.833 0.373019 11.627C0.167006 11.421 0.167007 11.087 0.37302 10.8809L10.8809 0.37302C11.087 0.167007 11.421 0.167006 11.627 0.373019Z" fill="#616161"/>
<path fill-rule="evenodd" clip-rule="evenodd" d="M11.627 11.627C11.421 11.833 11.087 11.833 10.8809 11.627L0.37302 1.11906C0.167007 0.913046 0.167007 0.579033 0.37302 0.37302C0.579033 0.167007 0.913046 0.167007 1.11906 0.37302L11.627 10.8809C11.833 11.087 11.833 11.421 11.627 11.627Z" fill="#616161"/>
</svg>
