<svg width="26" height="26" viewBox="0 0 26 26" fill="none" xmlns="http://www.w3.org/2000/svg">
<path d="M0 0H14C20.6274 0 26 5.37258 26 12V26H0V0Z" fill="#C3C3C3"/>
<path fill-rule="evenodd" clip-rule="evenodd" d="M7.71929 7.28071C7.53069 7.09855 7.27808 6.99776 7.01589 7.00004C6.75369 7.00232 6.50288 7.10749 6.31747 7.29289C6.13206 7.4783 6.02689 7.72911 6.02461 7.99131C6.02234 8.25351 6.12313 8.50611 6.30529 8.69471L11.5983 13.9877L6.30529 19.2807C6.20978 19.373 6.1336 19.4833 6.08119 19.6053C6.02878 19.7273 6.00119 19.8585 6.00004 19.9913C5.99888 20.1241 6.02419 20.2558 6.07447 20.3787C6.12475 20.5016 6.199 20.6132 6.29289 20.7071C6.38679 20.801 6.49844 20.8753 6.62133 20.9255C6.74423 20.9758 6.87591 21.0011 7.00869 21C7.14147 20.9988 7.27269 20.9712 7.39469 20.9188C7.5167 20.8664 7.62704 20.7902 7.71929 20.6947L13.0123 15.4017L18.3053 20.6947C18.4939 20.8769 18.7465 20.9777 19.0087 20.9754C19.2709 20.9731 19.5217 20.8679 19.7071 20.6825C19.8925 20.4971 19.9977 20.2463 20 19.9841C20.0022 19.7219 19.9014 19.4693 19.7193 19.2807L14.4263 13.9877L19.7193 8.69471C19.9014 8.50611 20.0022 8.25351 20 7.99131C19.9977 7.72911 19.8925 7.4783 19.7071 7.29289C19.5217 7.10749 19.2709 7.00232 19.0087 7.00004C18.7465 6.99776 18.4939 7.09855 18.3053 7.28071L13.0123 12.5737L7.71929 7.28071Z" fill="white"/>
</svg>
