<svg width="40" height="40" viewBox="0 0 40 40" fill="none" xmlns="http://www.w3.org/2000/svg">
<path d="M10 4C10 2.93913 10.4214 1.92172 11.1716 1.17157C11.9217 0.421427 12.9391 0 14 0H26C27.0609 0 28.0783 0.421427 28.8284 1.17157C29.5786 1.92172 30 2.93913 30 4V8H38C38.5304 8 39.0391 8.21071 39.4142 8.58579C39.7893 8.96086 40 9.46957 40 10C40 10.5304 39.7893 11.0391 39.4142 11.4142C39.0391 11.7893 38.5304 12 38 12H35.862L34.128 36.284C34.0562 37.2932 33.6046 38.2376 32.8642 38.9271C32.1239 39.6167 31.1497 40 30.138 40H9.86C8.84828 40 7.87413 39.6167 7.13377 38.9271C6.39341 38.2376 5.94183 37.2932 5.87 36.284L4.14 12H2C1.46957 12 0.960859 11.7893 0.585786 11.4142C0.210714 11.0391 0 10.5304 0 10C0 9.46957 0.210714 8.96086 0.585786 8.58579C0.960859 8.21071 1.46957 8 2 8H10V4ZM14 8H26V4H14V8ZM8.148 12L9.862 36H30.14L31.854 12H8.148ZM16 16C16.5304 16 17.0391 16.2107 17.4142 16.5858C17.7893 16.9609 18 17.4696 18 18V30C18 30.5304 17.7893 31.0391 17.4142 31.4142C17.0391 31.7893 16.5304 32 16 32C15.4696 32 14.9609 31.7893 14.5858 31.4142C14.2107 31.0391 14 30.5304 14 30V18C14 17.4696 14.2107 16.9609 14.5858 16.5858C14.9609 16.2107 15.4696 16 16 16ZM24 16C24.5304 16 25.0391 16.2107 25.4142 16.5858C25.7893 16.9609 26 17.4696 26 18V30C26 30.5304 25.7893 31.0391 25.4142 31.4142C25.0391 31.7893 24.5304 32 24 32C23.4696 32 22.9609 31.7893 22.5858 31.4142C22.2107 31.0391 22 30.5304 22 30V18C22 17.4696 22.2107 16.9609 22.5858 16.5858C22.9609 16.2107 23.4696 16 24 16Z" fill="#212121"/>
</svg>
