<svg width="88" height="88" viewBox="0 0 88 88" fill="none" xmlns="http://www.w3.org/2000/svg">
<rect width="88" height="88" rx="12" fill="#D9D9D9"/>
<path d="M61.2 24.6499C62.2848 24.6496 63.3297 25.0593 64.1252 25.7969C64.9206 26.5346 65.4079 27.5456 65.4893 28.6274L65.5 28.9499V59.0499C65.5003 60.1347 65.0906 61.1796 64.353 61.9751C63.6153 62.7705 62.6043 63.2578 61.5225 63.3392L61.2 63.3499H26.8C25.7152 63.3502 24.6703 62.9405 23.8748 62.2029C23.0794 61.4652 22.5921 60.4542 22.5108 59.3724L22.5 59.0499V28.9499C22.4997 27.8651 22.9094 26.8202 23.647 26.0247C24.3847 25.2293 25.3957 24.742 26.4775 24.6607L26.8 24.6499H61.2ZM39.4398 44.1074L27.2773 56.27C27.1358 56.412 26.9752 56.5336 26.8 56.6312V59.0499H61.2V56.6312C61.0248 56.5336 60.8642 56.412 60.7227 56.27L54.6425 50.1919L53.1225 51.712L53.5675 52.157C53.7671 52.3568 53.9254 52.5939 54.0334 52.8548C54.1414 53.1158 54.1969 53.3954 54.1968 53.6778C54.1967 53.9602 54.141 54.2398 54.0328 54.5007C53.9247 54.7616 53.7662 54.9986 53.5664 55.1982C53.3667 55.3978 53.1296 55.5561 52.8686 55.6641C52.6077 55.7721 52.328 55.8276 52.0456 55.8275C51.7632 55.8274 51.4836 55.7717 51.2227 55.6635C50.9619 55.5553 50.7249 55.3969 50.5253 55.1971L39.442 44.1074H39.4398ZM61.2 28.9499H26.8V50.6649L37.5393 39.9278C38.0074 39.4598 38.6318 39.181 39.2928 39.1449C39.9538 39.1088 40.6048 39.3179 41.1212 39.7322L41.3383 39.9257L50.0802 48.6697L52.7419 46.008C53.21 45.54 53.8344 45.2612 54.4954 45.2251C55.1564 45.189 55.8075 45.3981 56.3238 45.8124L56.5431 46.008L61.2 50.6671V28.9499ZM51.525 33.2499C52.3803 33.2499 53.2006 33.5897 53.8054 34.1945C54.4102 34.7993 54.75 35.6196 54.75 36.4749C54.75 37.3302 54.4102 38.1505 53.8054 38.7553C53.2006 39.3601 52.3803 39.6999 51.525 39.6999C50.6697 39.6999 49.8494 39.3601 49.2446 38.7553C48.6398 38.1505 48.3 37.3302 48.3 36.4749C48.3 35.6196 48.6398 34.7993 49.2446 34.1945C49.8494 33.5897 50.6697 33.2499 51.525 33.2499Z" fill="white"/>
</svg>
