<svg width="40" height="40" viewBox="0 0 40 40" fill="none" xmlns="http://www.w3.org/2000/svg">
<g id="Group 1321320227">
<circle id="Ellipse 232" cx="20" cy="20" r="20" fill="#C3C3C3"/>
<circle id="Ellipse 233" cx="20" cy="20" r="16" fill="#FF6452"/>
<path id="Vector" fill-rule="evenodd" clip-rule="evenodd" d="M13.9649 12.3208C13.7494 12.1126 13.4607 11.9974 13.161 12C12.8614 12.0026 12.5747 12.1228 12.3628 12.3347C12.1509 12.5466 12.0307 12.8333 12.0281 13.1329C12.0255 13.4326 12.1407 13.7213 12.3489 13.9368L18.398 19.986L12.3489 26.0351C12.2397 26.1405 12.1527 26.2666 12.0928 26.4061C12.0329 26.5455 12.0014 26.6955 12 26.8472C11.9987 26.999 12.0276 27.1495 12.0851 27.2899C12.1426 27.4304 12.2274 27.558 12.3347 27.6653C12.442 27.7726 12.5696 27.8574 12.7101 27.9149C12.8505 27.9724 13.001 28.0013 13.1528 28C13.3045 27.9986 13.4545 27.9671 13.5939 27.9072C13.7334 27.8473 13.8595 27.7603 13.9649 27.6511L20.014 21.602L26.0632 27.6511C26.2787 27.8593 26.5674 27.9745 26.8671 27.9719C27.1667 27.9693 27.4534 27.8491 27.6653 27.6372C27.8772 27.4253 27.9974 27.1386 28 26.839C28.0026 26.5393 27.8874 26.2506 27.6792 26.0351L21.63 19.986L27.6792 13.9368C27.8874 13.7213 28.0026 13.4326 28 13.1329C27.9974 12.8333 27.8772 12.5466 27.6653 12.3347C27.4534 12.1228 27.1667 12.0026 26.8671 12C26.5674 11.9974 26.2787 12.1126 26.0632 12.3208L20.014 18.37L13.9649 12.3208Z" fill="white"/>
</g>
</svg>
