<svg width="40" height="38" viewBox="0 0 40 38" fill="none" xmlns="http://www.w3.org/2000/svg">
<path d="M19.999 31.8345L10.3042 37.6437C9.87593 37.9148 9.42818 38.0309 8.96096 37.9922C8.49374 37.9535 8.08493 37.7986 7.73451 37.5275C7.3841 37.2564 7.11156 36.9179 6.91688 36.512C6.72221 36.1062 6.68327 35.6507 6.80008 35.1457L9.36978 24.1663L0.784637 16.7886C0.395288 16.4401 0.152335 16.0427 0.0557761 15.5966C-0.0407824 15.1504 -0.0119708 14.7151 0.142211 14.2907C0.296394 13.8662 0.530003 13.5176 0.843039 13.245C1.15608 12.9724 1.58436 12.7981 2.12789 12.7222L13.4579 11.7346L17.8381 1.39421C18.0328 0.929474 18.3349 0.580921 18.7445 0.348552C19.1541 0.116184 19.5723 0 19.999 0C20.4257 0 20.8439 0.116184 21.2535 0.348552C21.6631 0.580921 21.9652 0.929474 22.1599 1.39421L26.5401 11.7346L37.8701 12.7222C38.4152 12.7996 38.8435 12.9739 39.155 13.245C39.4664 13.5161 39.7001 13.8646 39.8558 14.2907C40.0115 14.7167 40.0411 15.1527 39.9446 15.5989C39.848 16.045 39.6043 16.4416 39.2134 16.7886L30.6282 24.1663L33.1979 35.1457C33.3147 35.6492 33.2758 36.1046 33.0811 36.512C32.8865 36.9195 32.6139 37.2579 32.2635 37.5275C31.9131 37.797 31.5043 37.9519 31.037 37.9922C30.5698 38.0325 30.1221 37.9163 29.6938 37.6437L19.999 31.8345Z" fill="#FBED21"/>
</svg>
